<svg width="427" height="519" viewBox="0 0 427 519" fill="none" xmlns="http://www.w3.org/2000/svg">
<path d="M326.88 291.46L297.88 318.73V84.24C297.88 64.09 282.88 45.43 261.03 45.43C251.259 45.43 241.889 49.3113 234.98 56.2202C228.071 63.129 224.19 72.4994 224.19 82.27V49C224.19 27.82 208.47 7.60001 184.89 7.60001C174.469 7.60001 164.474 11.7392 157.104 19.1072C149.734 26.4752 145.593 36.4687 145.59 46.89V44.55C145.59 24.55 130.51 7.60001 108.75 7.60001C103.911 7.59869 99.1197 8.5506 94.6489 10.4014C90.1781 12.2522 86.1157 14.9656 82.6937 18.3867C79.2718 21.8077 76.5573 25.8693 74.7053 30.3396C72.8533 34.8099 71.9 39.6013 71.9 44.44V106.56C71.9 97.9962 68.4981 89.7831 62.4425 83.7275C56.387 77.672 48.1738 74.27 39.61 74.27C20.25 74.27 7.32001 90.14 7.32001 107.86V372.86C7.32001 448.35 68.17 510.6 143.71 510.6C173.666 510.607 203.29 504.326 230.667 492.165C258.043 480.004 282.563 462.232 302.64 440L412.54 320.76C416.092 316.91 418.013 311.832 417.897 306.595C417.782 301.358 415.639 296.369 411.92 292.68V292.68C400.67 281.49 385.513 275.108 369.647 274.881C353.781 274.653 338.447 280.598 326.88 291.46V291.46Z" fill="#FFEF41"/>
<path d="M326.88 321.46L297.88 348.73V114.24C297.88 94.09 282.88 75.43 261.03 75.43C251.259 75.43 241.889 79.3114 234.98 86.2202C228.071 93.1291 224.19 102.499 224.19 112.27V79C224.19 57.82 208.47 37.6 184.89 37.6C174.469 37.6 164.474 41.7392 157.104 49.1072C149.734 56.4752 145.593 66.4687 145.59 76.89V74.55C145.59 54.55 130.51 37.6 108.75 37.6C103.911 37.5987 99.1197 38.5506 94.6489 40.4014C90.1781 42.2522 86.1157 44.9656 82.6937 48.3867C79.2718 51.8077 76.5573 55.8694 74.7053 60.3397C72.8533 64.8099 71.9 69.6013 71.9 74.44V136.56C71.9 127.996 68.4981 119.783 62.4425 113.728C56.387 107.672 48.1738 104.27 39.61 104.27C20.25 104.27 7.32001 120.14 7.32001 137.86V372.86C7.32001 448.35 68.17 510.6 143.71 510.6C173.667 510.612 203.293 504.333 230.67 492.172C258.047 480.01 282.566 462.236 302.64 440C302.64 440 412 322 411.92 322.64C400.665 311.456 385.504 305.081 369.639 304.861C353.773 304.641 338.442 310.592 326.88 321.46V321.46Z" fill="#FF85E2"/>
<path d="M209.89 73.25C211.69 71.81 212.38 67.9 211.12 65.25C205.82 61.69 200.27 66.01 202.49 71.42C204.49 73.35 206.61 73.93 209.89 73.25Z" fill="#F518C0"/>
<path d="M288.5 88.28C286.066 85.378 283.199 82.8686 280 80.84C279.856 80.9734 279.723 81.1171 279.6 81.27C279.32 83.1094 279.32 84.9806 279.6 86.82C281.42 88.93 285.71 90 288.5 88.28Z" fill="#F518C0"/>
<path d="M192 79.42V78.8C188.39 79.08 185.76 82.3 187.06 85.59C187.16 88.38 189.96 88.45 192 89.29V88.67C198.24 89.34 198.24 78.75 192 79.42Z" fill="#F518C0"/>
<path d="M224.18 88.67V79.56C221.86 79.11 218.98 79.79 217.91 81.27C217.23 84.55 217.81 86.67 219.76 88.67H224.18Z" fill="#F518C0"/>
<path d="M250.6 88.67C253.86 89.18 256.91 88.8 258.01 86.82C259.3 84.49 257.86 81.23 256.16 79.42C248.73 77.15 246.88 85.28 250.6 88.67Z" fill="#F518C0"/>
<path d="M209.89 104.1C211.89 102.1 212.42 99.98 211.74 96.69C209.13 93.6 203.82 94.3 202.49 96.69C201.16 99.08 202.55 101.99 204.34 104.1H209.89Z" fill="#F518C0"/>
<path d="M271.58 104.1C273.58 102.1 274.11 99.98 273.43 96.69C273.005 96.5351 272.62 96.2893 272.3 95.9697C271.981 95.6502 271.735 95.2646 271.58 94.84C271.052 94.9514 270.507 94.9547 269.978 94.8499C269.448 94.745 268.946 94.5341 268.5 94.23C267.01 95 265.22 95.47 264.18 96.69C263.5 99.98 264.08 102.09 266.03 104.1C267.87 104.37 269.74 104.37 271.58 104.1V104.1Z" fill="#F518C0"/>
<path d="M296.21 102.74C295.92 101.74 295.61 100.82 295.21 99.88C295.21 100.685 295.339 101.485 295.59 102.25C295.83 102.43 296 102.59 296.21 102.74Z" fill="#F518C0"/>
<path d="M241.35 103.48C242.58 102.03 242.77 99.55 242.59 96.69C240.83 94.26 235.09 94.26 233.33 96.69C233.117 98.7674 233.328 100.866 233.95 102.86C235.46 104.29 239.16 104.48 241.35 103.48Z" fill="#F518C0"/>
<path d="M289.47 112.12C287.16 109.25 281.91 109.25 279.6 112.12C279.32 113.959 279.32 115.831 279.6 117.67C282.07 120.8 288.11 120.17 289.47 117.67C290.43 115.9 289.21 114.33 289.47 112.12Z" fill="#F518C0"/>
<path d="M192 110.26V109.65C188.39 109.93 185.76 113.14 187.06 116.43C187.16 119.22 189.96 119.3 192 120.13V119.52C198.24 120.18 198.24 109.6 192 110.26Z" fill="#F518C0"/>
<path d="M224.18 110.45C222.721 110.194 221.235 110.13 219.76 110.26C217.96 111.7 217.27 115.61 218.53 118.26C220.23 119.92 224.84 119.92 226.53 118.26C227.36 116.076 227.36 113.664 226.53 111.48C225.848 110.966 225.052 110.623 224.21 110.48C224.21 111.08 224.16 111.68 224.16 112.29L224.18 110.45Z" fill="#F518C0"/>
<path d="M256.16 119.52C256.813 118.938 257.336 118.225 257.694 117.427C258.052 116.629 258.237 115.765 258.237 114.89C258.237 114.015 258.052 113.151 257.694 112.353C257.336 111.555 256.813 110.842 256.16 110.26C250.16 109.26 247.91 111.88 248.75 117.67C250.76 119.62 252.87 120.19 256.16 119.52Z" fill="#F518C0"/>
<path d="M271.58 134.94C273.58 132.94 274.11 130.82 273.43 127.53C273.005 127.375 272.62 127.129 272.3 126.81C271.981 126.49 271.735 126.105 271.58 125.68C271.052 125.791 270.507 125.795 269.978 125.69C269.448 125.585 268.946 125.374 268.5 125.07C267.01 125.84 265.22 126.31 264.18 127.53C263.5 130.82 264.08 132.94 266.03 134.94C267.869 135.22 269.741 135.22 271.58 134.94Z" fill="#F518C0"/>
<path d="M295.64 127.53C294.64 129.31 295.9 130.87 295.64 133.09C296.236 133.764 297.008 134.26 297.87 134.52V125.85C296.946 126.118 296.153 126.716 295.64 127.53Z" fill="#F518C0"/>
<path d="M204.34 134.94C207.2 135.13 209.68 134.94 211.12 133.71C211.95 131.523 211.95 129.107 211.12 126.92C205.51 122.65 200.3 128.47 202.49 133.09C202.89 133.93 204.24 133.63 204.34 134.94Z" fill="#F518C0"/>
<path d="M240.74 134.94C241.393 134.358 241.916 133.645 242.274 132.847C242.632 132.049 242.817 131.185 242.817 130.31C242.817 129.435 242.632 128.571 242.274 127.773C241.916 126.975 241.393 126.262 240.74 125.68C239.06 126.07 235.84 124.91 235.18 126.3C232.71 126.72 233.39 130.3 233.33 133.09C235.34 135 237.45 135.61 240.74 134.94Z" fill="#F518C0"/>
<path d="M225.31 141.11C223.78 141.91 222.31 139.73 222.23 141.11C219.54 140.48 219.39 142.38 217.91 142.96V148.51C219.91 150.51 222.03 151.04 225.31 150.36C227.31 148.36 227.84 146.25 227.16 142.96C226.737 142.802 226.354 142.555 226.035 142.235C225.715 141.916 225.468 141.533 225.31 141.11V141.11Z" fill="#F518C0"/>
<path d="M256.16 150.36C258.16 148.36 258.68 146.25 258.01 142.96C257.585 142.805 257.2 142.559 256.88 142.24C256.561 141.92 256.315 141.535 256.16 141.11C255.63 141.221 255.083 141.224 254.551 141.117C254.02 141.011 253.516 140.797 253.07 140.49C251.59 141.27 249.79 141.74 248.75 142.96C248.08 146.25 248.65 148.36 250.6 150.36C252.443 150.64 254.317 150.64 256.16 150.36Z" fill="#F518C0"/>
<path d="M279.6 148.51C281.77 150.71 283.89 150.87 287.6 150.36C289.67 148.86 290.19 143.81 288.22 141.73C283.4 138.75 277.43 142.68 279.6 148.51Z" fill="#F518C0"/>
<path d="M209.89 165.78C211.89 163.78 212.42 161.66 211.74 158.38C211.315 158.225 210.93 157.979 210.61 157.66C210.291 157.34 210.045 156.955 209.89 156.53C209.36 156.641 208.813 156.644 208.281 156.537C207.75 156.431 207.246 156.217 206.8 155.91C205.32 156.69 203.53 157.16 202.49 158.38C201.81 161.67 202.39 163.78 204.34 165.78C206.179 166.06 208.051 166.06 209.89 165.78V165.78Z" fill="#F518C0"/>
<path d="M240.74 165.78C242.74 163.78 243.26 161.66 242.59 158.38C242.165 158.226 241.779 157.981 241.459 157.661C241.139 157.341 240.894 156.955 240.74 156.53C240.21 156.641 239.663 156.644 239.131 156.537C238.6 156.431 238.096 156.217 237.65 155.91C236.17 156.69 234.37 157.16 233.33 158.38C232.66 161.67 233.23 163.78 235.18 165.78C237.023 166.06 238.897 166.06 240.74 165.78V165.78Z" fill="#F518C0"/>
<path d="M271.58 165.78C273.58 163.78 274.11 161.66 273.43 158.38C273.005 158.225 272.62 157.979 272.3 157.66C271.981 157.34 271.735 156.955 271.58 156.53C271.051 156.64 270.506 156.642 269.977 156.535C269.447 156.428 268.945 156.216 268.5 155.91C267.01 156.69 265.22 157.16 264.18 158.38C263.5 161.67 264.08 163.78 266.03 165.78C267.869 166.06 269.741 166.06 271.58 165.78V165.78Z" fill="#F518C0"/>
<path d="M297.87 165.1V157.1L297.49 157.16C296.724 157.534 296.085 158.124 295.651 158.857C295.217 159.59 295.007 160.434 295.047 161.285C295.088 162.136 295.377 162.957 295.878 163.645C296.38 164.334 297.072 164.861 297.87 165.16V165.1Z" fill="#F518C0"/>
<path d="M192 171.33C188.64 171.06 187.34 172.85 186.45 175.04V178.12C187.34 180.31 188.64 182.12 192 181.82C195 181.89 196.08 180.15 196.94 178.12V175.65C196.48 173 195 171.39 192 171.33Z" fill="#F518C0"/>
<path d="M225.31 181.21C227.31 179.21 227.84 177.09 227.16 173.8C226.736 173.643 226.352 173.397 226.032 173.078C225.713 172.758 225.467 172.374 225.31 171.95C224.782 172.064 224.235 172.068 223.705 171.961C223.175 171.855 222.673 171.64 222.23 171.33C220.74 172.11 218.95 172.58 217.91 173.8C217.23 177.09 217.81 179.2 219.76 181.21C221.599 181.49 223.471 181.49 225.31 181.21V181.21Z" fill="#F518C0"/>
<path d="M256.16 181.21C258.16 179.21 258.68 177.09 258.01 173.8C257.585 173.646 257.199 173.401 256.879 173.081C256.559 172.761 256.314 172.375 256.16 171.95C255.63 172.061 255.083 172.064 254.551 171.957C254.02 171.851 253.516 171.637 253.07 171.33C251.59 172.11 249.79 172.58 248.75 173.8C248.08 177.09 248.65 179.2 250.6 181.21C252.443 181.49 254.317 181.49 256.16 181.21V181.21Z" fill="#F518C0"/>
<path d="M279.6 173.8C278.93 177.09 279.5 179.2 281.45 181.21C282.543 181.919 283.852 182.218 285.145 182.056C286.438 181.894 287.632 181.281 288.517 180.324C289.402 179.368 289.92 178.129 289.981 176.828C290.042 175.526 289.641 174.245 288.85 173.21C286 171.15 281.85 171.16 279.6 173.8Z" fill="#F518C0"/>
<path d="M203.1 196C205.85 198.06 209.94 196.94 211.74 194.77C212.02 192.931 212.02 191.059 211.74 189.22C209.02 185.45 200.74 186.17 201.87 192.92C202.5 193.74 202.48 195.2 203.1 196Z" fill="#F518C0"/>
<path d="M240.74 196.63C242.74 194.63 243.26 192.51 242.59 189.23C242.166 189.073 241.782 188.827 241.462 188.508C241.143 188.188 240.897 187.804 240.74 187.38C240.21 187.491 239.663 187.494 239.131 187.387C238.6 187.281 238.096 187.067 237.65 186.76C236.17 187.54 234.37 188.01 233.33 189.23C232.66 192.51 233.23 194.62 235.18 196.63C237.023 196.91 238.897 196.91 240.74 196.63V196.63Z" fill="#F518C0"/>
<path d="M271.58 196.63C273.58 194.63 274.11 192.51 273.43 189.23C273.007 189.072 272.624 188.825 272.305 188.505C271.985 188.186 271.738 187.803 271.58 187.38C271.051 187.49 270.506 187.492 269.977 187.385C269.447 187.279 268.945 187.066 268.5 186.76C267.01 187.54 265.22 188.01 264.18 189.23C263.5 192.51 264.08 194.62 266.03 196.63C267.869 196.91 269.741 196.91 271.58 196.63V196.63Z" fill="#F518C0"/>
<path d="M296.26 195.4C296.722 195.815 297.273 196.119 297.87 196.29V187.76C297.736 187.828 297.609 187.909 297.49 188C295.11 188.7 295.35 193.2 296.26 195.4Z" fill="#F518C0"/>
<path d="M192 202.18C188.64 201.91 187.34 203.7 186.45 205.88C185.93 210.52 188.34 212.21 192 212.67C194.6 211.98 196.69 210.77 196.94 207.73C196.74 204.44 195.51 202.17 192 202.18Z" fill="#F518C0"/>
<path d="M225.31 212.05C227.31 210.05 227.84 207.93 227.16 204.65C226.736 204.493 226.352 204.247 226.032 203.928C225.713 203.608 225.467 203.224 225.31 202.8C224.781 202.91 224.236 202.912 223.707 202.805C223.177 202.698 222.675 202.486 222.23 202.18C220.74 202.96 218.95 203.43 217.91 204.65C217.23 207.93 217.81 210.05 219.76 212.05C221.599 212.33 223.471 212.33 225.31 212.05V212.05Z" fill="#F518C0"/>
<path d="M256.16 212.05C258.16 210.05 258.68 207.93 258.01 204.65C257.585 204.496 257.199 204.251 256.879 203.931C256.559 203.611 256.314 203.225 256.16 202.8C255.63 202.908 255.083 202.909 254.552 202.803C254.022 202.696 253.518 202.485 253.07 202.18C251.59 202.96 249.79 203.43 248.75 204.65C248.08 207.93 248.65 210.05 250.6 212.05C252.443 212.33 254.317 212.33 256.16 212.05V212.05Z" fill="#F518C0"/>
<path d="M288.85 210.82C289.68 208.633 289.68 206.217 288.85 204.03C287.35 202.66 284.45 202.68 281.45 202.8C279.65 204.08 279.28 206.8 279.6 210.2C281.13 212.36 286.71 212.8 288.85 210.82Z" fill="#F518C0"/>
<path d="M209.89 218.22C209.36 218.331 208.813 218.334 208.281 218.227C207.75 218.121 207.246 217.907 206.8 217.6C205.32 218.38 203.53 218.85 202.49 220.07C201.81 223.36 202.39 225.47 204.34 227.48C206.179 227.76 208.051 227.76 209.89 227.48C211.89 225.48 212.42 223.36 211.74 220.07C211.315 219.915 210.93 219.669 210.61 219.35C210.291 219.03 210.045 218.645 209.89 218.22V218.22Z" fill="#F518C0"/>
<path d="M240.74 227.48C242.74 225.48 243.26 223.36 242.59 220.07C242.165 219.916 241.779 219.671 241.459 219.351C241.139 219.031 240.894 218.645 240.74 218.22C240.21 218.331 239.663 218.334 239.131 218.227C238.6 218.121 238.096 217.907 237.65 217.6C236.17 218.38 234.37 218.85 233.33 220.07C232.66 223.36 233.23 225.47 235.18 227.48C237.023 227.76 238.897 227.76 240.74 227.48V227.48Z" fill="#F518C0"/>
<path d="M273.43 225.62C273.78 222.19 273.15 219.73 271.58 218.22C265.11 216.99 262.89 220.82 264.18 225.62C264.759 226.276 265.471 226.801 266.268 227.16C267.066 227.52 267.93 227.706 268.805 227.706C269.68 227.706 270.544 227.52 271.342 227.16C272.139 226.801 272.851 226.276 273.43 225.62Z" fill="#F518C0"/>
<path d="M295.64 225.62C296.194 226.362 296.978 226.901 297.87 227.15V218.77C295.87 219.8 294.63 222.12 295.64 225.62Z" fill="#F518C0"/>
<path d="M192 233C188.12 233 186.29 235.11 186.45 239.17C186.84 242.07 189.18 243.02 192 243.48C193.55 242.78 195.53 242.48 196.32 241.02C197.7 237.11 196.28 233.08 192 233Z" fill="#F518C0"/>
<path d="M225.31 242.9C227.31 240.9 227.84 238.78 227.16 235.5C226.738 235.34 226.355 235.093 226.036 234.774C225.717 234.455 225.469 234.072 225.31 233.65C224.781 233.756 224.236 233.756 223.708 233.65C223.179 233.544 222.676 233.333 222.23 233.03C220.74 233.81 218.95 234.27 217.91 235.5C217.23 238.78 217.81 240.89 219.76 242.9C221.6 243.17 223.47 243.17 225.31 242.9V242.9Z" fill="#F518C0"/>
<path d="M256.16 242.9C258.16 240.9 258.68 238.78 258.01 235.5C257.586 235.343 257.202 235.097 256.882 234.778C256.563 234.458 256.317 234.074 256.16 233.65C255.63 233.756 255.083 233.755 254.553 233.649C254.023 233.542 253.519 233.332 253.07 233.03C251.59 233.81 249.79 234.27 248.75 235.5C248.08 238.78 248.65 240.89 250.6 242.9C252.443 243.17 254.316 243.17 256.16 242.9V242.9Z" fill="#F518C0"/>
<path d="M289.47 235.5C289.046 235.343 288.662 235.097 288.342 234.778C288.023 234.458 287.777 234.074 287.62 233.65C286.09 234.44 284.62 232.26 284.54 233.65C281.64 233.02 281.03 234.65 279.6 235.5C279.86 237.71 278.6 239.28 279.6 241.05C280.171 241.711 280.789 242.329 281.45 242.9C283.95 244.1 287.84 242.9 289.45 241.05C289.737 239.212 289.743 237.34 289.47 235.5Z" fill="#F518C0"/>
<path d="M205.57 249.07C202.79 249.16 202.71 251.96 201.87 254H202.49C201.12 260.06 213.01 259.85 211.74 254H212.36C212.08 250.39 208.86 247.77 205.57 249.07Z" fill="#F518C0"/>
<path d="M236.42 249.07C234.13 249.46 232.98 250.97 233.33 254C233.25 257.58 235.65 258.68 239.5 258.32C241.56 257.91 242.85 256.73 242.59 254H243.2C242.92 250.39 239.71 247.77 236.42 249.07Z" fill="#F518C0"/>
<path d="M273.43 254H274.05C273.77 250.39 270.55 247.77 267.26 249.07C264.47 249.16 264.4 251.96 263.56 254H264.18C263.51 260.24 274.1 260.24 273.43 254Z" fill="#F518C0"/>
<path d="M297.87 258.14V249.21C295.87 249.8 295.77 252.21 295.02 254H295.64C295.507 254.839 295.654 255.698 296.056 256.446C296.459 257.194 297.096 257.789 297.87 258.14V258.14Z" fill="#F518C0"/>
<path d="M258 266.34C257.418 265.687 256.705 265.164 255.907 264.806C255.109 264.449 254.245 264.263 253.37 264.263C252.495 264.263 251.631 264.449 250.833 264.806C250.035 265.164 249.322 265.687 248.74 266.34C248.527 268.417 248.738 270.516 249.36 272.51C250.81 273.74 253.29 273.93 256.15 273.74C258.11 271.74 258.68 269.63 258 266.34Z" fill="#F518C0"/>
<path d="M281.45 273.74C284.01 275.19 287.39 273.33 289.45 271.89V266.34C287.14 263.48 281.89 263.48 279.58 266.34C279 269.66 279.6 272.7 281.45 273.74Z" fill="#F518C0"/>
<path d="M226.55 272.51C227.38 270.323 227.38 267.907 226.55 265.72C225.29 264.6 221.55 263.72 219.76 265.1C217.38 265.81 217.62 270.31 218.53 272.51C220.23 274.17 224.84 274.17 226.55 272.51Z" fill="#F518C0"/>
<path d="M271.58 289.17C273.58 287.17 274.11 285.05 273.43 281.76C273.005 281.605 272.62 281.359 272.3 281.04C271.981 280.72 271.735 280.335 271.58 279.91C270.05 280.71 268.58 278.53 268.5 279.91C265.81 279.28 265.66 281.19 264.18 281.76V287.32C266.18 289.26 268.3 289.84 271.58 289.17Z" fill="#F518C0"/>
<path d="M210.51 287.93C211.59 285.11 211.59 283.93 210.51 281.15C207.68 280.06 206.51 280.06 203.72 281.15C202.64 283.97 202.64 285.15 203.72 287.93C206.55 289 207.68 289 210.51 287.93Z" fill="#F518C0"/>
<path d="M238.27 289.17C240.9 288.71 242.53 287.27 242.59 284.23C242.59 281.98 240.83 281.46 240.12 279.91C231.69 277.33 231.33 289.7 238.27 289.17Z" fill="#F518C0"/>
<path d="M297.87 279.89H297.49C295.7 281.33 295 285.24 296.26 287.89C296.722 288.305 297.273 288.609 297.87 288.78V279.89Z" fill="#F518C0"/>
<path d="M279.6 302.73C280.165 303.396 280.784 304.014 281.45 304.58C283.95 305.78 287.84 304.58 289.45 302.73C289.662 300.656 289.451 298.56 288.83 296.57C285.93 294.57 281.83 294.57 279.58 297.18C279.86 299.4 278.64 301 279.6 302.73Z" fill="#F518C0"/>
<path d="M222.85 304.58C225.19 303.85 227.31 302.88 227.16 299.65C227.3 298.48 226.47 298.29 226.55 297.18C225.41 296.43 224.21 295.38 222.85 295.33C221.798 295.403 220.759 295.611 219.76 295.95C218.733 297.177 218.09 298.68 217.91 300.27C217.91 300.34 219.42 302.57 219.14 303.35C221 303.19 221 304.75 222.85 304.58Z" fill="#F518C0"/>
<path d="M250.6 296C248.23 296.71 248.47 301.21 249.37 303.4C250.82 304.63 253.3 304.82 256.16 304.63C258.16 302.63 258.68 300.52 258.01 297.23C256.76 295.72 252.92 294.4 250.6 296Z" fill="#F518C0"/>
<path d="M266 320C271.24 321.61 275 317.84 273.4 312.6C272.819 311.947 272.107 311.425 271.31 311.067C270.513 310.709 269.649 310.524 268.775 310.524C267.901 310.524 267.037 310.709 266.24 311.067C265.443 311.425 264.731 311.947 264.15 312.6C263.82 316 264.46 318.5 266 320Z" fill="#F518C0"/>
<path d="M397.43 312.61C394.09 308.56 386.28 310.27 388.17 318.16C390.72 321.23 396.24 320.6 397.43 318.16C398.15 316.68 397.31 314.42 397.43 312.61Z" fill="#F518C0"/>
<path d="M202.49 315.69C202.49 321.26 211.76 321.26 211.74 315.69C212 309.67 202.13 309.25 202.49 315.69Z" fill="#F518C0"/>
<path d="M235.18 320C239.99 321.29 243.82 319.07 242.59 312.6C241.627 311.666 240.402 311.046 239.078 310.825C237.755 310.603 236.395 310.79 235.18 311.36C234.18 311.9 234.18 312.36 233.33 313.21C232.92 316.51 233.81 318.51 235.18 320Z" fill="#F518C0"/>
<path d="M295.64 318.16C296.239 318.873 297.005 319.426 297.87 319.77V311C297.702 311.096 297.569 311.243 297.49 311.42C294.91 312.63 295.32 315.26 295.64 318.16Z" fill="#F518C0"/>
<path d="M335.12 318.78C335.643 317.442 335.845 316 335.71 314.57C333.302 316.12 331.007 317.838 328.84 319.71C330.93 320.33 333.84 320 335.12 318.78Z" fill="#F518C0"/>
<path d="M357.33 317.54C357.81 317.68 358.05 318.06 357.95 318.78C359.65 320.43 364.26 320.43 365.95 318.78C366.547 316.991 366.758 315.096 366.57 313.22C363.87 309.15 355.76 310.47 357.33 317.54Z" fill="#F518C0"/>
<path d="M289.47 328C287.16 325.14 281.91 325.14 279.6 328C279.32 329.839 279.32 331.711 279.6 333.55C282.07 336.68 288.11 336.05 289.47 333.55C290.43 331.82 289.21 330.25 289.47 328Z" fill="#F518C0"/>
<path d="M403.6 328C403.304 328.558 403.126 329.17 403.076 329.8C403.026 330.429 403.106 331.063 403.31 331.66C405.46 329.36 407.31 327.44 408.66 325.97C406.5 325.82 404.37 326.64 403.6 328Z" fill="#F518C0"/>
<path d="M227.16 333.58C227.88 332.1 227.04 329.84 227.16 328.03C223.85 324.38 215.47 326.03 217.91 333.58C220.45 336.65 226 336 227.16 333.58Z" fill="#F518C0"/>
<path d="M248.75 333.58C250.85 335.37 253.75 336.77 256.16 335.43C259.25 333.72 258.48 327.28 256.16 326.18C254.48 326.56 251.26 325.39 250.6 326.8C248.6 327.05 249.01 329.73 248.14 331.12C249.05 331.23 248.7 332.61 248.75 333.58Z" fill="#F518C0"/>
<path d="M317.85 335.43C317.956 335.035 318.202 334.692 318.543 334.466C318.883 334.239 319.295 334.145 319.7 334.2C320.446 332.215 320.52 330.041 319.91 328.01L312.75 334.74C314.338 335.49 316.119 335.731 317.85 335.43V335.43Z" fill="#F518C0"/>
<path d="M343.76 326.8C341.38 327.5 341.62 332 342.52 334.2C344.23 335.85 348.84 335.85 350.52 334.2C351.36 332.015 351.36 329.595 350.52 327.41C349.29 326.29 345.54 325.46 343.76 326.8Z" fill="#F518C0"/>
<path d="M374.6 326.8C372.23 327.5 372.46 332 373.37 334.2C375.45 336.2 380.5 335.65 382.01 333.58V328C381 326.31 376.85 325.31 374.6 326.8Z" fill="#F518C0"/>
<path d="M209.89 341.6C209.36 341.711 208.813 341.714 208.281 341.607C207.75 341.501 207.246 341.287 206.8 340.98C205.32 341.76 203.53 342.23 202.49 343.45C201.7 346.9 202.29 349.45 204.34 351.45C206.179 351.73 208.051 351.73 209.89 351.45C211.94 349.45 212.53 346.88 211.74 343.45C211.315 343.295 210.93 343.049 210.61 342.73C210.291 342.41 210.045 342.025 209.89 341.6V341.6Z" fill="#F518C0"/>
<path d="M238.27 352.09C239.41 352.09 240.68 350.72 241.97 350.85C242.458 350.021 242.765 349.098 242.872 348.141C242.979 347.185 242.883 346.217 242.59 345.3C242.1 343.68 241.81 342.11 240.74 341.6C238.45 340.51 235.03 341.68 233.33 343.45C232.18 348.22 233.94 352.19 238.27 352.09Z" fill="#F518C0"/>
<path d="M271.58 341.6C271.051 341.71 270.506 341.712 269.977 341.605C269.447 341.498 268.945 341.286 268.5 340.98C268.5 342.17 266.81 341.18 266.03 341.6C263.84 342.78 263.81 346.02 263.56 349C264.37 348.9 263.87 349.82 264.18 350.24C266 352.73 271.57 352.78 273.43 350.24C273.71 349.86 273.34 348.94 274.05 349C274.11 346.876 273.686 344.766 272.81 342.83C272.12 342.71 271.85 342.15 271.58 341.6Z" fill="#F518C0"/>
<path d="M297.87 341.94C297.027 342.278 296.266 342.793 295.64 343.45C294.88 346.83 295.79 348.6 297.49 350.85C300.24 351.77 301.31 351.05 303.66 350.24C304.26 347.9 305.66 345.38 304.28 342.83L304.21 342.77L297.87 348.77V341.94Z" fill="#F518C0"/>
<path d="M334.5 350.24C335.22 347.7 336.08 346.24 335.12 343.45C332.91 341.39 328.71 340.92 327.12 343.45C325.75 345.6 327.36 347.84 327.74 350.24C330.54 351.32 331.68 351.32 334.5 350.24Z" fill="#F518C0"/>
<path d="M357.33 345.92C357.43 347.67 358.46 348.49 358.56 350.24C361.39 351.32 362.56 351.32 365.35 350.24C365.95 347.9 367.35 345.38 365.96 342.83C363.09 340.38 357.26 341.77 357.33 345.92Z" fill="#F518C0"/>
<path d="M390 341.6C388.57 342.68 387.91 345.41 388.17 347.87L394.04 341.58C392.78 341.52 391.26 341.7 390 341.6Z" fill="#F518C0"/>
<path d="M227.16 359.49C226.737 359.332 226.354 359.085 226.035 358.765C225.715 358.446 225.468 358.063 225.31 357.64C224.781 357.75 224.236 357.752 223.707 357.645C223.177 357.539 222.675 357.326 222.23 357.02C220.74 357.8 218.95 358.27 217.91 359.49C217.23 362.78 217.81 364.89 219.76 366.9C221.6 367.17 223.47 367.17 225.31 366.9C227.26 364.89 227.84 362.78 227.16 359.49Z" fill="#F518C0"/>
<path d="M248.75 365C250.75 367 252.87 367.53 256.16 366.86C257.233 365.864 257.983 364.57 258.312 363.144C258.642 361.718 258.537 360.226 258.01 358.86C253.8 354.64 246.18 358.88 248.75 365Z" fill="#F518C0"/>
<path d="M280.22 366.28C283.42 367.5 286.13 367.42 288.85 365.66C289.68 363.473 289.68 361.057 288.85 358.87C284.94 355.94 277.85 356.74 278.98 363.81C279.389 364.073 279.719 364.441 279.937 364.876C280.155 365.31 280.253 365.795 280.22 366.28V366.28Z" fill="#F518C0"/>
<path d="M192 357.64V357C190 357.73 187.66 358 187.06 360.09C185.95 363.76 187.75 367.4 192 367.49C192.78 366.63 195 367.22 195.09 365.64C197.03 365.94 195.55 362.81 196.94 362.56C196 360.18 195.86 357.07 192 357.64Z" fill="#F518C0"/>
<path d="M319.08 365.66C320.16 362.83 320.16 361.66 319.08 358.87C316.26 357.79 315.08 357.79 312.3 358.87C311.21 361.7 311.21 362.87 312.3 365.66C315.12 366.74 316.26 366.74 319.08 365.66Z" fill="#F518C0"/>
<path d="M343.14 358.87C342.06 361.7 342.06 362.87 343.14 365.66C345.96 366.74 347.14 366.74 349.93 365.66C351.01 362.83 351.01 361.66 349.93 358.87C347.1 357.79 346 357.79 343.14 358.87Z" fill="#F518C0"/>
<path d="M372.75 363.81C372.85 363.91 372.94 364.03 373.04 364.14L378.96 357.78C375.51 357 371.42 358.88 372.75 363.81Z" fill="#F518C0"/>
<path d="M209.89 382.32C211.89 380.32 212.42 378.2 211.74 374.92C211.316 374.761 210.931 374.513 210.612 374.192C210.293 373.871 210.047 373.485 209.89 373.06C209.36 373.169 208.814 373.172 208.283 373.067C207.753 372.962 207.248 372.752 206.8 372.45C205.32 373.22 203.53 373.69 202.49 374.92C201.81 378.2 202.39 380.31 204.34 382.32C206.18 382.59 208.05 382.59 209.89 382.32V382.32Z" fill="#F518C0"/>
<path d="M240.74 382.32C242.74 380.32 243.26 378.2 242.59 374.92C242.165 374.763 241.78 374.515 241.46 374.194C241.141 373.873 240.895 373.486 240.74 373.06C240.21 373.173 239.664 373.177 239.132 373.072C238.601 372.967 238.097 372.756 237.65 372.45C236.17 373.22 234.37 373.69 233.33 374.92C232.66 378.2 233.23 380.31 235.18 382.32C237.024 382.59 238.897 382.59 240.74 382.32V382.32Z" fill="#F518C0"/>
<path d="M271.58 373.06C271.052 373.171 270.507 373.175 269.978 373.07C269.448 372.965 268.946 372.754 268.5 372.45C267.01 373.22 265.22 373.69 264.18 374.92C263.5 378.2 264.08 380.31 266.03 382.32C267.87 382.59 269.74 382.59 271.58 382.32C273.58 380.32 274.11 378.2 273.43 374.92C273.006 374.761 272.621 374.513 272.302 374.192C271.983 373.871 271.737 373.485 271.58 373.06V373.06Z" fill="#F518C0"/>
<path d="M296.87 374.3C295.44 376.84 295.52 379.69 297.49 381.7C300.56 382.19 300.96 381.89 303.66 381.08C304.74 378.26 304.74 377.08 303.66 374.3C300.83 373.21 299.7 373.21 296.87 374.3Z" fill="#F518C0"/>
<path d="M330.8 373.06C330.28 373.98 328.8 373.95 327.72 374.3C327.88 376.1 326.32 376.19 326.48 378C327.23 380.34 328.19 382.46 331.42 382.32C334.26 382.07 335.34 380.07 335.74 377.38C335.47 376.21 334.41 375.83 334.5 374.3C333.216 374.057 331.971 373.64 330.8 373.06V373.06Z" fill="#F518C0"/>
<path d="M357.33 378C357.444 378.762 357.739 379.485 358.19 380.11L364.19 373.61C361.27 372.34 356.93 373.89 357.33 378Z" fill="#F518C0"/>
<path d="M227.16 390.33C226.735 390.175 226.35 389.929 226.03 389.61C225.711 389.29 225.465 388.905 225.31 388.48C224.782 388.591 224.237 388.595 223.708 388.49C223.178 388.385 222.676 388.174 222.23 387.87C220.74 388.64 218.95 389.11 217.91 390.33C217.23 393.62 217.81 395.74 219.76 397.74C221.599 398.02 223.471 398.02 225.31 397.74C227.26 395.74 227.84 393.62 227.16 390.33Z" fill="#F518C0"/>
<path d="M248.75 390.33C247.41 392.75 248.82 395.64 250.6 397.74H256.16C258.16 395.74 258.68 393.62 258.01 390.33C255.4 387.25 250.08 387.94 248.75 390.33Z" fill="#F518C0"/>
<path d="M279.6 390.33C278.93 393.62 279.5 395.74 281.45 397.74C282.543 398.449 283.852 398.748 285.145 398.586C286.438 398.424 287.632 397.811 288.517 396.854C289.402 395.898 289.92 394.659 289.981 393.358C290.042 392.056 289.641 390.775 288.85 389.74C286 387.69 281.85 387.69 279.6 390.33Z" fill="#F518C0"/>
<path d="M192 388.48V387.87C189.16 388.52 186.61 389.47 186.45 392.8C186.45 396.473 188.3 398.323 192 398.35C192.78 397.5 195 398.09 195.09 396.5C197.03 396.8 195.55 393.68 196.94 393.42C196 391 195.86 387.91 192 388.48Z" fill="#F518C0"/>
<path d="M316 388.48C315.52 388.62 314.78 388.48 314.76 389.1C312.76 388.57 312.85 390.1 311.68 390.33C312.19 392.08 310.81 391.93 311.06 393.42C311.26 394.25 311.94 394.6 311.68 395.89C313.68 398.18 318.3 398.23 319.68 396.5C319.97 396.15 319.58 395.19 320.29 395.27C320.446 393.599 320.237 391.913 319.68 390.33C318.4 389.79 317.87 388.46 316 388.48Z" fill="#F518C0"/>
<path d="M343.14 389.1C341.51 390.82 341.59 394.55 342.82 396.65L349.42 389.55C347.88 388.39 345.57 388.23 343.14 389.1Z" fill="#F518C0"/>
<path d="M204.34 413.16C206.179 413.44 208.051 413.44 209.89 413.16C211.89 411.16 212.42 409.05 211.74 405.76C211.317 405.602 210.934 405.355 210.615 405.035C210.295 404.716 210.048 404.333 209.89 403.91C209.36 404.021 208.813 404.024 208.281 403.917C207.75 403.811 207.246 403.597 206.8 403.29C205.32 404.07 203.53 404.54 202.49 405.76C201.81 409.05 202.39 411.16 204.34 413.16Z" fill="#F518C0"/>
<path d="M235.18 413.16C237.023 413.44 238.897 413.44 240.74 413.16C242.74 411.16 243.26 409.05 242.59 405.76C242.166 405.603 241.782 405.357 241.462 405.038C241.143 404.718 240.897 404.334 240.74 403.91C240.21 404.021 239.663 404.024 239.131 403.917C238.6 403.811 238.096 403.597 237.65 403.29C236.17 404.07 234.37 404.54 233.33 405.76C232.66 409.05 233.23 411.16 235.18 413.16Z" fill="#F518C0"/>
<path d="M271.58 403.91C270.05 404.71 268.58 402.53 268.5 403.91C265.81 403.28 265.66 405.18 264.18 405.76V411.31C266.18 413.31 268.3 413.83 271.58 413.16C273.58 411.16 274.11 409.05 273.43 405.76C273.007 405.602 272.624 405.355 272.305 405.035C271.985 404.716 271.738 404.333 271.58 403.91V403.91Z" fill="#F518C0"/>
<path d="M295.64 410.7C296.12 410.83 296.36 411.21 296.26 411.93C297.96 413.58 302.57 413.58 304.26 411.93C308.76 403.4 293.63 400.54 295.64 410.7Z" fill="#F518C0"/>
<path d="M328.34 404.53C325.96 405.23 326.2 409.73 327.1 411.93C327.399 412.185 327.737 412.391 328.1 412.54L335.1 405.02C333.49 403.79 330.23 403.27 328.34 404.53Z" fill="#F518C0"/>
<path d="M225.31 419.33C224.782 419.441 224.237 419.445 223.708 419.34C223.178 419.235 222.676 419.024 222.23 418.72C220.74 419.49 218.95 419.96 217.91 421.18C217.23 424.47 217.81 426.58 219.76 428.58C221.599 428.86 223.471 428.86 225.31 428.58C227.31 426.58 227.84 424.47 227.16 421.18C226.736 421.023 226.352 420.777 226.032 420.458C225.713 420.138 225.467 419.754 225.31 419.33V419.33Z" fill="#F518C0"/>
<path d="M256.16 419.33C255.63 419.439 255.084 419.442 254.553 419.337C254.023 419.232 253.518 419.022 253.07 418.72C251.59 419.49 249.79 419.96 248.75 421.18C248.08 424.47 248.65 426.58 250.6 428.58C252.443 428.86 254.317 428.86 256.16 428.58C258.16 426.58 258.68 424.47 258.01 421.18C257.585 421.026 257.199 420.781 256.879 420.461C256.559 420.141 256.314 419.755 256.16 419.33V419.33Z" fill="#F518C0"/>
<path d="M279.6 421.18C279.86 423.4 278.6 424.97 279.6 426.73C280.168 427.393 280.787 428.012 281.45 428.58C283.95 429.78 287.84 428.58 289.45 426.73C289.662 424.656 289.451 422.56 288.83 420.57C286 418.53 281.85 418.53 279.6 421.18Z" fill="#F518C0"/>
<path d="M192 419.33V418.72C190 419.43 187.66 419.72 187.06 421.8C185.82 425.6 188.06 428.8 192 429.2V428.58C198.24 429.25 198.24 418.66 192 419.33Z" fill="#F518C0"/>
<path d="M312.91 420C310.54 420.7 310.78 425.21 311.68 427.4C312.187 427.855 312.798 428.178 313.46 428.34L319.96 421.34C319.887 421.099 319.8 420.861 319.7 420.63C318.44 419.44 314.7 418.61 312.91 420Z" fill="#F518C0"/>
<path d="M211.74 436.6C210.938 435.52 209.763 434.778 208.443 434.516C207.124 434.255 205.755 434.493 204.601 435.185C203.448 435.877 202.593 436.973 202.203 438.261C201.813 439.548 201.915 440.934 202.49 442.15C205.03 445.23 210.55 444.6 211.74 442.15C212.46 440.68 211.62 438.42 211.74 436.6Z" fill="#F518C0"/>
<path d="M242.59 436.6C242.165 436.446 241.779 436.201 241.459 435.881C241.139 435.561 240.894 435.175 240.74 434.75C240.21 434.861 239.663 434.864 239.131 434.757C238.6 434.651 238.096 434.437 237.65 434.13C236.17 434.91 234.37 435.38 233.33 436.6C233.06 438.44 233.06 440.31 233.33 442.15C234.127 443.243 235.304 443.998 236.63 444.267C237.956 444.537 239.335 444.3 240.495 443.605C241.656 442.909 242.514 441.805 242.901 440.509C243.289 439.213 243.178 437.818 242.59 436.6V436.6Z" fill="#F518C0"/>
<path d="M271.58 434.75C271.051 434.86 270.506 434.862 269.977 434.755C269.447 434.649 268.945 434.436 268.5 434.13C267.01 434.91 265.22 435.38 264.18 436.6C263.5 439.89 264.08 442 266.03 444.01C267.869 444.29 269.741 444.29 271.58 444.01C273.58 442.01 274.11 439.89 273.43 436.6C273.005 436.445 272.62 436.199 272.3 435.88C271.981 435.56 271.735 435.175 271.58 434.75V434.75Z" fill="#F518C0"/>
<path d="M297.49 434.75C297.37 434.75 297 435.85 296.87 435.98C296.59 436.27 295.87 436.24 295.64 436.6C294.34 439.18 296.23 439.82 295.64 442.15C296.46 443.127 297.583 443.802 298.83 444.07C300.117 442.737 301.387 441.367 302.64 439.96L304.72 437.72C304.628 437.128 304.481 436.545 304.28 435.98C302.17 434.92 299.56 433.88 297.49 434.75Z" fill="#F518C0"/>
<path d="M225.31 450.18C223.78 450.98 222.31 448.8 222.23 450.18C219.54 449.55 219.39 451.45 217.91 452.03C217.23 455.31 217.81 457.42 219.76 459.43C221.599 459.71 223.471 459.71 225.31 459.43C226.293 458.502 226.989 457.312 227.317 456C227.645 454.689 227.59 453.311 227.16 452.03C226.738 451.871 226.355 451.623 226.036 451.304C225.717 450.985 225.469 450.602 225.31 450.18V450.18Z" fill="#F518C0"/>
<path d="M248.14 455.11C248.721 456.28 249.135 457.525 249.37 458.81C252.55 460.44 255.96 460 258.01 457.58C258.29 455.741 258.29 453.869 258.01 452.03C255.16 448.44 248.18 449.47 248.14 455.11Z" fill="#F518C0"/>
<path d="M289.47 452C287.16 449.13 281.91 449.13 279.6 452C279.32 453.839 279.32 455.711 279.6 457.55C280.372 458.479 281.425 459.132 282.6 459.41C284.94 457.41 287.22 455.41 289.47 453.27C289.425 452.848 289.425 452.422 289.47 452Z" fill="#F518C0"/>
<path d="M192 450.18V449.56C190 450.28 187.66 450.56 187.06 452.64V456.35C187.48 458.81 189.75 459.42 192 460.05V459.43C198.24 460.09 198.24 449.51 192 450.18Z" fill="#F518C0"/>
<path d="M209.89 465.6C209.36 465.708 208.813 465.709 208.282 465.603C207.751 465.496 207.247 465.285 206.8 464.98C205.32 465.76 203.53 466.23 202.49 467.45C201.81 470.73 202.39 472.85 204.34 474.85C206.179 475.13 208.051 475.13 209.89 474.85C211.89 472.85 212.42 470.73 211.74 467.45C211.315 467.295 210.93 467.049 210.61 466.73C210.291 466.41 210.045 466.025 209.89 465.6V465.6Z" fill="#F518C0"/>
<path d="M242.59 466.83C239.07 463.08 230.74 465.11 232.71 472.38C233.52 472.28 233.03 473.2 233.33 473.62C235.05 475.99 239.33 475.85 241.97 474.23C242.994 472.349 243.423 470.201 243.2 468.07C242.72 467.93 242.49 467.55 242.59 466.83Z" fill="#F518C0"/>
<path d="M264.18 473C264.272 473.105 264.368 473.205 264.47 473.3C267.403 471.3 270.287 469.22 273.12 467.06C272.252 466.084 271.061 465.454 269.766 465.286C268.47 465.118 267.158 465.424 266.07 466.147C264.982 466.87 264.192 467.961 263.845 469.22C263.497 470.479 263.616 471.822 264.18 473V473Z" fill="#F518C0"/>
<path d="M225.31 481C223.78 481.8 222.31 479.63 222.23 481C219.54 480.37 219.39 482.28 217.91 482.85C217.23 486.13 217.81 488.25 219.76 490.25C221.599 490.53 223.471 490.53 225.31 490.25C226.293 489.322 226.989 488.132 227.317 486.82C227.645 485.509 227.59 484.131 227.16 482.85C226.736 482.693 226.352 482.447 226.032 482.128C225.713 481.808 225.467 481.424 225.31 481V481Z" fill="#F518C0"/>
<path d="M248.75 482.87V483.08C250.25 482.23 251.75 481.36 253.23 480.48L253.1 480.4C251.59 481.18 249.79 481.65 248.75 482.87Z" fill="#F518C0"/>
<path d="M192 481V480.38C190 481.1 187.66 481.38 187.06 483.47V487.17C187.75 489.17 189.06 490.55 192 490.25C195.58 490.34 196.68 487.93 196.32 484.08C195.91 482.05 194.73 480.76 192 481Z" fill="#F518C0"/>
<path d="M209.89 496.44C204.39 494.76 201.95 498.78 202.57 502.36C205.67 501.473 208.75 500.517 211.81 499.49C211.507 498.297 210.835 497.229 209.89 496.44V496.44Z" fill="#F518C0"/>
<path d="M117.35 42.4C118.31 41.4755 118.987 40.2959 119.3 39C116.172 38.1249 112.947 37.6478 109.7 37.58C109.709 38.4817 109.899 39.3724 110.26 40.1989C110.621 41.0253 111.145 41.7705 111.8 42.39C113.638 42.6833 115.511 42.6867 117.35 42.4V42.4Z" fill="#F518C0"/>
<path d="M179.05 42.4C180.332 41.186 181.083 39.5148 181.14 37.75C177.95 38.0469 174.809 38.7389 171.79 39.81C172.168 40.7836 172.747 41.6663 173.49 42.4C175.332 42.6899 177.208 42.6899 179.05 42.4V42.4Z" fill="#F518C0"/>
<path d="M101.93 57.83C103.93 55.83 104.46 53.71 103.78 50.43C103.357 50.27 102.973 50.0212 102.654 49.7003C102.334 49.3795 102.088 48.9941 101.93 48.57C101.402 48.6813 100.857 48.6847 100.328 48.5798C99.7983 48.475 99.2957 48.2642 98.85 47.96C97.36 48.74 95.57 49.2 94.53 50.43C93.86 53.71 94.43 55.82 96.38 57.83C98.2194 58.11 100.091 58.11 101.93 57.83Z" fill="#F518C0"/>
<path d="M132.78 57.83C134.78 55.83 135.3 53.71 134.63 50.43C134.205 50.2729 133.819 50.0251 133.5 49.7039C133.18 49.3827 132.935 48.9958 132.78 48.57C132.25 48.6827 131.704 48.6868 131.172 48.5819C130.641 48.4771 130.137 48.2655 129.69 47.96C128.21 48.74 126.41 49.2 125.38 50.43C124.7 53.71 125.27 55.82 127.23 57.83C129.069 58.11 130.941 58.11 132.78 57.83Z" fill="#F518C0"/>
<path d="M163.62 57.83C165.62 55.83 166.15 53.71 165.47 50.43C165.047 50.27 164.663 50.0212 164.344 49.7003C164.024 49.3795 163.778 48.9941 163.62 48.57C163.092 48.6813 162.547 48.6847 162.018 48.5798C161.488 48.475 160.986 48.2642 160.54 47.96C159.05 48.74 157.26 49.2 156.22 50.43C155.54 53.71 156.12 55.82 158.07 57.83C159.909 58.11 161.781 58.11 163.62 57.83V57.83Z" fill="#F518C0"/>
<path d="M192 58.45V57.83C195 58.35 195.5 56.4 196.32 54.75V51.66C195.66 49.85 194.61 48.43 192 48.57C189.06 48.1 187.94 49.45 187.06 51.04C185.82 54.84 188.06 58.05 192 58.45Z" fill="#F518C0"/>
<path d="M86.51 73.25C88.51 71.25 89.03 69.13 88.36 65.85C87.9354 65.6951 87.5498 65.4493 87.2303 65.1297C86.9107 64.8101 86.6649 64.4246 86.51 64C85.9813 64.1099 85.4359 64.1116 84.9065 64.0051C84.3772 63.8985 83.8749 63.6859 83.43 63.38C81.94 64.16 80.15 64.62 79.11 65.85C78.43 69.13 79.01 71.25 80.96 73.25C82.7994 73.53 84.6706 73.53 86.51 73.25V73.25Z" fill="#F518C0"/>
<path d="M117.35 73.25C119.35 71.25 119.88 69.13 119.2 65.85C118.777 65.6916 118.394 65.4445 118.075 65.1254C117.755 64.8063 117.508 64.4226 117.35 64C116.821 64.1099 116.276 64.1116 115.747 64.0051C115.217 63.8985 114.715 63.6859 114.27 63.38C112.79 64.16 110.99 64.62 109.95 65.85C109.28 69.13 109.85 71.25 111.8 73.25C113.639 73.53 115.511 73.53 117.35 73.25Z" fill="#F518C0"/>
<path d="M145.56 73.45C145.475 70.2043 144.981 66.9821 144.09 63.86C142.858 64.2732 141.734 64.9565 140.8 65.86C140.12 69.14 140.69 71.26 142.65 73.26C143.616 73.3758 144.587 73.4393 145.56 73.45Z" fill="#F518C0"/>
<path d="M150.05 65.85C149.626 65.6933 149.242 65.4469 148.922 65.1276C148.603 64.8082 148.357 64.4236 148.2 64H147.74C146.684 67.0445 146.012 70.209 145.74 73.42C146.3 73.42 146.96 73.34 148.2 73.22C150.15 71.25 150.73 69.13 150.05 65.85Z" fill="#F518C0"/>
<path d="M179.05 73.25C181.05 71.25 181.57 69.13 180.9 65.85C180.475 65.6951 180.09 65.4493 179.77 65.1297C179.451 64.8101 179.205 64.4246 179.05 64C178.52 64.1113 177.973 64.1137 177.441 64.0071C176.91 63.9006 176.406 63.6872 175.96 63.38C174.48 64.16 172.68 64.62 171.64 65.85C170.97 69.13 171.54 71.25 173.49 73.25C175.333 73.5299 177.207 73.5299 179.05 73.25V73.25Z" fill="#F518C0"/>
<path d="M72.94 81.27C72.5531 81.1197 72.1971 80.8993 71.89 80.62V87.71C73.18 86 73.51 84 72.94 81.27Z" fill="#F518C0"/>
<path d="M101.93 88.67C103.93 86.67 104.46 84.55 103.78 81.27C103.357 81.1116 102.974 80.8646 102.655 80.5455C102.335 80.2264 102.088 79.8426 101.93 79.42C101.401 79.5299 100.856 79.5316 100.327 79.425C99.7973 79.3185 99.295 79.1059 98.85 78.8C97.36 79.58 95.57 80.05 94.53 81.27C93.86 84.55 94.43 86.67 96.38 88.67C98.2194 88.95 100.091 88.95 101.93 88.67Z" fill="#F518C0"/>
<path d="M132.78 88.67C134.78 86.67 135.3 84.55 134.63 81.27C134.205 81.1151 133.82 80.8693 133.5 80.5497C133.181 80.2302 132.935 79.8446 132.78 79.42C132.25 79.5313 131.703 79.5337 131.171 79.4271C130.64 79.3205 130.136 79.1072 129.69 78.8C128.21 79.58 126.41 80.05 125.38 81.27C124.7 84.55 125.27 86.67 127.23 88.67C129.069 88.95 130.941 88.95 132.78 88.67Z" fill="#F518C0"/>
<path d="M163.62 88.67C165.62 86.67 166.15 84.55 165.47 81.27C165.047 81.1116 164.664 80.8646 164.345 80.5455C164.025 80.2264 163.778 79.8426 163.62 79.42C163.091 79.5299 162.546 79.5316 162.017 79.425C161.487 79.3185 160.985 79.1059 160.54 78.8C159.05 79.58 157.26 80.05 156.22 81.27C155.54 84.55 156.12 86.67 158.07 88.67C159.909 88.95 161.781 88.95 163.62 88.67V88.67Z" fill="#F518C0"/>
<path d="M88.36 102.25C89.13 100.65 88.17 98.33 88.36 96.69C85.11 92.69 77.06 94.2 79.11 102.25C81.79 105.33 87.32 104.39 88.36 102.25Z" fill="#F518C0"/>
<path d="M117.35 104.1C119.35 102.1 119.88 99.98 119.2 96.69C118.776 96.5334 118.392 96.2869 118.072 95.9676C117.753 95.6483 117.507 95.2636 117.35 94.84C116.822 94.9514 116.277 94.9547 115.748 94.8499C115.218 94.745 114.716 94.5341 114.27 94.23C112.79 95 110.99 95.47 109.95 96.69C109.28 99.98 109.85 102.09 111.8 104.1C113.64 104.37 115.51 104.37 117.35 104.1V104.1Z" fill="#F518C0"/>
<path d="M148.2 104.1C150.15 102.1 150.73 99.98 150.05 96.69C149.625 96.5351 149.24 96.2893 148.92 95.9697C148.601 95.6502 148.355 95.2646 148.2 94.84C147.67 94.9493 147.124 94.9516 146.593 94.8469C146.063 94.7421 145.558 94.5324 145.11 94.23C143.63 95 141.84 95.47 140.8 96.69C140.12 99.98 140.69 102.09 142.65 104.1C144.49 104.37 146.36 104.37 148.2 104.1V104.1Z" fill="#F518C0"/>
<path d="M179.05 104.1C181.05 102.1 181.57 99.98 180.9 96.69C180.475 96.5363 180.089 96.2909 179.769 95.9712C179.449 95.6515 179.204 95.2653 179.05 94.84C178.52 94.9528 177.974 94.9568 177.442 94.8519C176.911 94.7471 176.407 94.5355 175.96 94.23C174.48 95 172.68 95.47 171.64 96.69C170.97 99.98 171.54 102.09 173.49 104.1C175.334 104.37 177.207 104.37 179.05 104.1Z" fill="#F518C0"/>
<path d="M103.78 117.67C104.56 116.08 103.59 113.76 103.78 112.12C100.53 108.12 92.48 109.62 94.53 117.67C97.21 120.76 102.74 119.81 103.78 117.67Z" fill="#F518C0"/>
<path d="M132.78 119.52C134.78 117.52 135.3 115.4 134.63 112.12C134.205 111.963 133.819 111.715 133.5 111.394C133.18 111.073 132.935 110.686 132.78 110.26C132.25 110.369 131.704 110.372 131.173 110.267C130.643 110.162 130.138 109.952 129.69 109.65C128.21 110.42 126.41 110.89 125.38 112.12C124.7 115.4 125.27 117.51 127.23 119.52C129.07 119.79 130.94 119.79 132.78 119.52V119.52Z" fill="#F518C0"/>
<path d="M163.62 119.52C165.62 117.52 166.15 115.4 165.47 112.12C165.047 111.96 164.663 111.711 164.344 111.39C164.024 111.07 163.778 110.684 163.62 110.26C163.092 110.371 162.547 110.375 162.018 110.27C161.488 110.165 160.986 109.954 160.54 109.65C159.05 110.42 157.26 110.89 156.22 112.12C155.54 115.4 156.12 117.51 158.07 119.52C159.91 119.79 161.78 119.79 163.62 119.52V119.52Z" fill="#F518C0"/>
<path d="M40.86 118.9C42.09 117.46 42.28 114.98 42.09 112.12C40.81 110.31 38.09 109.95 34.69 110.26C32.89 111.7 32.2 115.61 33.46 118.26C35 119.71 38.67 119.9 40.86 118.9Z" fill="#F518C0"/>
<path d="M66.73 119C65.817 117.591 64.7974 116.253 63.68 115C63.682 115.908 63.9812 116.791 64.5319 117.513C65.0826 118.235 65.8546 118.758 66.73 119V119Z" fill="#F518C0"/>
<path d="M71.89 111.84V117.84C72.2853 117.398 72.583 116.877 72.7639 116.312C72.9448 115.747 73.0048 115.15 72.94 114.56C72.9591 113.551 72.5821 112.575 71.89 111.84V111.84Z" fill="#F518C0"/>
<path d="M119.2 127.53C118.618 126.879 117.906 126.357 117.109 126C116.312 125.644 115.448 125.459 114.575 125.459C113.702 125.459 112.838 125.644 112.041 126C111.244 126.357 110.532 126.879 109.95 127.53C109.6 130.98 110.23 133.42 111.8 134.94C117 136.55 120.82 132.78 119.2 127.53Z" fill="#F518C0"/>
<path d="M148.2 134.94C150.15 132.94 150.73 130.82 150.05 127.53C149.625 127.375 149.24 127.129 148.92 126.81C148.601 126.49 148.355 126.105 148.2 125.68C147.671 125.793 147.124 125.797 146.592 125.692C146.061 125.587 145.557 125.376 145.11 125.07C143.63 125.84 141.84 126.31 140.8 127.53C140.12 130.82 140.69 132.94 142.65 134.94C144.489 135.22 146.361 135.22 148.2 134.94Z" fill="#F518C0"/>
<path d="M179.05 134.94C181.05 132.94 181.57 130.82 180.9 127.53C180.475 127.376 180.089 127.131 179.769 126.811C179.449 126.491 179.204 126.105 179.05 125.68C178.52 125.793 177.974 125.797 177.442 125.692C176.911 125.587 176.407 125.376 175.96 125.07C174.48 125.84 172.68 126.31 171.64 127.53C170.97 130.82 171.54 132.94 173.49 134.94C175.333 135.22 177.207 135.22 179.05 134.94V134.94Z" fill="#F518C0"/>
<path d="M26.05 133.71C26.8799 131.523 26.8799 129.107 26.05 126.92C24.8 125.8 21.05 124.97 19.27 126.3C16.89 127.01 17.1299 131.51 18.0399 133.71C19.7399 135.36 24.35 135.36 26.05 133.71Z" fill="#F518C0"/>
<path d="M56.28 133.71C56.92 131.18 57.76 130.23 56.9 127.53C54.55 124.53 48.24 125.53 48.26 130C48.4761 131.58 49.1153 133.073 50.11 134.32C53.18 134.81 53.59 134.51 56.28 133.71Z" fill="#F518C0"/>
<path d="M87.74 126.92C84.01 124.1 77.27 125.92 79.11 132.47C79.5039 132.578 79.8456 132.824 80.0717 133.164C80.2978 133.505 80.3931 133.915 80.34 134.32C82.53 135.32 86.24 135.14 87.74 133.71C88.5802 131.525 88.5802 129.105 87.74 126.92Z" fill="#F518C0"/>
<path d="M132.78 150.36C134.78 148.36 135.3 146.25 134.63 142.96C134.205 142.805 133.82 142.559 133.5 142.24C133.181 141.92 132.935 141.535 132.78 141.11C132.25 141.221 131.703 141.224 131.171 141.117C130.64 141.011 130.136 140.797 129.69 140.49C128.21 141.27 126.41 141.74 125.38 142.96C124.7 146.25 125.27 148.36 127.23 150.36C129.069 150.64 130.941 150.64 132.78 150.36V150.36Z" fill="#F518C0"/>
<path d="M163.62 150.36C165.62 148.36 166.15 146.25 165.47 142.96C165.047 142.802 164.664 142.555 164.345 142.235C164.025 141.916 163.778 141.533 163.62 141.11C163.091 141.22 162.546 141.222 162.017 141.115C161.487 141.008 160.985 140.796 160.54 140.49C159.05 141.27 157.26 141.74 156.22 142.96C155.54 146.25 156.12 148.36 158.07 150.36C159.909 150.64 161.781 150.64 163.62 150.36V150.36Z" fill="#F518C0"/>
<path d="M187.06 147.28C187.16 150.07 189.96 150.14 192 150.98V150.36C198.24 151.03 198.24 140.44 192 141.11V140.49C188.39 140.77 185.76 144 187.06 147.28Z" fill="#F518C0"/>
<path d="M10 142.34C9.1328 141.982 8.2266 141.727 7.29999 141.58V149.89C8.22765 149.748 9.13442 149.493 10 149.13C11.1 146.3 11.1 145.17 10 142.34Z" fill="#F518C0"/>
<path d="M34.07 149.13C36.9 150.21 38.07 150.21 40.86 149.13C41.94 146.3 41.94 145.13 40.86 142.34C38.32 140.91 35.46 140.99 33.46 142.96C33.97 144.71 32.59 144.56 32.84 146.05C33.1 147.22 34.17 147.59 34.07 149.13Z" fill="#F518C0"/>
<path d="M64.92 149.13C67.74 150.21 68.92 150.21 71.7 149.13C72.79 146.3 72.79 145.13 71.7 142.34C68.88 141.26 67.7 141.26 64.92 142.34C63.84 145.17 63.84 146.3 64.92 149.13Z" fill="#F518C0"/>
<path d="M103.78 143C102.53 141.53 98.7 140.21 96.38 141.77C94 142.47 94.24 146.97 95.15 149.17C96.59 150.39 99.07 150.59 101.93 150.4C103.88 148.36 104.46 146.25 103.78 143Z" fill="#F518C0"/>
<path d="M117.35 156.53C115.82 157.33 114.35 155.16 114.27 156.53C111.58 155.9 111.43 157.81 109.95 158.38V163.93C111.95 165.93 114.07 166.46 117.35 165.78C119.35 163.78 119.88 161.66 119.2 158.38C118.776 158.223 118.392 157.977 118.072 157.658C117.753 157.338 117.507 156.954 117.35 156.53V156.53Z" fill="#F518C0"/>
<path d="M148.2 165.78C150.15 163.78 150.73 161.66 150.05 158.38C149.625 158.225 149.24 157.979 148.92 157.66C148.601 157.34 148.355 156.955 148.2 156.53C147.67 156.641 147.123 156.644 146.591 156.537C146.06 156.431 145.556 156.217 145.11 155.91C143.63 156.69 141.84 157.16 140.8 158.38C140.12 161.67 140.69 163.78 142.65 165.78C144.489 166.06 146.361 166.06 148.2 165.78Z" fill="#F518C0"/>
<path d="M180.28 165.17C180.861 164 181.275 162.755 181.51 161.47C181.76 159.98 180.39 160.13 180.9 158.38C180.475 158.226 180.089 157.981 179.769 157.661C179.449 157.341 179.204 156.955 179.05 156.53C177.51 157.33 176.05 155.16 175.96 156.53H173.49C172.38 158.09 170.95 159.33 171.03 162.08C171.66 162.9 171.63 164.36 172.26 165.17C173.467 165.91 174.855 166.302 176.27 166.302C177.685 166.302 179.073 165.91 180.28 165.17Z" fill="#F518C0"/>
<path d="M25.44 164.55C26.52 161.73 26.52 160.55 25.44 157.77C22.61 156.68 21.44 156.68 18.65 157.77C17.57 160.59 17.57 161.77 18.65 164.55C21.48 165.63 22.61 165.63 25.44 164.55Z" fill="#F518C0"/>
<path d="M49.5 157.77C48.69 160.46 48.39 160.87 48.88 163.93C50.35 164.93 51.78 165.93 54.43 165.78C55.98 164.72 57.67 163.09 57.52 160.85C57.44 159.66 56.03 159.15 56.28 157.77C53.46 156.68 52.32 156.68 49.5 157.77Z" fill="#F518C0"/>
<path d="M79.11 161.47C79.8 163.66 80.7 165.64 83.43 165.78C86.76 165.62 88.43 163.84 88.36 160.23C87.3 155.08 79.11 156 79.11 161.47Z" fill="#F518C0"/>
<path d="M132.78 181.21C134.78 179.21 135.3 177.09 134.63 173.8C134.205 173.646 133.818 173.401 133.499 173.081C133.179 172.761 132.934 172.375 132.78 171.95C132.25 172.061 131.703 172.064 131.171 171.957C130.64 171.851 130.136 171.637 129.69 171.33C128.21 172.11 126.41 172.58 125.38 173.8C124.7 177.09 125.27 179.2 127.23 181.21C129.069 181.49 130.941 181.49 132.78 181.21V181.21Z" fill="#F518C0"/>
<path d="M163 181.82C165.94 180.43 166.92 176.63 165.47 173.19C161.96 169.44 153.62 171.47 155.6 178.74C156.9 180.94 159.15 182.19 163 181.82Z" fill="#F518C0"/>
<path d="M10 173.19C9.13456 172.825 8.22789 172.566 7.29999 172.42V180.74C8.2266 180.603 9.13324 180.355 10 180C11.1 177.15 11.1 176 10 173.19Z" fill="#F518C0"/>
<path d="M32.84 176.89C32.92 182.89 43.24 182.4 42.09 175.65C41.28 170.75 32.38 170.94 32.84 176.89Z" fill="#F518C0"/>
<path d="M72.94 173.8C69.54 170.08 61.41 171.92 63.69 179.36C66.94 183.32 75 181.85 72.94 173.8Z" fill="#F518C0"/>
<path d="M101.93 181.21C102.583 180.628 103.106 179.915 103.464 179.117C103.822 178.319 104.007 177.455 104.007 176.58C104.007 175.705 103.822 174.841 103.464 174.043C103.106 173.245 102.583 172.532 101.93 171.95C100.26 172.34 97.04 171.17 96.38 172.57C93.91 172.98 94.59 176.57 94.53 179.36C96.53 181.31 98.65 181.88 101.93 181.21Z" fill="#F518C0"/>
<path d="M79.11 195.4C80.93 197.89 86.5 197.94 88.36 195.4C88.64 195.02 88.27 194.1 88.98 194.16C89.52 191.16 88.14 190.07 87.74 188C84.84 186.71 82.8 186.92 79.74 188C79.36 190.07 77.97 191.16 78.51 194.16C79.3 194.06 78.8 195 79.11 195.4Z" fill="#F518C0"/>
<path d="M117.35 196.63C119.35 194.63 119.88 192.51 119.2 189.23C118.778 189.07 118.395 188.823 118.076 188.504C117.757 188.185 117.51 187.802 117.35 187.38C116.821 187.49 116.276 187.492 115.747 187.385C115.217 187.279 114.715 187.066 114.27 186.76C112.79 187.54 110.99 188.01 109.95 189.23C109.28 192.51 109.85 194.62 111.8 196.63C113.639 196.91 115.511 196.91 117.35 196.63Z" fill="#F518C0"/>
<path d="M140.8 189.23C140.31 192.23 140.63 193.23 141.41 196.01C142.651 196.633 144.021 196.957 145.41 196.957C146.799 196.957 148.169 196.633 149.41 196.01C149.57 194.01 150.74 193.22 150.65 191.7C150.38 186.88 143.73 185.5 140.8 189.23Z" fill="#F518C0"/>
<path d="M171 194.16C171.48 194.3 171.71 194.68 171.61 195.4C175.77 200.11 184.61 195.4 180.87 188.61C177.38 184.86 169.05 186.89 171 194.16Z" fill="#F518C0"/>
<path d="M26.67 192.31C26.92 190.83 25.54 190.97 26.05 189.23C22.93 186.6 17.81 187.53 17.42 192.31C17.82 198 26.46 197.86 26.67 192.31Z" fill="#F518C0"/>
<path d="M48.26 194.78C50.26 196.78 52.38 197.31 55.66 196.63C56.3128 196.049 56.8354 195.337 57.1932 194.54C57.551 193.743 57.736 192.879 57.736 192.005C57.736 191.131 57.551 190.267 57.1932 189.47C56.8354 188.673 56.3128 187.961 55.66 187.38C53.99 187.76 50.77 186.59 50.11 188C47.64 188.4 48.32 192 48.26 194.78Z" fill="#F518C0"/>
<path d="M63.07 209.58C63.55 209.72 63.79 210.1 63.69 210.82C67.85 215.54 76.69 210.82 72.94 204.03C69.43 200.28 61.09 202.31 63.07 209.58Z" fill="#F518C0"/>
<path d="M94.53 210.82C95.0158 211.493 95.6418 212.052 96.3648 212.459C97.0878 212.866 97.8905 213.111 98.7175 213.177C99.5446 213.243 100.376 213.129 101.155 212.843C101.933 212.556 102.64 212.104 103.227 211.517C103.814 210.93 104.266 210.223 104.553 209.445C104.839 208.666 104.953 207.835 104.887 207.008C104.821 206.181 104.576 205.378 104.169 204.655C103.762 203.932 103.203 203.306 102.53 202.82C96.73 200.36 92.09 205 94.53 210.82Z" fill="#F518C0"/>
<path d="M125.38 210.82C127.13 213.26 132.87 213.26 134.63 210.82C135.69 208.72 135.06 206.29 134.63 204.03C133.16 203.61 130.48 201.24 129.08 202.8C127.33 202.29 127.48 203.67 125.99 203.42C125.6 205.49 124.22 206.58 124.76 209.58C125.24 209.72 125.48 210.1 125.38 210.82Z" fill="#F518C0"/>
<path d="M159.3 202.18C159.3 202.18 159.07 202.7 158.69 202.8C155.89 203.5 155.77 205.56 155.6 208.35C156.23 209.16 156.21 210.63 156.84 211.43C159.58 213.49 163.67 212.37 165.47 210.2C165.96 207.15 165.65 206.2 164.86 203.42C163.08 202.92 161.28 201.87 159.3 202.18Z" fill="#F518C0"/>
<path d="M11.25 204.65C10.2129 203.566 8.8072 202.909 7.31 202.81V212.27C10.11 211.9 12.47 209.44 11.25 204.65Z" fill="#F518C0"/>
<path d="M32.84 210.2C34.94 211.99 37.84 213.39 40.24 212.05C43.33 210.34 42.56 203.91 40.24 202.8C38.57 203.18 35.35 202.01 34.69 203.42C32.69 203.67 33.1 206.35 32.22 207.73C33.14 207.85 32.79 209.22 32.84 210.2Z" fill="#F518C0"/>
<path d="M24.82 227.48C26.77 225.48 27.35 223.36 26.67 220.07C26.0892 219.417 25.3769 218.895 24.5798 218.537C23.7826 218.179 22.9187 217.994 22.045 217.994C21.1712 217.994 20.3074 218.179 19.5102 218.537C18.7131 218.895 18.0007 219.417 17.42 220.07C17.2073 222.147 17.4182 224.246 18.04 226.24C19.48 227.47 22 227.66 24.82 227.48Z" fill="#F518C0"/>
<path d="M48.26 225.62C50.47 228.04 53.5901 228.19 56.9001 226.86C57.7101 224.31 58.54 222.34 57.52 219.45C53 215.5 45.87 219.29 48.26 225.62Z" fill="#F518C0"/>
<path d="M78.49 225C78.97 225.13 79.21 225.51 79.11 226.23C83.32 230.7 92 226.34 88.36 219.44C84.85 215.71 76.51 217.74 78.49 225Z" fill="#F518C0"/>
<path d="M109.34 225C109.82 225.13 110.05 225.51 109.95 226.23C114.11 230.95 122.95 226.23 119.2 219.44C115.69 215.71 107.36 217.74 109.34 225Z" fill="#F518C0"/>
<path d="M149.43 226.86C150.24 224.31 151.07 222.34 150.05 219.45C148.23 217.67 145.05 217.23 142.05 218.22C139.8 220.33 140.12 223.99 141.43 226.86C142.673 227.477 144.042 227.798 145.43 227.798C146.818 227.798 148.187 227.477 149.43 226.86V226.86Z" fill="#F518C0"/>
<path d="M179.05 227.48C181.05 225.48 181.57 223.36 180.9 220.07C180.475 219.916 180.089 219.671 179.769 219.351C179.449 219.031 179.204 218.645 179.05 218.22C178.52 218.331 177.973 218.334 177.441 218.227C176.91 218.121 176.406 217.907 175.96 217.6C174.48 218.38 172.68 218.85 171.64 220.07C170.97 223.36 171.54 225.47 173.49 227.48C175.333 227.76 177.207 227.76 179.05 227.48V227.48Z" fill="#F518C0"/>
<path d="M42.09 235.5C41.511 234.844 40.7992 234.319 40.0018 233.96C39.2044 233.6 38.3398 233.414 37.465 233.414C36.5903 233.414 35.7255 233.6 34.9282 233.96C34.1308 234.319 33.419 234.844 32.84 235.5C32.6278 237.574 32.8388 239.67 33.46 241.66C34.9 242.89 37.38 243.09 40.24 242.9C42.2 240.89 42.77 238.78 42.09 235.5Z" fill="#F518C0"/>
<path d="M72.94 235.5C72.5164 235.343 72.1317 235.097 71.8124 234.778C71.4931 234.458 71.2466 234.074 71.09 233.65C70.5575 233.751 70.0103 233.746 69.4799 233.634C68.9495 233.523 68.4465 233.307 68 233C66.52 233.78 64.73 234.24 63.69 235.47C63.01 238.75 63.5799 240.86 65.5399 242.87C67.3801 243.14 69.2498 243.14 71.09 242.87C73 240.89 73.61 238.78 72.94 235.5Z" fill="#F518C0"/>
<path d="M101.93 233.65C101.401 233.756 100.856 233.756 100.328 233.65C99.7988 233.544 99.2964 233.333 98.85 233.03C97.36 233.81 95.57 234.27 94.53 235.5C93.86 238.78 94.43 240.89 96.38 242.9C98.2202 243.17 100.09 243.17 101.93 242.9C103.93 240.9 104.46 238.78 103.78 235.5C103.358 235.34 102.975 235.093 102.656 234.774C102.337 234.455 102.09 234.072 101.93 233.65Z" fill="#F518C0"/>
<path d="M134.63 235.5C134.206 235.343 133.822 235.097 133.502 234.778C133.183 234.458 132.937 234.074 132.78 233.65C132.25 233.756 131.703 233.755 131.173 233.649C130.643 233.542 130.139 233.332 129.69 233.03C128.21 233.81 126.41 234.27 125.38 235.5C124.7 238.78 125.27 240.89 127.23 242.9C129.07 243.17 130.94 243.17 132.78 242.9C134.73 240.89 135.3 238.78 134.63 235.5Z" fill="#F518C0"/>
<path d="M165.47 235.5C165.048 235.34 164.665 235.093 164.346 234.774C164.027 234.455 163.779 234.072 163.62 233.65C163.091 233.756 162.546 233.756 162.018 233.65C161.489 233.544 160.986 233.333 160.54 233.03C159.05 233.81 157.26 234.27 156.22 235.5C155.54 238.78 156.12 240.89 158.07 242.9C159.91 243.17 161.78 243.17 163.62 242.9C165.57 240.89 166.15 238.78 165.47 235.5Z" fill="#F518C0"/>
<path d="M10.63 234.88C9.66637 234.16 8.51099 233.743 7.31 233.68V242.88C8.23929 242.848 9.15471 242.645 10.01 242.28C11.45 240.77 11.63 237.07 10.63 234.88Z" fill="#F518C0"/>
<path d="M55.05 249.07C51.84 248.28 47.54 249.07 48.26 254C48 256.53 49.57 257.22 50.73 258.32H53.81C56.03 257.86 57.94 257.1 57.52 254C58 251.06 56.64 249.94 55.05 249.07Z" fill="#F518C0"/>
<path d="M85.89 249.07C82.68 248.28 78.39 249.07 79.11 254C78.85 256.53 80.41 257.22 81.58 258.32H85.28C87.08 257.66 88.51 256.61 88.36 254C88.83 251.06 87.49 249.94 85.89 249.07Z" fill="#F518C0"/>
<path d="M113 249.07C110.71 249.46 109.56 250.97 109.91 254C109.25 260.24 119.83 260.24 119.16 254H119.78C119.54 250.39 116.33 247.77 113 249.07Z" fill="#F518C0"/>
<path d="M178.43 249.07C174.63 247.83 171.43 250.07 171.03 254H171.64C170.98 260.24 181.56 260.24 180.9 254H181.51C180.79 252.05 180.51 249.66 178.43 249.07Z" fill="#F518C0"/>
<path d="M21.12 258.32C24.76 258.67 25.91 256.53 26.67 254C26.21 251 24.91 248.77 21.12 249.07C18.54 249.36 17.19 250.9 17.42 254C17.37 256.72 18.73 258 21.12 258.32Z" fill="#F518C0"/>
<path d="M150.05 254H150.67C149.95 252 149.67 249.66 147.58 249.07C143.79 247.83 140.58 250.07 140.18 254H140.8C140.13 260.24 150.72 260.24 150.05 254Z" fill="#F518C0"/>
<path d="M134.63 266.34C134.205 266.185 133.82 265.939 133.5 265.62C133.181 265.3 132.935 264.915 132.78 264.49C132.25 264.601 131.703 264.604 131.171 264.497C130.64 264.391 130.136 264.177 129.69 263.87C128.21 264.65 126.41 265.12 125.38 266.34C124.7 269.63 125.27 271.74 127.23 273.74C129.069 274.02 130.941 274.02 132.78 273.74C134.73 271.74 135.3 269.63 134.63 266.34Z" fill="#F518C0"/>
<path d="M165.47 266.34C165.047 266.182 164.664 265.935 164.345 265.615C164.025 265.296 163.778 264.913 163.62 264.49C163.091 264.6 162.546 264.602 162.017 264.495C161.487 264.389 160.985 264.176 160.54 263.87C159.05 264.65 157.26 265.12 156.22 266.34C155.54 269.63 156.12 271.74 158.07 273.74C159.909 274.02 161.781 274.02 163.62 273.74C165.57 271.74 166.15 269.63 165.47 266.34Z" fill="#F518C0"/>
<path d="M187.06 267V270.7C187.75 272.7 189.06 274.08 192 273.78C195.58 273.87 196.68 271.46 196.32 267.61C195.91 265.56 194.73 264.26 192 264.53V263.91C190.05 264.59 187.66 264.88 187.06 267Z" fill="#F518C0"/>
<path d="M10.63 266.34C9.72505 265.477 8.55517 264.945 7.31 264.83V273.76C7.38992 273.765 7.47006 273.765 7.54999 273.76C10.63 273 11.81 269.7 10.63 266.34Z" fill="#F518C0"/>
<path d="M41.48 265.72C40.22 264.6 36.48 263.72 34.69 265.1C32.32 265.81 32.55 270.31 33.46 272.51C35.16 274.17 39.77 274.17 41.46 272.51C42.2964 270.325 42.3034 267.91 41.48 265.72V265.72Z" fill="#F518C0"/>
<path d="M63.69 269.42C63.95 270.6 65.01 270.97 64.92 272.51C67.62 273.31 68.02 273.61 71.09 273.13C72.2475 271.74 72.8996 269.998 72.94 268.19C72.25 263.14 63.1 263.42 63.69 269.42Z" fill="#F518C0"/>
<path d="M96.38 265.1C94 265.81 94.24 270.31 95.15 272.51C97.23 274.51 102.28 273.96 103.78 271.89V266.34C102.78 264.62 98.63 263.62 96.38 265.1Z" fill="#F518C0"/>
<path d="M148.2 289.17C150.15 287.17 150.73 285.05 150.05 281.76C149.625 281.605 149.24 281.359 148.92 281.04C148.601 280.72 148.355 280.335 148.2 279.91C147.67 280.019 147.124 280.022 146.593 279.917C146.063 279.812 145.558 279.602 145.11 279.3C143.63 280.07 141.84 280.54 140.8 281.76C140.12 285.05 140.69 287.16 142.65 289.17C144.49 289.44 146.36 289.44 148.2 289.17V289.17Z" fill="#F518C0"/>
<path d="M26.05 281.15C24.8 280.02 21.05 279.15 19.27 280.53C16.65 281.37 17.06 286.89 18.65 288.53C23.82 291.1 28.6 286.31 26.05 281.15Z" fill="#F518C0"/>
<path d="M56.28 281.15C53.74 279.71 50.88 279.79 48.88 281.76C49.39 283.51 48.01 283.36 48.26 284.85C48.53 286.02 49.59 286.39 49.5 287.93C52.32 289.01 53.5 289.01 56.28 287.93C57.36 285.11 57.36 284 56.28 281.15Z" fill="#F518C0"/>
<path d="M87.13 287.93C88.21 285.11 88.21 283.93 87.13 281.15C84.3 280.06 83.13 280.06 80.34 281.15C79.26 283.97 79.26 285.15 80.34 287.93C83.17 289 84.3 289 87.13 287.93Z" fill="#F518C0"/>
<path d="M117.35 279.91C110.91 278.26 108.55 283.07 110.57 287.91C112.01 289.14 114.5 289.33 117.35 289.15C118 288.568 118.52 287.856 118.875 287.06C119.231 286.264 119.415 285.402 119.415 284.53C119.415 283.658 119.231 282.796 118.875 282C118.52 281.204 118 280.492 117.35 279.91V279.91Z" fill="#F518C0"/>
<path d="M179.66 288.55C181.66 286.47 181.11 281.41 179.05 279.91C172.57 278.68 170.35 282.51 171.64 287.32C173.08 289.11 177 289.81 179.66 288.55Z" fill="#F518C0"/>
<path d="M134.63 297.18C134.048 296.529 133.336 296.007 132.539 295.65C131.742 295.294 130.878 295.109 130.005 295.109C129.132 295.109 128.268 295.294 127.471 295.65C126.674 296.007 125.962 296.529 125.38 297.18C125.159 299.257 125.367 301.357 125.99 303.35C127.44 304.58 129.92 304.77 132.78 304.58C134.73 302.59 135.3 300.47 134.63 297.18Z" fill="#F518C0"/>
<path d="M163.62 304.58C165.69 303.08 166.21 298.03 164.24 295.95C163.45 295.1 161.33 295.57 160.54 294.72C159.05 295.49 157.26 295.96 156.22 297.18C155.94 299.019 155.94 300.891 156.22 302.73C158.22 304.69 160.34 305.26 163.62 304.58Z" fill="#F518C0"/>
<path d="M10.63 296.57C9.70096 295.77 8.53397 295.299 7.31 295.23V304.57C7.38971 304.58 7.47028 304.58 7.54999 304.57C10.76 304.09 12.29 300.06 10.63 296.57Z" fill="#F518C0"/>
<path d="M40.86 296.57C38.04 295.49 36.86 295.49 34.07 296.57C32.99 299.39 32.99 300.57 34.07 303.35C36.9 304.44 38.07 304.44 40.86 303.35C41.94 300.53 41.94 299.39 40.86 296.57Z" fill="#F518C0"/>
<path d="M71.7 296.57C68.88 295.49 67.7 295.49 64.92 296.57C63.84 299.39 63.84 300.57 64.92 303.35C67.74 304.44 68.92 304.44 71.7 303.35C72.79 300.53 72.79 299.39 71.7 296.57Z" fill="#F518C0"/>
<path d="M103.78 299C102.98 295.93 99.91 294.57 96.38 295.92C94.76 298.45 94.46 300.41 95.76 303.32C98.68 304.62 100.64 304.32 103.17 302.7C102.72 300.85 104.23 300.92 103.78 299Z" fill="#F518C0"/>
<path d="M192 304.58C193.17 304.32 193.55 303.26 195.09 303.35C195.43 302.25 195.4 300.79 196.32 300.27C195.41 298.27 195.32 295.51 192 295.95V295.33C189.52 295.94 187.67 297.17 187.06 299.65C187.31 302.69 189 304.34 192 304.58Z" fill="#F518C0"/>
<path d="M142.65 320C144.489 320.28 146.361 320.28 148.2 320C150.15 318 150.73 315.88 150.05 312.6C149.627 312.442 149.244 312.195 148.925 311.875C148.605 311.556 148.358 311.173 148.2 310.75C147.67 310.861 147.123 310.864 146.591 310.757C146.06 310.651 145.556 310.437 145.11 310.13C143.63 310.91 141.84 311.38 140.8 312.6C140.12 315.89 140.69 318 142.65 320Z" fill="#F518C0"/>
<path d="M25.44 318.78C26.52 315.95 26.52 314.78 25.44 311.99C22.61 310.91 21.44 310.91 18.65 311.99C17.57 314.82 17.57 315.99 18.65 318.78C21.48 319.86 22.61 319.86 25.44 318.78Z" fill="#F518C0"/>
<path d="M49.5 312C48.41 314.83 48.41 316 49.5 318.79C52.32 319.87 53.5 319.87 56.28 318.79C57.36 315.96 57.36 314.79 56.28 312C53.46 310.91 52.32 310.91 49.5 312Z" fill="#F518C0"/>
<path d="M80.34 318.78C83.17 319.86 84.34 319.86 87.13 318.78C88.21 315.95 88.21 314.78 87.13 311.99C84.3 310.91 83.13 310.91 80.34 311.99C79.26 314.82 79.26 316 80.34 318.78Z" fill="#F518C0"/>
<path d="M112.42 311.37C111.699 311.872 111.072 312.499 110.57 313.22C109.97 314.77 110.57 316.98 111.19 318.78C113.88 319.58 114.29 319.88 117.35 319.39C118.164 318.486 118.712 317.373 118.93 316.176C119.149 314.979 119.032 313.744 118.59 312.61C117.787 311.837 116.779 311.309 115.686 311.09C114.593 310.87 113.46 310.967 112.42 311.37Z" fill="#F518C0"/>
<path d="M171.64 318.16C172.222 318.813 172.935 319.336 173.733 319.694C174.531 320.051 175.395 320.236 176.27 320.236C177.145 320.236 178.009 320.051 178.807 319.694C179.605 319.336 180.318 318.813 180.9 318.16C181.113 316.083 180.902 313.984 180.28 311.99C175 308.42 169.43 312.75 171.64 318.16Z" fill="#F518C0"/>
<path d="M158.07 335.43C159.909 335.71 161.781 335.71 163.62 335.43C165.62 333.43 166.15 331.32 165.47 328.03C165.047 327.872 164.664 327.625 164.345 327.305C164.025 326.986 163.778 326.603 163.62 326.18C163.091 326.29 162.546 326.292 162.017 326.185C161.487 326.079 160.985 325.866 160.54 325.56C159.05 326.34 157.26 326.81 156.22 328.03C155.54 331.32 156.12 333.43 158.07 335.43Z" fill="#F518C0"/>
<path d="M10 327.41C9.13442 327.047 8.22765 326.792 7.29999 326.65V335C8.22873 334.863 9.13612 334.608 10 334.24C11.1 331.37 11.1 330.24 10 327.41Z" fill="#F518C0"/>
<path d="M34.07 327.41C32.99 330.24 32.99 331.41 34.07 334.2C36.9 335.28 38.07 335.28 40.86 334.2C41.94 331.37 41.94 330.2 40.86 327.41C38 326.33 36.9 326.33 34.07 327.41Z" fill="#F518C0"/>
<path d="M64.92 327.41C63.84 330.24 63.84 331.41 64.92 334.2C67.74 335.28 68.92 335.28 71.7 334.2C72.79 331.37 72.79 330.2 71.7 327.41C68.88 326.33 67.74 326.33 64.92 327.41Z" fill="#F518C0"/>
<path d="M95.76 327.41C94.68 330.24 94.68 331.41 95.76 334.2C98.59 335.28 99.76 335.28 102.55 334.2C103.63 331.37 103.63 330.2 102.55 327.41C99.73 326.33 98.59 326.33 95.76 327.41Z" fill="#F518C0"/>
<path d="M125.38 331.12C125.63 335.21 130.89 336.44 134.01 334.2C134.84 332.013 134.84 329.597 134.01 327.41C131 324.89 124.87 326.39 125.38 331.12Z" fill="#F518C0"/>
<path d="M192 335.43C198.24 336.1 198.24 325.51 192 326.18C189.06 325.7 187.94 327.05 187.06 328.65C186.28 331.86 187.1 336.15 192 335.43Z" fill="#F518C0"/>
<path d="M179.05 341.6C177.51 342.4 176.05 340.23 175.96 341.6C173.28 340.97 173.12 342.88 171.64 343.45C170.86 346.9 171.44 349.45 173.49 351.45C179.09 353.08 182.49 349.09 180.9 343.45C180.475 343.296 180.089 343.051 179.769 342.731C179.449 342.411 179.204 342.025 179.05 341.6V341.6Z" fill="#F518C0"/>
<path d="M18 350.24C19.7 351.9 24.31 351.9 26 350.24C27.36 347.69 26 345.18 25.39 342.83C22.56 341.76 21.39 341.76 18.6 342.83C18.05 345.18 16.67 347.69 18 350.24Z" fill="#F518C0"/>
<path d="M48.26 349.62C48.8417 350.273 49.5549 350.796 50.3529 351.154C51.1508 351.512 52.0155 351.697 52.89 351.697C53.7646 351.697 54.6292 351.512 55.4272 351.154C56.2252 350.796 56.9384 350.273 57.52 349.62C57.96 346.51 56.6701 345.12 56.2801 342.83C53.4601 341.76 52.28 341.76 49.5 342.83C49.1 345.12 47.82 346.51 48.26 349.62Z" fill="#F518C0"/>
<path d="M79.72 350.24C81.43 351.9 86.04 351.9 87.72 350.24C89.08 347.69 87.72 345.18 87.11 342.83C84.28 341.76 83.11 341.76 80.32 342.83C79.74 345.18 78.36 347.69 79.72 350.24Z" fill="#F518C0"/>
<path d="M118 342.83C115.18 341.76 114 341.76 111.22 342.83C110.62 345.18 109.22 347.69 110.6 350.24C112.6 352.1 117.99 351.94 119.23 349.62C119.122 349.09 119.121 348.543 119.227 348.012C119.334 347.481 119.545 346.978 119.85 346.53C118.33 346.18 118.45 344.21 118 342.83Z" fill="#F518C0"/>
<path d="M140.8 349.62C142.8 351.62 144.91 352.15 148.2 351.47C151.06 349.16 151.06 343.91 148.2 341.6C141.53 340.34 139.65 344.82 140.8 349.62Z" fill="#F518C0"/>
<path d="M11.25 359.49C10.2466 358.336 8.8334 357.619 7.31 357.49V367.25C8.78111 366.86 10.134 366.115 11.25 365.08V359.49Z" fill="#F518C0"/>
<path d="M134.63 365.66C137.49 358.73 129.63 354.58 125.38 359.49C123 365.83 130.14 369.62 134.63 365.66Z" fill="#F518C0"/>
<path d="M165.47 365.66C166.08 363.649 166.08 361.501 165.47 359.49C164.21 358.67 161.63 355.97 159.92 357.64C157.98 357.34 157.51 358.52 156.22 358.87C155.79 361.14 155.16 363.57 156.22 365.66C158 368.09 163.71 368.09 165.47 365.66Z" fill="#F518C0"/>
<path d="M40.24 357.64C34.46 356.8 31.78 359.05 32.84 365.04C34.84 367.04 36.96 367.57 40.24 366.9C40.8931 366.318 41.4157 365.605 41.7736 364.807C42.1315 364.009 42.3165 363.145 42.3165 362.27C42.3165 361.395 42.1315 360.531 41.7736 359.733C41.4157 358.935 40.8931 358.222 40.24 357.64V357.64Z" fill="#F518C0"/>
<path d="M63.69 365C64.08 365.85 65.44 365.54 65.54 366.86C68.4 367.04 70.88 366.86 72.32 365.62C73.1499 363.433 73.1499 361.017 72.32 358.83C66.71 354.61 61.49 360.43 63.69 365Z" fill="#F518C0"/>
<path d="M94.53 365C95.81 366.81 98.53 367.17 101.93 366.86C103.73 365.42 104.43 361.5 103.17 358.86C99.08 355.84 92.58 358.24 94.53 365Z" fill="#F518C0"/>
<path d="M24.82 382.32C26.77 380.32 27.35 378.2 26.67 374.92C26.246 374.761 25.8614 374.513 25.5422 374.192C25.2229 373.871 24.9766 373.485 24.82 373.06C24.292 373.171 23.7469 373.175 23.2176 373.07C22.6883 372.965 22.1857 372.754 21.74 372.45C20.25 373.22 18.46 373.69 17.42 374.92C16.74 378.2 17.32 380.31 19.27 382.32C21.1101 382.59 22.9798 382.59 24.82 382.32V382.32Z" fill="#F518C0"/>
<path d="M50.11 382.32H55.66C57.47 381.04 57.83 378.32 57.52 374.92C56.9401 374.264 56.2275 373.739 55.4293 373.379C54.6311 373.019 53.7656 372.833 52.89 372.833C52.0145 372.833 51.149 373.019 50.3508 373.379C49.5526 373.739 48.8399 374.264 48.26 374.92C47.59 378.2 48.16 380.31 50.11 382.32Z" fill="#F518C0"/>
<path d="M140.18 379.85C140.66 379.99 140.9 380.36 140.8 381.08C144.96 385.8 153.8 381.08 150.05 374.3C146.54 370.55 138.2 372.57 140.18 379.85Z" fill="#F518C0"/>
<path d="M174.73 373.06C173.575 373.443 172.519 374.079 171.64 374.92C170.47 377.08 171.97 379.21 172.26 381.7C174.34 382.09 175.42 383.47 178.43 382.93C181.49 381.41 182.09 378.13 180.9 374.3C180.03 373.646 179.023 373.194 177.956 372.98C176.888 372.765 175.786 372.793 174.73 373.06V373.06Z" fill="#F518C0"/>
<path d="M79.72 381.08C81.17 382.31 83.65 382.5 86.51 382.32C87.1631 381.738 87.6858 381.025 88.0436 380.227C88.4015 379.429 88.5865 378.565 88.5865 377.69C88.5865 376.815 88.4015 375.951 88.0436 375.153C87.6858 374.355 87.1631 373.642 86.51 373.06C80.24 371.59 77.64 376.15 79.72 381.08Z" fill="#F518C0"/>
<path d="M117.35 382.32C118.003 381.738 118.526 381.025 118.884 380.227C119.241 379.429 119.427 378.565 119.427 377.69C119.427 376.815 119.241 375.951 118.884 375.153C118.526 374.355 118.003 373.642 117.35 373.06C115.68 373.44 112.46 372.28 111.8 373.68C109.33 374.09 110.01 377.68 109.95 380.47C112 382.42 114.07 383 117.35 382.32Z" fill="#F518C0"/>
<path d="M8.19 388.44C8.52 391.35 8.93 394.24 9.44 397.1C11.33 395.8 12.33 393.35 11.25 390.33C10.4676 389.378 9.39123 388.714 8.19 388.44V388.44Z" fill="#F518C0"/>
<path d="M32.84 390.33C32.33 393.59 32.71 396.64 34.69 397.74C37.02 399.03 40.29 397.59 42.09 395.89V390.33C41.5084 389.679 40.7957 389.157 39.9987 388.8C39.2017 388.444 38.3383 388.259 37.465 388.259C36.5917 388.259 35.7283 388.444 34.9313 388.8C34.1342 389.157 33.4216 389.679 32.84 390.33V390.33Z" fill="#F518C0"/>
<path d="M101.93 388.48C101.402 388.591 100.857 388.595 100.328 388.49C99.7983 388.385 99.2957 388.174 98.85 387.87C97.36 388.64 95.57 389.11 94.53 390.33C93.86 393.62 94.43 395.74 96.38 397.74C98.2194 398.02 100.091 398.02 101.93 397.74C103.93 395.74 104.46 393.62 103.78 390.33C103.355 390.175 102.97 389.929 102.65 389.61C102.331 389.29 102.085 388.905 101.93 388.48V388.48Z" fill="#F518C0"/>
<path d="M132.16 387.87C129.16 387.33 128.07 388.71 125.99 389.1C125.09 391.82 124.78 392.73 125.38 395.89C126.373 396.967 127.667 397.72 129.094 398.051C130.522 398.381 132.015 398.272 133.38 397.74C135.07 396.09 136.14 392.24 134.61 389.74C134 388.63 132.65 389 132.16 387.87Z" fill="#F518C0"/>
<path d="M155.6 395.27C156.08 395.41 156.32 395.79 156.22 396.5C160.38 401.23 169.22 396.5 165.47 389.72C162 386 153.62 388 155.6 395.27Z" fill="#F518C0"/>
<path d="M72.94 390.33C69.54 386.61 61.41 388.46 63.69 395.89C66.94 399.85 75 398.38 72.94 390.33Z" fill="#F518C0"/>
<path d="M24.82 413.16C26.77 411.16 27.35 409.05 26.67 405.76C26.2474 405.602 25.8636 405.355 25.5445 405.035C25.2254 404.716 24.9784 404.333 24.82 403.91C24.2913 404.02 23.7459 404.022 23.2165 403.915C22.6872 403.808 22.1849 403.596 21.74 403.29C20.25 404.07 18.46 404.54 17.42 405.76C16.74 409.05 17.32 411.16 19.27 413.16C21.1094 413.44 22.9806 413.44 24.82 413.16V413.16Z" fill="#F518C0"/>
<path d="M81 413.16C82.8394 413.44 84.7106 413.44 86.55 413.16C88.55 411.16 89.07 409.05 88.4 405.76C87.9765 405.603 87.5918 405.357 87.2725 405.038C86.9531 404.718 86.7067 404.334 86.55 403.91C86.0214 404.02 85.476 404.022 84.9466 403.915C84.4173 403.808 83.915 403.596 83.47 403.29C81.98 404.07 80.19 404.54 79.15 405.76C78.43 409.05 79 411.16 81 413.16Z" fill="#F518C0"/>
<path d="M117.35 403.91C116.821 404.02 116.276 404.022 115.747 403.915C115.217 403.808 114.715 403.596 114.27 403.29C112.79 404.07 110.99 404.54 109.95 405.76C109.28 409.05 109.85 411.16 111.8 413.16C113.639 413.44 115.511 413.44 117.35 413.16C119.35 411.16 119.88 409.05 119.2 405.76C118.778 405.6 118.395 405.353 118.076 405.034C117.757 404.715 117.51 404.332 117.35 403.91V403.91Z" fill="#F518C0"/>
<path d="M140.18 410.7C140.66 410.83 140.9 411.21 140.8 411.93C144.96 416.65 153.8 411.93 150.05 405.14C146.54 401.39 138.2 403.42 140.18 410.7Z" fill="#F518C0"/>
<path d="M179.05 403.91C178.52 404.021 177.973 404.024 177.441 403.917C176.91 403.811 176.406 403.597 175.96 403.29C174.48 404.07 172.68 404.54 171.64 405.76C170.97 409.05 171.54 411.16 173.49 413.16C175.333 413.44 177.207 413.44 179.05 413.16C181.05 411.16 181.57 409.05 180.9 405.76C180.476 405.603 180.092 405.357 179.772 405.038C179.453 404.718 179.207 404.334 179.05 403.91V403.91Z" fill="#F518C0"/>
<path d="M48.26 411.31C50.26 413.31 52.38 413.83 55.66 413.16C56.3128 412.579 56.8354 411.867 57.1932 411.07C57.551 410.273 57.736 409.409 57.736 408.535C57.736 407.661 57.551 406.797 57.1932 406C56.8354 405.203 56.3128 404.491 55.66 403.91C49.36 402.85 46.91 406.44 48.26 411.31Z" fill="#F518C0"/>
<path d="M42.09 426.73C42.37 424.891 42.37 423.019 42.09 421.18C38.62 416.95 31.8 419.43 32.22 424.88C32.3 425.88 33.06 426.77 33.46 427.97C36.2 430 40.29 428.9 42.09 426.73Z" fill="#F518C0"/>
<path d="M71.09 419.33C70.5603 419.439 70.0141 419.442 69.4834 419.337C68.9528 419.232 68.4484 419.022 68 418.72C66.52 419.49 64.73 419.96 63.69 421.18C63.01 424.47 63.5799 426.58 65.5399 428.58C67.3794 428.86 69.2506 428.86 71.09 428.58C73.04 426.58 73.61 424.47 72.94 421.18C72.5147 421.026 72.1285 420.781 71.8087 420.461C71.489 420.141 71.2437 419.755 71.09 419.33V419.33Z" fill="#F518C0"/>
<path d="M101.93 419.33C101.402 419.441 100.857 419.445 100.328 419.34C99.7983 419.235 99.2957 419.024 98.85 418.72C97.36 419.49 95.57 419.96 94.53 421.18C93.86 424.47 94.43 426.58 96.38 428.58C98.2194 428.86 100.091 428.86 101.93 428.58C103.93 426.58 104.46 424.47 103.78 421.18C103.356 421.023 102.972 420.777 102.652 420.458C102.333 420.138 102.087 419.754 101.93 419.33V419.33Z" fill="#F518C0"/>
<path d="M132.78 419.33C132.25 419.439 131.704 419.442 131.173 419.337C130.643 419.232 130.138 419.022 129.69 418.72C128.21 419.49 126.41 419.96 125.38 421.18C124.7 424.47 125.27 426.58 127.23 428.58C129.069 428.86 130.941 428.86 132.78 428.58C134.78 426.58 135.3 424.47 134.63 421.18C134.205 421.026 133.818 420.781 133.499 420.461C133.179 420.141 132.934 419.755 132.78 419.33V419.33Z" fill="#F518C0"/>
<path d="M156.22 421.18C154.88 423.6 156.28 426.49 158.07 428.58H163.62C165.62 426.58 166.15 424.47 165.47 421.18C162.86 418.09 157.55 418.79 156.22 421.18Z" fill="#F518C0"/>
<path d="M21.57 434.07C23.07 437.07 24.68 440.07 26.39 442.98C26.48 442.91 26.58 442.85 26.67 442.77C27.1 440.51 27.73 438.08 26.67 435.98C25.9906 435.337 25.1893 434.837 24.3134 434.509C23.4374 434.181 22.5046 434.032 21.57 434.07V434.07Z" fill="#F518C0"/>
<path d="M49.5 434.75C47.6 436.6 47.14 441.16 48.26 442.75C48.95 443.75 50.61 443.68 50.73 444.6C53.73 445.14 54.82 443.76 56.9 443.37C57.8 440.65 58.11 439.74 57.52 436.58C55.51 434.53 53.1 433.81 49.5 434.75Z" fill="#F518C0"/>
<path d="M81 444C82.8394 444.28 84.7106 444.28 86.55 444C88.55 442 89.07 439.88 88.4 436.59C87.9748 436.436 87.5886 436.191 87.2688 435.871C86.9491 435.551 86.7037 435.165 86.55 434.74C86.0214 434.85 85.476 434.852 84.9466 434.745C84.4173 434.639 83.915 434.426 83.47 434.12C81.98 434.9 80.19 435.37 79.15 436.59C78.43 439.89 79 442 81 444Z" fill="#F518C0"/>
<path d="M117.35 434.75C116.821 434.86 116.276 434.862 115.747 434.755C115.217 434.649 114.715 434.436 114.27 434.13C112.79 434.91 110.99 435.38 109.95 436.6C109.28 439.89 109.85 442 111.8 444.01C113.639 444.29 115.511 444.29 117.35 444.01C119.35 442.01 119.88 439.89 119.2 436.6C118.776 436.443 118.392 436.197 118.072 435.878C117.753 435.558 117.507 435.174 117.35 434.75V434.75Z" fill="#F518C0"/>
<path d="M140.8 436.6C140.12 439.89 140.69 442 142.65 444.01C144.727 444.222 146.826 444.011 148.82 443.39C150.04 441.94 150.24 439.46 150.05 436.6C149.468 435.949 148.756 435.427 147.959 435.07C147.162 434.714 146.298 434.529 145.425 434.529C144.552 434.529 143.688 434.714 142.891 435.07C142.094 435.427 141.382 435.949 140.8 436.6Z" fill="#F518C0"/>
<path d="M171.64 436.6C171.427 438.677 171.638 440.776 172.26 442.77C173.7 444 176.18 444.19 179.05 444.01C181.05 442.01 181.57 439.89 180.9 436.6C180.318 435.948 179.604 435.427 178.806 435.07C178.008 434.713 177.144 434.529 176.27 434.529C175.396 434.529 174.532 434.713 173.734 435.07C172.936 435.427 172.223 435.948 171.64 436.6V436.6Z" fill="#F518C0"/>
<path d="M32.84 452C32.7387 452.191 32.6581 452.392 32.6 452.6C34.37 455.1 36.22 457.6 38.15 459.92C38.8803 459.933 39.601 459.754 40.24 459.4C40.9247 458.855 41.5454 458.235 42.09 457.55C43.01 455.67 42.09 452.88 41.48 450.76C38.09 449.09 34 449.83 32.84 452Z" fill="#F518C0"/>
<path d="M71.09 459.43C73.04 457.43 73.61 455.31 72.94 452.03C72.5164 451.873 72.1317 451.627 71.8124 451.308C71.4931 450.988 71.2466 450.604 71.09 450.18C70.5597 450.288 70.0129 450.289 69.4822 450.183C68.9515 450.076 68.4475 449.865 68 449.56C66.52 450.34 64.73 450.81 63.69 452.03C62.81 455.51 63.61 457.41 65.54 459.43C67.3794 459.71 69.2506 459.71 71.09 459.43V459.43Z" fill="#F518C0"/>
<path d="M101.93 450.18C101.401 450.29 100.856 450.292 100.327 450.185C99.7973 450.079 99.295 449.866 98.85 449.56C97.36 450.34 95.57 450.81 94.53 452.03C93.86 455.31 94.43 457.42 96.38 459.43C98.2194 459.71 100.091 459.71 101.93 459.43C103.93 457.43 104.46 455.31 103.78 452.03C103.358 451.871 102.975 451.623 102.656 451.304C102.337 450.985 102.09 450.602 101.93 450.18V450.18Z" fill="#F518C0"/>
<path d="M125.38 452C124.87 455.25 125.25 458.3 127.23 459.4C129.56 460.69 132.82 459.25 134.63 457.55V452C134.051 451.344 133.339 450.819 132.542 450.46C131.744 450.1 130.88 449.914 130.005 449.914C129.13 449.914 128.266 450.1 127.468 450.46C126.671 450.819 125.959 451.344 125.38 452V452Z" fill="#F518C0"/>
<path d="M158.07 450.79C155.69 451.5 155.93 456 156.84 458.2C158.54 459.85 163.15 459.85 164.84 458.2C165.67 456.013 165.67 453.597 164.84 451.41C163.6 450.28 159.85 449.46 158.07 450.79Z" fill="#F518C0"/>
<path d="M55.6599 465.6C55.1313 465.71 54.5859 465.712 54.0566 465.605C53.5272 465.498 53.025 465.286 52.58 464.98C51.1 465.76 49.3 466.23 48.26 467.45C47.9979 468.601 47.9371 469.788 48.08 470.96C49.48 472.35 50.91 473.72 52.36 475.05C53.4635 475.068 54.5667 475.001 55.6599 474.85C57.6599 472.85 58.19 470.73 57.52 467.45C57.0942 467.295 56.7073 467.049 56.3861 466.73C56.0649 466.411 55.8171 466.025 55.6599 465.6V465.6Z" fill="#F518C0"/>
<path d="M79.72 466.22C78.1 469.39 78.54 472.8 80.96 474.85C82.7994 475.13 84.6706 475.13 86.51 474.85C88.58 472.85 89.3 470.43 88.36 466.85C86.36 464.69 82.34 464.65 79.72 466.22Z" fill="#F518C0"/>
<path d="M117.35 465.6C116.821 465.71 116.276 465.712 115.747 465.605C115.217 465.498 114.715 465.286 114.27 464.98C112.79 465.76 110.99 466.23 109.95 467.45C109.28 470.73 109.85 472.85 111.8 474.85C113.639 475.13 115.511 475.13 117.35 474.85C119.35 472.85 119.88 470.73 119.2 467.45C118.776 467.293 118.392 467.047 118.072 466.728C117.753 466.408 117.507 466.024 117.35 465.6V465.6Z" fill="#F518C0"/>
<path d="M140.8 467.45C140.52 469.289 140.52 471.161 140.8 473C142.23 474.79 146.15 475.49 148.8 474.23C150.23 472.73 150.42 469.02 149.41 466.83C147.35 464.86 142.3 465.38 140.8 467.45Z" fill="#F518C0"/>
<path d="M173.49 466.22C171.12 466.92 171.35 471.42 172.26 473.62C173.7 474.85 176.18 475.04 179.05 474.85C181.05 472.85 181.57 470.73 180.9 467.45C179.64 466 175.81 464.66 173.49 466.22Z" fill="#F518C0"/>
<path d="M63.69 482.87C63.5894 483.299 63.5127 483.733 63.46 484.17C66.23 486.17 69.08 488.17 72.01 489.99C72.69 489.21 72.74 487.91 73.55 487.8C74.09 484.8 72.71 483.71 72.32 481.63C69.22 480.09 65.81 480.53 63.69 482.87Z" fill="#F518C0"/>
<path d="M95.15 481.63C92.03 487.19 96.44 492.19 101.93 490.27C103.93 488.27 104.46 486.15 103.78 482.87C101.73 480.45 98.32 480 95.15 481.63Z" fill="#F518C0"/>
<path d="M125.38 482.87C124.87 486.12 125.25 489.17 127.23 490.27C129.56 491.57 132.82 490.12 134.63 488.42V482.87C134.049 482.217 133.337 481.695 132.54 481.337C131.743 480.979 130.879 480.794 130.005 480.794C129.131 480.794 128.267 480.979 127.47 481.337C126.673 481.695 125.961 482.217 125.38 482.87V482.87Z" fill="#F518C0"/>
<path d="M158.07 481.63C155.69 482.34 155.93 486.84 156.84 489.04C158.54 490.7 163.15 490.7 164.84 489.04C165.67 486.853 165.67 484.437 164.84 482.25C163.6 481.13 159.85 480.31 158.07 481.63Z" fill="#F518C0"/>
<path d="M83.06 496.23C84.8 497.11 86.5667 497.953 88.36 498.76C88.36 498.6 88.36 498.44 88.36 498.3C87.753 497.5 86.9368 496.884 86.0016 496.518C85.0663 496.153 84.0484 496.053 83.06 496.23V496.23Z" fill="#F518C0"/>
<path d="M110 498.3C109.33 501.58 109.9 503.69 111.85 505.7C113.927 505.913 116.026 505.702 118.02 505.08C119.25 503.63 119.44 501.15 119.25 498.3C118.671 497.644 117.959 497.119 117.162 496.76C116.365 496.4 115.5 496.214 114.625 496.214C113.75 496.214 112.886 496.4 112.088 496.76C111.291 497.119 110.579 497.644 110 498.3Z" fill="#F518C0"/>
<path d="M142.65 496.44C140.65 497.62 140.25 501.88 141.41 504.44C142.92 505.87 146.63 506.05 148.82 505.05C150.25 503.54 150.44 499.83 149.43 497.65C148 496.45 145.51 496.26 142.65 496.44Z" fill="#F518C0"/>
<path d="M177.81 496.44C176.91 496.78 174.62 495.72 174.73 497.06C172.28 497.06 172.19 499.46 171.64 501.38C172.18 506.59 181.15 507.12 180.9 500.76C181.03 499.6 180.2 499.4 180.28 498.3C179.37 497.804 178.538 497.177 177.81 496.44V496.44Z" fill="#F518C0"/>
<path d="M72.81 106.53V232.93" stroke="#231F20" stroke-width="15" stroke-linecap="round" stroke-linejoin="round"/>
<path d="M146.49 46.86V232.93" stroke="#231F20" stroke-width="15" stroke-linecap="round" stroke-linejoin="round"/>
<path d="M225.09 82.27V232.93" stroke="#231F20" stroke-width="15" stroke-linecap="round" stroke-linejoin="round"/>
<path d="M298.78 318.73H224.11C211.381 318.716 198.799 321.452 187.225 326.751C175.651 332.049 165.358 339.785 157.05 349.43" stroke="#231F20" stroke-width="15" stroke-linecap="round" stroke-linejoin="round"/>
<path d="M327.8 291.46L298.8 318.73V84.24C298.8 64.09 283.8 45.43 261.96 45.43C257.121 45.4287 252.33 46.3806 247.859 48.2314C243.388 50.0822 239.326 52.7956 235.904 56.2166C232.482 59.6377 229.767 63.6993 227.915 68.1696C226.063 72.6399 225.11 77.4313 225.11 82.27V49C225.11 27.82 209.39 7.60001 185.81 7.60001C175.389 7.60001 165.394 11.7392 158.024 19.1072C150.654 26.4752 146.513 36.4687 146.51 46.89V44.55C146.51 24.55 131.43 7.60001 109.67 7.60001C104.832 7.60001 100.042 8.55288 95.572 10.4043C91.1023 12.2556 87.0411 14.9693 83.6202 18.3902C80.1993 21.8111 77.4857 25.8723 75.6343 30.3419C73.7829 34.8116 72.83 39.6021 72.83 44.44V106.56C72.83 97.9962 69.428 89.7831 63.3725 83.7275C57.3169 77.672 49.1038 74.27 40.54 74.27C21.17 74.27 8.25 90.14 8.25 107.86V372.86C8.25 448.35 69.09 510.6 144.64 510.6C218.44 510.6 262.98 484.92 303.57 439.94L413.47 320.7C417.022 316.85 418.943 311.772 418.827 306.535C418.712 301.298 416.569 296.309 412.85 292.62V292.62C401.593 281.433 386.429 275.058 370.56 274.842C354.69 274.626 339.358 280.584 327.8 291.46Z" stroke="#231F20" stroke-width="15" stroke-linecap="round" stroke-linejoin="round"/>
</svg>
