<svg width="390" height="421" viewBox="0 0 390 421" fill="none" xmlns="http://www.w3.org/2000/svg">
<path d="M361.88 168.23V53.12C361.88 42.5564 357.684 32.4255 350.214 24.9559C342.744 17.4864 332.614 13.29 322.05 13.29C311.486 13.29 301.355 17.4864 293.886 24.9559C286.416 32.4255 282.22 42.5564 282.22 53.12V56.69C282.464 50.3699 281.43 44.0656 279.18 38.1547C276.929 32.2437 273.509 26.8477 269.124 22.29C264.739 17.7322 259.479 14.1064 253.659 11.6297C247.84 9.15304 241.58 7.87653 235.255 7.87653C228.93 7.87653 222.67 9.15304 216.851 11.6297C211.031 14.1064 205.771 17.7322 201.386 22.29C197.001 26.8477 193.581 32.2437 191.33 38.1547C189.08 44.0656 188.046 50.3699 188.29 56.69V56.18C188.29 43.858 183.395 32.0408 174.682 23.3278C165.969 14.6149 154.152 9.72003 141.83 9.72003C129.508 9.72003 117.691 14.6149 108.978 23.3278C100.265 32.0408 95.37 43.858 95.37 56.18V112.57C95.37 100.993 90.7712 89.8907 82.5852 81.7048C74.3992 73.5188 63.2967 68.92 51.72 68.92C40.1433 68.92 29.0407 73.5188 20.8548 81.7048C12.6688 89.8907 8.07001 100.993 8.07001 112.57V252.8C8.07001 273.788 12.2039 294.57 20.2356 313.96C28.2673 333.351 40.0395 350.969 54.8802 365.81C69.7208 380.65 87.3393 392.423 106.73 400.454C126.12 408.486 146.902 412.62 167.89 412.62H190C295.91 412.62 381.75 326.77 381.75 220.87C381.774 201.486 374.707 182.763 361.88 168.23Z" fill="#FFEF41"/>
<path d="M361.88 197.68V82.57C361.88 72.0064 357.684 61.8755 350.214 54.4059C342.744 46.9364 332.614 42.74 322.05 42.74C311.486 42.74 301.355 46.9364 293.886 54.4059C286.416 61.8755 282.22 72.0064 282.22 82.57V86.14C282.464 79.8199 281.43 73.5156 279.18 67.6046C276.929 61.6937 273.509 56.2977 269.124 51.7399C264.739 47.1822 259.479 43.5564 253.659 41.0797C247.84 38.6031 241.58 37.3265 235.255 37.3265C228.93 37.3265 222.67 38.6031 216.851 41.0797C211.031 43.5564 205.771 47.1822 201.386 51.7399C197.001 56.2977 193.581 61.6937 191.33 67.6046C189.08 73.5156 188.046 79.8199 188.29 86.14V85.63C188.29 73.308 183.395 61.4908 174.682 52.7778C165.969 44.0649 154.152 39.17 141.83 39.17C129.508 39.17 117.691 44.0649 108.978 52.7778C100.265 61.4908 95.37 73.308 95.37 85.63V142C95.37 130.423 90.7712 119.321 82.5852 111.135C74.3992 102.949 63.2967 98.35 51.72 98.35C40.1433 98.35 29.0407 102.949 20.8548 111.135C12.6688 119.321 8.07001 130.423 8.07001 142V282.25C12.19 347.43 79.63 409.78 167.89 409.78H190C295.91 409.78 382.71 324.63 381.75 250.32C381.658 230.957 374.605 212.274 361.88 197.68Z" fill="#039BE5"/>
<path d="M244.79 50.72C245.7 49.04 244.54 47.54 244.79 45.44C244.19 44.7962 243.464 44.2828 242.657 43.9317C241.85 43.5806 240.98 43.3994 240.1 43.3994C239.22 43.3994 238.35 43.5806 237.543 43.9317C236.736 44.2828 236.01 44.7962 235.41 45.44C235.15 47.1904 235.15 48.9695 235.41 50.72C237.76 53.69 243.5 53.09 244.79 50.72Z" fill="#0077B8"/>
<path d="M268.09 52.57C267.263 51.7567 266.403 50.9766 265.51 50.23C265.879 51.0687 266.405 51.8291 267.06 52.47L268.09 52.57Z" fill="#0077B8"/>
<path d="M213.14 52.47C214.267 51.46 214.965 50.0567 215.089 48.5483C215.214 47.04 214.756 45.5412 213.81 44.36C211.036 45.7816 208.412 47.4803 205.98 49.43C206.001 49.8619 206.044 50.2925 206.11 50.72C208 52.57 210 53.11 213.14 52.47Z" fill="#0077B8"/>
<path d="M302.22 51.89C303.157 50.5883 303.571 48.9824 303.38 47.39C300.94 48.6857 298.641 50.2306 296.52 52C298.364 52.694 300.404 52.6546 302.22 51.89Z" fill="#0077B8"/>
<path d="M332.7 47.78C332.83 46.68 332.03 46.49 332.11 45.44C331.246 44.9742 330.457 44.3809 329.77 43.68C328.91 44 326.77 43 326.83 44.27C324.51 44.27 324.43 46.55 323.9 48.37C324.42 53.32 332.93 53.82 332.7 47.78Z" fill="#0077B8"/>
<path d="M227.79 67.13C229.65 65.22 230.19 63.21 229.55 60.13C229.148 59.9797 228.782 59.7448 228.479 59.4412C228.175 59.1375 227.94 58.7722 227.79 58.37C227.288 58.4757 226.769 58.4788 226.266 58.3791C225.762 58.2794 225.284 58.079 224.86 57.79C223.45 58.52 221.75 58.97 220.76 60.13C220.12 63.25 220.66 65.26 222.52 67.13C224.267 67.39 226.043 67.39 227.79 67.13Z" fill="#0077B8"/>
<path d="M250.65 65.36C252.01 67.07 255.73 67.74 258.27 66.54C259.43 65.17 259.62 62.81 259.44 60.09C257.15 57.23 251.9 57.77 250.65 60.09C249.74 61.77 250.89 63.26 250.65 65.36Z" fill="#0077B8"/>
<path d="M163.91 67.13C166.63 67.3 168.98 67.13 170.36 65.95C171.154 63.8768 171.154 61.5832 170.36 59.51C165.03 55.45 160.07 60.98 162.15 65.36C162.53 66.16 163.82 65.88 163.91 67.13Z" fill="#0077B8"/>
<path d="M198.49 67.13C199.111 66.5774 199.608 65.8997 199.948 65.1414C200.288 64.383 200.464 63.5612 200.464 62.73C200.464 61.8988 200.288 61.077 199.948 60.3187C199.608 59.5603 199.111 58.8826 198.49 58.33C198.118 58.4056 197.738 58.4292 197.36 58.4C195.534 60.8843 193.959 63.544 192.66 66.34C194.24 67.38 196 67.63 198.49 67.13Z" fill="#0077B8"/>
<path d="M288.55 61C287.313 62.9045 286.243 64.9119 285.35 67C286.38 66.9258 287.361 66.5345 288.16 65.88C288.776 64.3293 288.912 62.629 288.55 61Z" fill="#0077B8"/>
<path d="M309.84 65.36C310.824 66.1266 312.009 66.5907 313.252 66.6954C314.495 66.8002 315.742 66.5412 316.84 65.95C317.61 63.39 317.84 63.01 317.43 60.09C315.07 57.09 308.76 58.23 309.22 63.02C309.44 63.81 310.09 64.14 309.84 65.36Z" fill="#0077B8"/>
<path d="M345 67.13C345.21 67.13 345.43 66.13 346.17 66.54C347.54 65.11 347.71 61.59 346.76 59.54C343.52 57.04 336.96 58.33 338.56 64.22C339.171 65.3398 340.13 66.2298 341.292 66.755C342.454 67.2802 343.756 67.4119 345 67.13Z" fill="#0077B8"/>
<path d="M183.84 81.77C185.69 79.87 186.24 77.87 185.59 74.77C185.19 74.6185 184.826 74.383 184.524 74.0794C184.223 73.7759 183.989 73.4112 183.84 73.01C182.38 73.78 180.99 71.71 180.91 73.01C178.36 72.42 178.21 74.23 176.8 74.77V80C178.71 81.87 180.72 82.42 183.84 81.77Z" fill="#0077B8"/>
<path d="M213.14 81.77C214.99 79.87 215.54 77.87 214.9 74.77C214.498 74.6197 214.132 74.3847 213.829 74.0811C213.525 73.7775 213.29 73.4122 213.14 73.01C212.638 73.1157 212.119 73.1188 211.616 73.0191C211.112 72.9194 210.634 72.719 210.21 72.43C208.8 73.17 207.09 73.61 206.11 74.77C205.47 77.9 206.01 79.9 207.86 81.77C209.61 82.04 211.39 82.04 213.14 81.77Z" fill="#0077B8"/>
<path d="M243 81.77C245 80.35 245.46 75.55 243.58 73.57C238.99 70.75 233.32 74.48 235.38 80.02C237.47 82.11 239.48 82.26 243 81.77Z" fill="#0077B8"/>
<path d="M265.3 77.09C265.23 84.9 277.7 81.59 273.5 74.16C270.77 71.82 265.23 73.15 265.3 77.09Z" fill="#0077B8"/>
<path d="M302.22 80.5999C303.22 77.9199 303.22 76.8399 302.22 74.1599C298.85 72.3199 294.73 73.24 294.6 77.67C294.989 78.9321 295.584 80.1215 296.36 81.19C299.27 81.65 299.66 81.3699 302.22 80.5999Z" fill="#0077B8"/>
<path d="M331.52 80.6C332.52 77.92 332.52 76.84 331.52 74.16C328.84 73.16 327.76 73.16 325.08 74.16C324.08 76.84 324.08 77.92 325.08 80.6C327.76 81.63 328.84 81.63 331.52 80.6Z" fill="#0077B8"/>
<path d="M360.82 81.19C361.274 80.6624 361.591 80.0301 361.74 79.35C361.594 77.4888 361.313 75.6406 360.9 73.82C357.44 71.68 352.03 73.57 353.21 78.82C353.91 80.1388 355.102 81.1278 356.527 81.5717C357.952 82.0156 359.495 81.8784 360.82 81.19Z" fill="#0077B8"/>
<path d="M169.18 87.64C168.677 87.7437 168.158 87.7448 167.655 87.6434C167.151 87.5421 166.674 87.3402 166.25 87.05C164.84 87.79 163.14 88.23 162.15 89.39C161.51 92.52 162.06 94.52 163.91 96.39C165.657 96.65 167.433 96.65 169.18 96.39C171.04 94.48 171.58 92.47 170.94 89.39C170.539 89.2408 170.174 89.0074 169.871 88.7056C169.567 88.4037 169.331 88.0404 169.18 87.64Z" fill="#0077B8"/>
<path d="M198.49 96.43C200.34 94.52 200.89 92.51 200.25 89.43C199.846 89.2849 199.48 89.0529 199.176 88.7505C198.871 88.4482 198.637 88.0827 198.49 87.68C197.987 87.7842 197.468 87.7857 196.965 87.6843C196.461 87.5829 195.983 87.3808 195.56 87.09C194.15 87.83 192.44 88.27 191.46 89.43C190.81 92.56 191.36 94.56 193.21 96.43C194.96 96.6895 196.74 96.6895 198.49 96.43Z" fill="#0077B8"/>
<path d="M227.79 96.43C229.65 94.52 230.19 92.51 229.55 89.43C229.146 89.2849 228.78 89.0529 228.476 88.7505C228.171 88.4482 227.937 88.0827 227.79 87.68C227.287 87.7842 226.768 87.7857 226.265 87.6843C225.761 87.5829 225.283 87.3808 224.86 87.09C223.45 87.83 221.75 88.27 220.76 89.43C220.12 92.56 220.66 94.56 222.52 96.43C224.267 96.69 226.043 96.69 227.79 96.43Z" fill="#0077B8"/>
<path d="M258.27 95.26C259.27 92.57 259.27 91.49 258.27 88.81C255.7 88.04 255.32 87.81 252.4 88.22C251.523 89.1474 250.987 90.3459 250.882 91.6182C250.776 92.8906 251.107 94.1608 251.82 95.22C254 96.75 256 96.28 258.27 95.26Z" fill="#0077B8"/>
<path d="M280.54 94.67C281.526 95.432 282.711 95.8931 283.953 95.9978C285.195 96.1024 286.44 95.8463 287.54 95.26C288.31 93.03 288.99 92.01 288.13 89.39C285.77 86.39 279.45 87.53 279.92 92.33C280.14 93.12 280.78 93.44 280.54 94.67Z" fill="#0077B8"/>
<path d="M316.87 95.26C317.87 92.57 317.87 91.49 316.87 88.81C314.19 87.81 313.11 87.81 310.42 88.81C309.42 91.49 309.42 92.57 310.42 95.26C313.11 96.28 314.19 96.28 316.87 95.26Z" fill="#0077B8"/>
<path d="M346.17 95.26C347.17 92.57 347.17 91.49 346.17 88.81C343.49 87.81 342.41 87.81 339.73 88.81C338.73 91.49 338.73 92.57 339.73 95.26C342.41 96.28 343.49 96.28 346.17 95.26Z" fill="#0077B8"/>
<path d="M152.19 101.7C149 101.44 147.77 103.14 146.92 105.22V108.15C147.77 110.22 149 111.93 152.19 111.66C154.99 111.73 156.07 110.07 156.88 108.15V105.8C156.45 103.3 155.07 101.75 152.19 101.7Z" fill="#0077B8"/>
<path d="M183.84 111.08C185.69 109.17 186.24 107.16 185.59 104.08C185.19 103.928 184.826 103.693 184.524 103.389C184.223 103.086 183.989 102.721 183.84 102.32C183.337 102.422 182.819 102.422 182.315 102.321C181.812 102.22 181.334 102.019 180.91 101.73C179.5 102.47 177.79 102.92 176.8 104.08C176.16 107.19 176.71 109.2 178.56 111.08C180.31 111.34 182.09 111.34 183.84 111.08Z" fill="#0077B8"/>
<path d="M213.14 111.08C214.99 109.17 215.54 107.16 214.9 104.08C214.498 103.93 214.132 103.695 213.829 103.391C213.525 103.087 213.29 102.722 213.14 102.32C212.637 102.422 212.119 102.422 211.615 102.321C211.112 102.22 210.634 102.019 210.21 101.73C208.8 102.47 207.09 102.92 206.11 104.08C205.47 107.19 206.01 109.2 207.86 111.08C209.61 111.34 211.39 111.34 213.14 111.08Z" fill="#0077B8"/>
<path d="M244.2 103.46C241.44 101.53 237.55 101.53 235.41 104.05C234.77 107.16 235.31 109.17 237.17 111.05C238.211 111.705 239.45 111.974 240.669 111.811C241.888 111.648 243.012 111.062 243.844 110.156C244.677 109.25 245.165 108.081 245.225 106.852C245.284 105.623 244.911 104.412 244.17 103.43L244.2 103.46Z" fill="#0077B8"/>
<path d="M273.5 109.32C274.37 106.71 273.69 105.69 272.92 103.46C270.23 102.46 269.15 102.46 266.47 103.46C265.881 104.559 265.624 105.805 265.728 107.047C265.833 108.29 266.296 109.475 267.06 110.46C268.134 110.884 269.304 111.003 270.441 110.801C271.578 110.6 272.637 110.087 273.5 109.32Z" fill="#0077B8"/>
<path d="M295.77 103.46C295.17 105.86 294.37 106.76 295.19 109.32C296.213 110.306 297.579 110.857 299 110.857C300.421 110.857 301.787 110.306 302.81 109.32C303.27 106.41 302.99 106.02 302.22 103.46C299.54 102.43 298.46 102.43 295.77 103.46Z" fill="#0077B8"/>
<path d="M331.52 103.46C329.11 102.16 327.57 102.62 325.08 103.46C324.08 106.14 324.08 107.22 325.08 109.91C326.79 109.75 326.88 111.23 328.59 111.08C330.67 110.42 332.59 109.57 332.7 106.97C332.469 105.751 332.072 104.57 331.52 103.46Z" fill="#0077B8"/>
<path d="M361.88 105.37C361.67 104.98 361.29 104.77 361.41 104.05C359.35 101.79 355.31 102.05 353.79 104.63C353.11 107.08 353.84 107.52 354.38 109.91C356.09 109.75 356.18 111.23 357.9 111.08C359.76 110.52 361.39 109.74 361.9 107.81L361.88 105.37Z" fill="#0077B8"/>
<path d="M162.74 125.14C165.35 127.14 169.23 126.03 170.94 123.97C171.21 122.224 171.21 120.446 170.94 118.7C168.35 115.12 160.54 115.81 161.57 122.21C162.16 123 162.14 124.37 162.74 125.14Z" fill="#0077B8"/>
<path d="M198.49 125.73C200.34 123.82 200.89 121.82 200.25 118.73C199.848 118.58 199.482 118.345 199.179 118.041C198.875 117.738 198.64 117.372 198.49 116.97C197.987 117.074 197.468 117.076 196.965 116.974C196.461 116.873 195.983 116.671 195.56 116.38C194.15 117.12 192.44 117.57 191.46 118.73C190.81 121.85 191.36 123.85 193.21 125.73C194.96 126 196.74 126 198.49 125.73Z" fill="#0077B8"/>
<path d="M227.79 125.73C229.65 123.82 230.19 121.82 229.55 118.73C229.148 118.58 228.782 118.345 228.479 118.041C228.175 117.738 227.94 117.372 227.79 116.97C227.287 117.074 226.768 117.076 226.265 116.974C225.761 116.873 225.283 116.671 224.86 116.38C223.45 117.12 221.75 117.57 220.76 118.73C220.12 121.85 220.66 123.85 222.52 125.73C224.266 126 226.044 126 227.79 125.73Z" fill="#0077B8"/>
<path d="M251.23 124.56C252.85 126.13 257.23 126.13 258.85 124.56C259.64 122.483 259.64 120.187 258.85 118.11C257.66 117.04 254.1 116.26 252.4 117.53C250.15 118.2 250.37 122.47 251.23 124.56Z" fill="#0077B8"/>
<path d="M287 125.73C288.95 124.61 289.29 120.56 288.18 118.11C286.98 117.04 283.42 116.26 281.73 117.53C279.47 118.2 279.73 122.47 280.56 124.53C281.91 125.72 284.26 125.91 287 125.73Z" fill="#0077B8"/>
<path d="M317.46 124C318.27 121.44 317.46 120.54 316.87 118.14C313.62 116.42 309.21 117.05 309.25 121.66C309.33 126 315 126.66 317.46 124Z" fill="#0077B8"/>
<path d="M347.35 120.45C346.47 115.59 337.56 115.95 338.56 122.21C339.4 127.05 348.26 126.65 347.35 120.45Z" fill="#0077B8"/>
<path d="M152.19 131C149 130.74 147.77 132.45 146.92 134.52C146.42 138.92 148.71 140.52 152.19 140.97C154.66 140.31 156.64 139.17 156.88 136.28C156.69 133.15 155.52 131 152.19 131Z" fill="#0077B8"/>
<path d="M183.84 140.38C185.69 138.48 186.24 136.47 185.59 133.38C185.19 133.228 184.826 132.993 184.524 132.689C184.223 132.386 183.989 132.021 183.84 131.62C183.337 131.727 182.818 131.729 182.314 131.628C181.81 131.526 181.332 131.323 180.91 131.03C179.5 131.77 177.79 132.22 176.8 133.38C176.16 136.5 176.71 138.51 178.56 140.38C180.31 140.65 182.09 140.65 183.84 140.38Z" fill="#0077B8"/>
<path d="M213.14 140.38C214.99 138.48 215.54 136.47 214.9 133.38C214.498 133.23 214.132 132.995 213.829 132.691C213.525 132.388 213.29 132.022 213.14 131.62C212.637 131.727 212.118 131.729 211.614 131.628C211.11 131.526 210.632 131.323 210.21 131.03C208.8 131.77 207.09 132.22 206.11 133.38C205.47 136.5 206.01 138.51 207.86 140.38C209.61 140.65 211.39 140.65 213.14 140.38Z" fill="#0077B8"/>
<path d="M237.17 131.59C235.45 132.8 235.11 135.4 235.41 138.59C236.86 140.59 242.16 141.06 244.2 139.18C244.99 137.103 244.99 134.807 244.2 132.73C242.77 131.45 240 131.48 237.17 131.59Z" fill="#0077B8"/>
<path d="M265.88 139.21C267.51 140.78 271.88 140.78 273.5 139.21C274.29 137.133 274.29 134.837 273.5 132.76C272.31 131.69 268.75 130.91 267.06 132.18C264.8 132.85 265 137.12 265.88 139.21Z" fill="#0077B8"/>
<path d="M303.39 138.62C303.593 136.648 303.396 134.654 302.81 132.76C301.43 131.6 299.08 131.41 296.36 131.59C294.41 132.71 294.07 136.76 295.19 139.21C297.16 141.08 302 140.59 303.39 138.62Z" fill="#0077B8"/>
<path d="M331.52 139.21C332.52 136.53 332.52 135.44 331.52 132.76C330.42 132.174 329.175 131.918 327.933 132.022C326.691 132.127 325.506 132.588 324.52 133.35C324.098 134.426 323.984 135.599 324.191 136.736C324.398 137.873 324.917 138.931 325.69 139.79C328.58 140.26 329 140 331.52 139.21Z" fill="#0077B8"/>
<path d="M361.88 134.44C361.795 133.862 361.637 133.298 361.41 132.76C360.22 131.69 356.66 130.91 354.96 132.18C352.71 132.85 352.96 137.12 353.79 139.18C355.41 140.75 359.79 140.75 361.41 139.18C361.639 138.643 361.797 138.078 361.88 137.5V134.44Z" fill="#0077B8"/>
<path d="M169.18 146.24C168.677 146.346 168.158 146.348 167.654 146.247C167.15 146.145 166.673 145.942 166.25 145.65C164.84 146.4 163.14 146.84 162.15 148C161.51 151.12 162.06 153.13 163.91 155C165.656 155.27 167.434 155.27 169.18 155C171.04 153.1 171.58 151.09 170.94 148C170.538 147.85 170.172 147.615 169.869 147.311C169.565 147.008 169.33 146.642 169.18 146.24Z" fill="#0077B8"/>
<path d="M198.49 155C200.34 153.1 200.89 151.09 200.25 148C199.848 147.85 199.482 147.615 199.179 147.311C198.875 147.008 198.64 146.642 198.49 146.24C197.987 146.347 197.468 146.349 196.964 146.248C196.46 146.146 195.982 145.943 195.56 145.65C194.15 146.4 192.44 146.84 191.46 148C190.81 151.12 191.36 153.13 193.21 155C194.96 155.27 196.74 155.27 198.49 155Z" fill="#0077B8"/>
<path d="M229.55 153.27C229.89 150.01 229.28 147.68 227.79 146.27C221.64 145.1 219.53 148.74 220.79 153.27C221.341 153.887 222.015 154.381 222.77 154.719C223.525 155.057 224.343 155.232 225.17 155.232C225.997 155.232 226.815 155.057 227.57 154.719C228.324 154.381 228.999 153.887 229.55 153.27Z" fill="#0077B8"/>
<path d="M250.65 153.27C251.86 154.99 254.45 155.33 257.65 155.03C259.35 153.67 260.02 149.95 258.82 147.41C255 144.53 248.79 146.81 250.65 153.27Z" fill="#0077B8"/>
<path d="M288.16 153.86C288.94 151.781 288.94 149.489 288.16 147.41C286.96 146.35 283.4 145.56 281.71 146.83C279.45 147.5 279.71 151.77 280.54 153.83C282.15 155.44 286.53 155.44 288.16 153.86Z" fill="#0077B8"/>
<path d="M315.11 155C316.04 154.481 316.807 153.712 317.324 152.782C317.842 151.851 318.09 150.794 318.04 149.73C317.66 148.16 316.36 147.5 315.7 146.21C309.98 144.87 308.03 149.49 309.84 153.83C311.79 154.06 312.44 155.56 315.11 155Z" fill="#0077B8"/>
<path d="M346.17 153.86C347.17 151.17 347.17 150.1 346.17 147.41C343.49 146.41 342.41 146.41 339.73 147.41C338.73 150.1 338.73 151.17 339.73 153.86C342.41 154.89 343.49 154.89 346.17 153.86Z" fill="#0077B8"/>
<path d="M152.19 160.31C148.51 160.31 146.77 162.31 146.92 166.17C147.29 168.92 149.51 169.83 152.19 170.27C153.66 169.6 155.54 169.32 156.29 167.93C157.61 164.18 156.25 160.36 152.19 160.31Z" fill="#0077B8"/>
<path d="M183.84 169.68C185.69 167.78 186.24 165.77 185.59 162.68C185.19 162.528 184.826 162.293 184.524 161.989C184.223 161.686 183.989 161.321 183.84 160.92C183.338 161.026 182.819 161.029 182.316 160.929C181.812 160.829 181.334 160.629 180.91 160.34C179.5 161.08 177.79 161.52 176.8 162.68C176.16 165.8 176.71 167.81 178.56 169.68C180.31 169.95 182.09 169.95 183.84 169.68Z" fill="#0077B8"/>
<path d="M213.14 169.68C214.99 167.78 215.54 165.77 214.9 162.68C214.498 162.53 214.132 162.295 213.829 161.991C213.525 161.688 213.29 161.322 213.14 160.92C212.638 161.026 212.119 161.029 211.616 160.929C211.112 160.829 210.634 160.629 210.21 160.34C208.8 161.08 207.09 161.52 206.11 162.68C205.47 165.8 206.01 167.81 207.86 169.68C209.61 169.95 211.39 169.95 213.14 169.68Z" fill="#0077B8"/>
<path d="M235.41 167.93C235.954 168.555 236.542 169.14 237.17 169.68C239.54 170.82 243.24 169.68 244.79 167.93C245.05 166.18 245.05 164.4 244.79 162.65C244.388 162.5 244.022 162.265 243.719 161.961C243.415 161.657 243.18 161.292 243.03 160.89C241.57 161.65 240.19 159.58 240.1 160.89C237.35 160.3 236.76 161.89 235.41 162.65C235.66 164.75 234.5 166.24 235.41 167.93Z" fill="#0077B8"/>
<path d="M272.33 169.68C274.04 168.32 274.7 164.6 273.5 162.06C269.62 159.18 263.44 161.47 265.3 167.93C267.2 169.78 269.21 170.33 272.33 169.68Z" fill="#0077B8"/>
<path d="M296.36 161.48C293.87 162.28 294.26 167.48 295.77 169.1C298.77 170.6 301.89 169.1 303.39 167.34C303.569 165.559 303.371 163.76 302.81 162.06C301.61 161 298.05 160.21 296.36 161.48Z" fill="#0077B8"/>
<path d="M328.59 169.68C330.82 168.98 332.83 168.06 332.7 164.99C332.7 160.74 326.7 159.76 324.49 162.65C324.03 165.56 324.31 165.95 325.08 168.51C326.79 168.36 326.88 169.84 328.59 169.68Z" fill="#0077B8"/>
<path d="M354.38 162.06C353.38 164.75 353.38 165.83 354.38 168.51C357.06 169.51 358.14 169.51 360.82 168.51C361.82 165.83 361.82 164.75 360.82 162.06C358.14 161 357.06 161 354.38 162.06Z" fill="#0077B8"/>
<path d="M165.08 175.55C162.44 175.63 162.36 178.3 161.57 180.23H162.15C160.85 185.99 172.15 185.79 170.94 180.23H171.53C171.26 176.8 168.21 174.31 165.08 175.55Z" fill="#0077B8"/>
<path d="M194.38 175.55C192.22 175.92 191.12 177.35 191.46 180.23C191.37 183.63 193.66 184.67 197.32 184.34C199.27 183.94 200.5 182.83 200.25 180.23H200.83C200.57 176.8 197.51 174.31 194.38 175.55Z" fill="#0077B8"/>
<path d="M253.58 175.55C250.93 175.63 250.86 178.3 250.06 180.23H250.65C250.02 186.16 260.07 186.16 259.44 180.23H260C259.76 176.8 256.7 174.31 253.58 175.55Z" fill="#0077B8"/>
<path d="M229.55 180.23H230.14C229.87 176.8 226.82 174.31 223.69 175.55C221.04 175.63 220.97 178.3 220.17 180.23H220.76C220.13 186.16 230.18 186.16 229.55 180.23Z" fill="#0077B8"/>
<path d="M284.05 184.34C285.198 184.345 286.309 183.929 287.173 183.172C288.036 182.415 288.594 181.369 288.74 180.23C288.74 177.85 287.56 176.72 286.4 175.55H282.88C280.99 176.19 279.66 177.41 279.95 180.23C280.09 182.83 282 183.68 284.05 184.34Z" fill="#0077B8"/>
<path d="M313.36 184.34C314.508 184.346 315.618 183.932 316.481 183.174C317.343 182.417 317.898 181.369 318.04 180.23C318.2 178.52 316.72 178.43 316.87 176.72C315.87 176.39 314.44 176.42 313.94 175.55C312.747 175.693 311.637 176.232 310.787 177.081C309.937 177.929 309.396 179.038 309.25 180.23H309.84C309.21 183.4 311.59 183.56 313.36 184.34Z" fill="#0077B8"/>
<path d="M341.49 184.34H344.42C346.13 183.71 347.48 182.71 347.35 180.23C347.62 177.03 345.57 176.15 343.24 175.55C340.24 175.67 338.68 177.23 338.56 180.23C338.42 182.71 339.77 183.71 341.49 184.34Z" fill="#0077B8"/>
<path d="M214.9 192C214.349 191.378 213.673 190.88 212.915 190.539C212.157 190.198 211.336 190.021 210.505 190.021C209.674 190.021 208.853 190.198 208.095 190.539C207.337 190.88 206.661 191.378 206.11 192C205.907 193.969 206.104 195.959 206.69 197.85C208.07 199.02 210.42 199.2 213.14 199.03C215 197.08 215.54 195.08 214.9 192Z" fill="#0077B8"/>
<path d="M235.41 192C234.87 195.15 235.41 198 237.17 199C239.6 200.37 242.81 198.61 244.79 197.24V192C244.19 191.356 243.464 190.843 242.657 190.492C241.85 190.141 240.98 189.959 240.1 189.959C239.22 189.959 238.35 190.141 237.543 190.492C236.736 190.843 236.01 191.356 235.41 192Z" fill="#0077B8"/>
<path d="M185 197.81C185.794 195.737 185.794 193.443 185 191.37C183.8 190.3 180.25 189.51 178.55 190.78C176.29 191.45 176.55 195.78 177.38 197.78C179 199.39 183.39 199.39 185 197.81Z" fill="#0077B8"/>
<path d="M274.09 193.71C273.7 192.14 272.41 191.48 271.75 190.19C265.33 188.19 263.8 194.87 266.47 198.4C270.38 200.1 274.43 198.09 274.09 193.71Z" fill="#0077B8"/>
<path d="M302.81 197.23C303.32 195.51 303.32 193.68 302.81 191.96C301.826 191.195 300.64 190.731 299.398 190.627C298.155 190.522 296.909 190.78 295.81 191.37C294.81 194.05 294.81 195.13 295.81 197.81C296.908 198.399 298.154 198.657 299.396 198.554C300.638 198.452 301.823 197.992 302.81 197.23Z" fill="#0077B8"/>
<path d="M330.94 199C332.88 197.87 333.22 193.83 332.11 191.38C330.92 190.31 327.36 189.52 325.66 190.79C323.41 191.46 323.66 195.79 324.49 197.79C325.86 199 328.22 199.16 330.94 199Z" fill="#0077B8"/>
<path d="M362 197.23C362.036 197.145 362.066 197.059 362.09 196.97C362.02 196.9 361.97 196.82 361.9 196.75V191.86C358.68 188.55 350.9 190.12 353.23 197.25C355.62 200.15 360.87 199.55 362 197.23Z" fill="#0077B8"/>
<path d="M227.79 213.64C229.65 211.74 230.19 209.73 229.55 206.64C229.145 206.494 228.777 206.261 228.473 205.957C228.169 205.653 227.936 205.285 227.79 204.88C226.34 205.65 224.95 203.58 224.86 204.88C222.31 204.29 222.16 206.1 220.76 206.64V211.92C222.66 213.73 224.67 214.28 227.79 213.64Z" fill="#0077B8"/>
<path d="M345.59 213.64C347.44 211.74 347.99 209.73 347.35 206.64C346.945 206.494 346.577 206.261 346.273 205.957C345.969 205.653 345.736 205.285 345.59 204.88C345.088 204.988 344.569 204.992 344.065 204.893C343.561 204.793 343.083 204.591 342.66 204.3C341.25 205.04 339.54 205.48 338.56 206.64C337.92 209.77 338.46 211.78 340.31 213.64C342.06 213.9 343.84 213.9 345.59 213.64Z" fill="#0077B8"/>
<path d="M373.35 213.78C371.987 211.027 370.465 208.355 368.79 205.78C368.443 205.996 368.13 206.263 367.86 206.57C367.22 209.7 367.76 211.71 369.62 213.57C370.851 213.783 372.103 213.853 373.35 213.78Z" fill="#0077B8"/>
<path d="M169.77 212.46C170.77 209.78 170.77 208.7 169.77 206.02C167.09 205.02 166.01 205.02 163.33 206.02C162.33 208.7 162.33 209.78 163.33 212.46C166 213.49 167.09 213.49 169.77 212.46Z" fill="#0077B8"/>
<path d="M196.14 213.64C198.64 213.21 200.2 211.83 200.25 208.95C200.25 206.81 198.58 206.32 197.9 204.84C189.89 202.4 189.55 214.15 196.14 213.64Z" fill="#0077B8"/>
<path d="M258.85 212.46C259.644 210.387 259.644 208.093 258.85 206.02C257.48 204.85 255.12 204.67 252.4 204.84C250.7 206.21 250.04 209.93 251.23 212.46C252.85 214 257.23 214 258.85 212.46Z" fill="#0077B8"/>
<path d="M287.57 212.46C288.57 209.78 288.57 208.7 287.57 206.02C284.88 205.02 283.81 205.02 281.12 206.02C280.12 208.7 280.12 209.78 281.12 212.46C283.81 213.49 284.88 213.49 287.57 212.46Z" fill="#0077B8"/>
<path d="M314.53 213.64C317.58 213.16 319.03 209.34 317.46 206.02C313.96 203.31 309.15 205.41 309.25 209.54C309.25 210.33 310.25 210.65 309.84 211.88C311.158 212.983 312.812 213.604 314.53 213.64Z" fill="#0077B8"/>
<path d="M235.41 226.53C235.951 227.161 236.539 227.749 237.17 228.29C239.54 229.42 243.24 228.29 244.79 226.53C244.991 224.557 244.79 222.563 244.2 220.67C241.44 218.73 237.55 218.74 235.41 221.25C235.66 223.36 234.5 224.85 235.41 226.53Z" fill="#0077B8"/>
<path d="M360.24 219.5C359.737 219.604 359.218 219.606 358.715 219.504C358.211 219.403 357.733 219.201 357.31 218.91C355.9 219.65 354.19 220.1 353.21 221.25C352.56 224.38 353.11 226.39 354.96 228.25C356.71 228.51 358.49 228.51 360.24 228.25C362.09 226.35 362.64 224.34 362 221.25C361.596 221.105 361.23 220.873 360.926 220.571C360.621 220.268 360.387 219.903 360.24 219.5Z" fill="#0077B8"/>
<path d="M181.49 228.29C183.72 227.58 185.73 226.67 185.59 223.6C185.73 222.49 184.93 222.31 185.01 221.25C183.93 220.54 182.79 219.54 181.49 219.5C180.492 219.566 179.508 219.761 178.56 220.08C177.591 221.253 176.98 222.679 176.8 224.19C176.8 224.26 178.24 226.37 177.97 227.12C179.69 227 179.78 228.44 181.49 228.29Z" fill="#0077B8"/>
<path d="M207.86 220.08C205.61 220.75 205.86 225.03 206.69 227.08C208.07 228.24 210.42 228.43 213.14 228.25C214.99 226.35 215.54 224.34 214.9 221.25C213.71 219.86 210.07 218.61 207.86 220.08Z" fill="#0077B8"/>
<path d="M273.5 227.12C273.63 226.66 273.5 225.96 274.09 225.95C274.237 224.359 274.036 222.755 273.5 221.25C271.81 219.1 268.29 219.25 265.88 220.67C265.294 222.564 265.096 224.558 265.3 226.53C266.48 228.73 271.63 228.89 273.5 227.12Z" fill="#0077B8"/>
<path d="M295.77 227.12C298.46 228.12 299.54 228.12 302.22 227.12C303.22 224.43 303.22 223.36 302.22 220.67C299.54 219.67 298.46 219.67 295.77 220.67C294.75 223.36 294.75 224.43 295.77 227.12Z" fill="#0077B8"/>
<path d="M324.49 227.12C326.49 228.99 331.27 228.5 332.7 226.53C333.34 223.41 332.79 221.4 330.94 219.53C325 218.1 322.51 222.44 324.49 227.12Z" fill="#0077B8"/>
<path d="M222.52 242.94C227.52 244.47 231.08 240.89 229.52 235.94C228.968 235.319 228.291 234.823 227.534 234.482C226.776 234.142 225.955 233.966 225.125 233.966C224.295 233.966 223.474 234.142 222.716 234.482C221.959 234.823 221.282 235.319 220.73 235.94C220.42 239.17 221 241.5 222.52 242.94Z" fill="#0077B8"/>
<path d="M347.35 235.91C344.18 232.06 336.76 233.69 338.56 241.18C340.97 244.1 346.22 243.5 347.35 241.18C348 239.78 347.23 237.63 347.35 235.91Z" fill="#0077B8"/>
<path d="M367.86 235.91C367.59 237.656 367.59 239.434 367.86 241.18C371.28 244.95 377.35 243.06 377.23 238.25C377.23 236.98 375.91 236.03 376.06 234.74C372.91 233.47 370 233.62 367.86 235.91Z" fill="#0077B8"/>
<path d="M162.15 238.84C162.15 244.13 170.96 244.13 170.94 238.84C171.17 233.11 161.82 232.72 162.15 238.84Z" fill="#0077B8"/>
<path d="M193.21 242.94C197.78 244.16 201.41 242.06 200.21 235.94C199.299 235.059 198.142 234.476 196.892 234.267C195.642 234.058 194.358 234.234 193.21 234.77C192.21 235.28 192.29 235.77 191.46 236.52C191.07 239.62 191.91 241.51 193.21 242.94Z" fill="#0077B8"/>
<path d="M250.65 241.18C251.201 241.802 251.877 242.3 252.635 242.641C253.393 242.983 254.214 243.159 255.045 243.159C255.876 243.159 256.697 242.983 257.455 242.641C258.213 242.3 258.889 241.802 259.44 241.18C259.74 237.95 259.44 235.36 257.68 234.18C256.09 234.54 253.03 233.43 252.4 234.77C250 235.93 250.34 238.43 250.65 241.18Z" fill="#0077B8"/>
<path d="M280.54 241.77C282.15 243.34 286.54 243.34 288.16 241.77C288.94 239.691 288.94 237.399 288.16 235.32C286.96 234.25 283.4 233.47 281.71 234.74C279.45 235.41 279.68 239.68 280.54 241.77Z" fill="#0077B8"/>
<path d="M309.25 240.6C309.71 240.72 309.93 241.09 309.84 241.77C311.46 243.34 315.84 243.34 317.46 241.77C318.022 240.07 318.219 238.271 318.04 236.49C315.47 232.62 307.76 233.88 309.25 240.6Z" fill="#0077B8"/>
<path d="M244.79 255.83C245.7 254.16 244.54 252.66 244.79 250.56C244.19 249.916 243.464 249.403 242.657 249.052C241.85 248.701 240.98 248.519 240.1 248.519C239.22 248.519 238.35 248.701 237.543 249.052C236.736 249.403 236.01 249.916 235.41 250.56C235.15 252.307 235.15 254.083 235.41 255.83C237.76 258.81 243.5 258.21 244.79 255.83Z" fill="#0077B8"/>
<path d="M353.21 250.56C351.93 252.86 353.27 255.56 354.96 257.56H360.24C362.09 255.66 362.64 253.65 362 250.56C359.52 247.62 354.47 248.29 353.21 250.56Z" fill="#0077B8"/>
<path d="M185.59 255.83C186.28 254.43 185.48 252.28 185.59 250.56C182.45 247.09 174.49 248.62 176.8 255.83C179.22 258.75 184.47 258.15 185.59 255.83Z" fill="#0077B8"/>
<path d="M206.11 255.83C208.11 257.53 210.84 258.83 213.11 257.59C216.04 255.96 215.31 249.85 213.11 248.8C211.52 249.17 208.46 248.05 207.83 249.39C205.93 249.63 206.32 252.18 205.49 253.49C206.39 253.6 206.06 254.91 206.11 255.83Z" fill="#0077B8"/>
<path d="M271.75 257.59C271.849 257.215 272.081 256.889 272.404 256.674C272.726 256.458 273.116 256.368 273.5 256.42C274.29 254.343 274.29 252.047 273.5 249.97C269.61 247.08 263.26 249.19 265.3 255.83C266.73 257.14 268.62 258 271.75 257.59Z" fill="#0077B8"/>
<path d="M295.19 256.42C296.81 257.99 301.19 257.99 302.81 256.42C303.6 254.343 303.6 252.047 302.81 249.97C301.61 248.9 298.05 248.12 296.36 249.39C294.1 250.06 294.33 254.34 295.19 256.42Z" fill="#0077B8"/>
<path d="M332.7 255.83V250.56C331.7 248.93 327.8 247.98 325.7 249.39C323.45 250.06 323.7 254.39 324.53 256.39C326.47 258.29 331.27 257.8 332.7 255.83Z" fill="#0077B8"/>
<path d="M169.18 263.45C168.677 263.556 168.158 263.558 167.654 263.457C167.15 263.355 166.673 263.152 166.25 262.86C164.84 263.6 163.14 264.05 162.15 265.21C161.4 268.49 161.96 270.9 163.91 272.83C165.657 273.09 167.433 273.09 169.18 272.83C171.13 270.9 171.69 268.49 170.94 265.21C170.538 265.06 170.173 264.825 169.869 264.521C169.565 264.217 169.33 263.852 169.18 263.45Z" fill="#0077B8"/>
<path d="M196.14 273.42C197.23 273.42 198.43 272.11 199.66 272.24C200.124 271.453 200.417 270.576 200.519 269.668C200.62 268.76 200.529 267.84 200.25 266.97C199.78 265.43 199.51 263.97 198.49 263.45C196.31 262.45 193.07 263.53 191.49 265.21C190.36 269.74 192 273.51 196.14 273.42Z" fill="#0077B8"/>
<path d="M227.79 263.45C227.287 263.557 226.768 263.559 226.264 263.458C225.76 263.356 225.282 263.153 224.86 262.86C224.86 264 223.26 263.06 222.52 263.45C220.44 264.57 220.41 267.65 220.17 270.45C220.94 270.36 220.47 271.23 220.76 271.62C222.49 274 227.76 274.05 229.55 271.62C229.81 271.27 229.46 270.39 230.14 270.45C230.198 268.432 229.794 266.428 228.96 264.59C228.3 264.5 228.05 264 227.79 263.45Z" fill="#0077B8"/>
<path d="M252.4 272.24C255.02 273.11 256.04 272.43 258.27 271.65C258.84 269.43 260.14 267.04 258.85 264.65C258.02 263.53 256 263.65 254.75 262.89C253.34 263.63 251.63 264.08 250.65 265.24C249.92 268.42 250.79 270.1 252.4 272.24Z" fill="#0077B8"/>
<path d="M374.89 263.45C374.387 263.557 373.868 263.559 373.364 263.458C372.86 263.356 372.382 263.153 371.96 262.86C370.55 263.6 368.85 264.05 367.86 265.21C367.11 268.49 367.67 270.9 369.62 272.83C371.367 273.09 373.143 273.09 374.89 272.83C376.89 270.9 377.4 268.49 376.65 265.21C376.248 265.06 375.882 264.825 375.579 264.521C375.275 264.217 375.04 263.852 374.89 263.45Z" fill="#0077B8"/>
<path d="M287.57 271.65C288.25 269.25 289.06 267.87 288.16 265.21C286.05 263.21 282.07 262.81 280.54 265.21C279.23 267.21 280.76 269.38 281.12 271.65C283.81 272.68 284.88 272.68 287.57 271.65Z" fill="#0077B8"/>
<path d="M316.87 271.65C317.44 269.43 318.75 267.04 317.46 264.65C314.72 262.32 309.19 263.65 309.25 267.59C309.35 269.25 310.33 270.02 310.42 271.68C313.11 272.68 314.19 272.68 316.87 271.65Z" fill="#0077B8"/>
<path d="M340.31 263.45C338.48 264.83 337.98 269.03 339.14 271.65C340.51 272.82 342.87 273.01 345.59 272.83C346.766 271.702 347.478 270.174 347.585 268.548C347.693 266.921 347.188 265.313 346.17 264.04C345.06 263 342.3 263.61 340.31 263.45Z" fill="#0077B8"/>
<path d="M185.59 280.45C185.19 280.298 184.826 280.063 184.524 279.759C184.223 279.456 183.989 279.091 183.84 278.69C183.337 278.794 182.818 278.796 182.315 278.694C181.811 278.593 181.333 278.391 180.91 278.1C179.5 278.84 177.79 279.29 176.8 280.45C176.16 283.57 176.71 285.58 178.56 287.45C180.31 287.71 182.09 287.71 183.84 287.45C185.69 285.58 186.24 283.57 185.59 280.45Z" fill="#0077B8"/>
<path d="M206.11 285.72C208.01 287.57 210.02 288.12 213.11 287.48C214.135 286.534 214.852 285.301 215.166 283.942C215.479 282.582 215.376 281.16 214.87 279.86C210.9 275.83 203.66 279.87 206.11 285.72Z" fill="#0077B8"/>
<path d="M236 286.89C239.05 288.05 241.62 287.98 244.21 286.31C245 284.233 245 281.937 244.21 279.86C240.49 277.07 233.72 277.86 234.83 284.55C235.217 284.799 235.531 285.147 235.737 285.559C235.942 285.971 236.033 286.431 236 286.89Z" fill="#0077B8"/>
<path d="M360.24 278.69C358.79 279.45 357.4 277.38 357.31 278.69C354.76 278.09 354.61 279.9 353.21 280.45V285.72C355.11 287.57 357.12 288.12 360.21 287.48C362.06 285.58 362.61 283.57 361.97 280.48C361.57 280.323 361.209 280.082 360.911 279.773C360.612 279.464 360.383 279.095 360.24 278.69Z" fill="#0077B8"/>
<path d="M152.19 278.69V278.1C150.33 278.79 148.06 279.1 147.5 281.03C146.45 284.52 148.15 288.03 152.19 288.03C152.94 287.22 155.06 287.78 155.12 286.28C156.97 286.56 155.56 283.59 156.88 283.35C156 281.1 155.86 278.15 152.19 278.69Z" fill="#0077B8"/>
<path d="M272.92 286.31C273.92 283.62 273.92 282.55 272.92 279.86C270.23 278.86 269.15 278.86 266.47 279.86C265.47 282.55 265.47 283.62 266.47 286.31C269.15 287.34 270.23 287.34 272.92 286.31Z" fill="#0077B8"/>
<path d="M295.77 279.86C294.77 282.55 294.77 283.62 295.77 286.31C298.46 287.31 299.54 287.31 302.22 286.31C303.22 283.62 303.22 282.55 302.22 279.86C299.54 278.83 298.46 278.83 295.77 279.86Z" fill="#0077B8"/>
<path d="M323.9 284.55C325.14 285.85 325.9 287.68 328.59 287.48C332.17 287.36 333.59 283.25 332.11 279.86C328.87 277.36 322.31 278.66 323.9 284.55Z" fill="#0077B8"/>
<path d="M169.18 302.13C171.04 300.23 171.58 298.22 170.94 295.13C170.538 294.98 170.172 294.745 169.869 294.441C169.565 294.138 169.33 293.772 169.18 293.37C168.678 293.475 168.159 293.478 167.656 293.378C167.153 293.279 166.674 293.079 166.25 292.79C164.84 293.52 163.14 293.97 162.15 295.13C161.51 298.25 162.06 300.26 163.91 302.13C165.656 302.4 167.434 302.4 169.18 302.13Z" fill="#0077B8"/>
<path d="M198.49 302.13C200.34 300.23 200.89 298.22 200.25 295.13C199.848 294.98 199.482 294.745 199.179 294.441C198.875 294.138 198.64 293.772 198.49 293.37C197.988 293.476 197.469 293.479 196.966 293.379C196.462 293.279 195.984 293.079 195.56 292.79C194.15 293.52 192.44 293.97 191.46 295.13C190.81 298.25 191.36 300.26 193.21 302.13C194.96 302.4 196.74 302.4 198.49 302.13Z" fill="#0077B8"/>
<path d="M229.55 295.1C229.148 294.95 228.782 294.715 228.479 294.411C228.175 294.108 227.94 293.742 227.79 293.34C227.288 293.446 226.769 293.449 226.266 293.349C225.762 293.249 225.284 293.049 224.86 292.76C223.45 293.49 221.75 293.94 220.76 295.1C220.12 298.22 220.66 300.23 222.52 302.1C224.266 302.37 226.044 302.37 227.79 302.1C229.65 300.23 230.19 298.22 229.55 295.1Z" fill="#0077B8"/>
<path d="M367.86 295.1C367.24 298.1 367.73 300.1 369.41 301.9C370.777 299.053 372.037 296.187 373.19 293.3C372.747 293.208 372.328 293.024 371.96 292.76C370.55 293.49 368.85 293.94 367.86 295.1Z" fill="#0077B8"/>
<path d="M251.82 294.51C250.46 296.93 250.53 299.64 252.4 301.51C255.32 301.97 255.7 301.69 258.27 300.92C259.27 298.24 259.27 297.16 258.27 294.47C255.58 293.49 254.5 293.49 251.82 294.51Z" fill="#0077B8"/>
<path d="M284.64 302.13C287.34 301.9 288.37 300 288.74 297.44C288.49 296.33 287.48 295.97 287.57 294.51C286.347 294.289 285.162 293.895 284.05 293.34C283.56 294.21 282.17 294.19 281.12 294.51C281.28 296.23 279.8 296.32 279.95 298.03C280.66 300.25 281.57 302.27 284.64 302.13Z" fill="#0077B8"/>
<path d="M309.25 298C309.78 301.29 313.09 302.52 316.25 301.52C317.023 300.659 317.542 299.6 317.748 298.461C317.955 297.322 317.841 296.148 317.42 295.07C315.1 292.11 308.79 293.24 309.25 298Z" fill="#0077B8"/>
<path d="M345.59 293.34C339.59 291.94 337.16 296.28 339.14 300.96C340.51 302.13 342.87 302.31 345.59 302.13C346.211 301.578 346.708 300.901 347.048 300.144C347.388 299.386 347.564 298.565 347.564 297.735C347.564 296.905 347.388 296.084 347.048 295.326C346.708 294.569 346.211 293.892 345.59 293.34Z" fill="#0077B8"/>
<path d="M185.59 309.75C185.19 309.598 184.826 309.363 184.524 309.059C184.223 308.756 183.989 308.391 183.84 307.99C183.338 308.096 182.819 308.099 182.316 307.999C181.812 307.899 181.334 307.699 180.91 307.41C179.5 308.14 177.79 308.59 176.8 309.75C176.16 312.87 176.71 314.88 178.56 316.75C180.31 317.01 182.09 317.01 183.84 316.75C185.69 314.88 186.24 312.87 185.59 309.75Z" fill="#0077B8"/>
<path d="M206.11 309.75C204.83 312.05 206.17 314.75 207.86 316.75H213.14C214.99 314.84 215.54 312.83 214.9 309.75C212.42 306.81 207.37 307.48 206.11 309.75Z" fill="#0077B8"/>
<path d="M235.41 309.75C234.77 312.87 235.31 314.88 237.17 316.75C238.211 317.405 239.45 317.674 240.669 317.511C241.888 317.348 243.012 316.762 243.844 315.856C244.677 314.95 245.165 313.781 245.225 312.552C245.284 311.323 244.911 310.112 244.17 309.13C241.44 307.23 237.55 307.23 235.41 309.75Z" fill="#0077B8"/>
<path d="M353.21 309.75C353.007 311.722 353.204 313.716 353.79 315.61C355.17 316.78 357.52 316.96 360.24 316.79C362.09 314.88 362.64 312.87 362 309.79C361.451 309.167 360.777 308.667 360.021 308.323C359.265 307.98 358.444 307.8 357.614 307.796C356.784 307.792 355.962 307.965 355.203 308.301C354.444 308.638 353.764 309.132 353.21 309.75Z" fill="#0077B8"/>
<path d="M152.19 308V307.42C149.49 308.03 147.07 308.94 146.92 312.1C146.92 315.59 148.7 317.35 152.19 317.38C152.94 316.56 155.06 317.12 155.12 315.62C156.97 315.9 155.56 312.94 156.88 312.69C156 310.4 155.86 307.45 152.19 308Z" fill="#0077B8"/>
<path d="M273.5 309.75C272.27 309.23 271.77 307.97 269.99 307.99C269.53 308.12 268.83 307.99 268.81 308.58C266.94 308.08 267 309.5 265.88 309.75C266.37 311.41 265.06 311.27 265.3 312.68C265.48 313.47 266.13 313.8 265.88 315.03C267.76 317.2 272.17 317.25 273.5 315.61C273.78 315.27 273.41 314.36 274.09 314.44C274.236 312.852 274.034 311.252 273.5 309.75Z" fill="#0077B8"/>
<path d="M295.77 308.58C293.9 310.58 294.4 315.36 296.36 316.79C299.08 316.96 301.43 316.79 302.81 315.61C302.94 315.16 302.81 314.46 303.39 314.44C304.25 309 300.21 307 295.77 308.58Z" fill="#0077B8"/>
<path d="M323.9 312.09C323.66 318.25 333.5 318 332.7 311.51C332.09 306.87 323.89 307 323.9 312.09Z" fill="#0077B8"/>
<path d="M163.91 331.43C165.656 331.7 167.434 331.7 169.18 331.43C171.04 329.53 171.58 327.52 170.94 324.43C170.538 324.28 170.172 324.045 169.869 323.741C169.565 323.438 169.33 323.072 169.18 322.67C168.678 322.775 168.159 322.778 167.656 322.678C167.153 322.579 166.674 322.379 166.25 322.09C164.84 322.82 163.14 323.27 162.15 324.43C161.51 327.52 162.06 329.53 163.91 331.43Z" fill="#0077B8"/>
<path d="M193.21 331.43C194.96 331.7 196.74 331.7 198.49 331.43C200.34 329.53 200.89 327.52 200.25 324.43C199.848 324.28 199.482 324.045 199.179 323.741C198.875 323.438 198.64 323.072 198.49 322.67C197.988 322.776 197.469 322.779 196.966 322.679C196.462 322.579 195.984 322.379 195.56 322.09C194.15 322.82 192.44 323.27 191.46 324.43C190.81 327.52 191.36 329.53 193.21 331.43Z" fill="#0077B8"/>
<path d="M227.79 322.64C226.34 323.4 224.95 321.34 224.86 322.64C222.31 322.05 222.16 323.86 220.76 324.4V329.67C222.66 331.53 224.67 332.07 227.76 331.43C229.62 329.53 230.16 327.52 229.52 324.43C229.12 324.273 228.759 324.032 228.461 323.723C228.162 323.414 227.933 323.045 227.79 322.64Z" fill="#0077B8"/>
<path d="M250.65 329.09C251.1 329.22 251.33 329.58 251.23 330.26C252.85 331.84 257.23 331.84 258.85 330.26C263.12 322.16 248.74 319.44 250.65 329.09Z" fill="#0077B8"/>
<path d="M288.74 324.4C287.79 322.77 283.84 321.82 281.74 323.23C279.48 323.9 279.74 328.18 280.57 330.23C282 331.59 285.52 331.77 287.57 330.82C288.73 329.48 288.92 327.12 288.74 324.4Z" fill="#0077B8"/>
<path d="M309.84 330.26C311.46 331.84 315.84 331.84 317.46 330.26C317.59 329.81 317.46 329.11 318.04 329.09C318.04 327.36 318.17 325.54 317.46 324.4C317.09 323.82 315.62 323.55 315.11 323.23C311.53 321 307.39 325.1 309.84 330.26Z" fill="#0077B8"/>
<path d="M338.56 328.5C339.83 330.36 341.35 331.96 345 331.43C345.13 330.98 345.49 330.75 346.17 330.85C347.54 329.41 347.71 325.85 346.76 323.85C343.32 321.12 337.64 323.29 338.56 328.5Z" fill="#0077B8"/>
<path d="M183.84 337.29C183.338 337.396 182.819 337.399 182.316 337.299C181.812 337.199 181.334 336.999 180.91 336.71C179.5 337.45 177.79 337.89 176.8 339.05C176.16 342.18 176.71 344.18 178.56 346.05C180.31 346.32 182.09 346.32 183.84 346.05C185.69 344.15 186.24 342.15 185.59 339.05C185.187 338.903 184.822 338.669 184.519 338.364C184.217 338.06 183.985 337.694 183.84 337.29Z" fill="#0077B8"/>
<path d="M213.14 337.29C212.638 337.396 212.119 337.399 211.616 337.299C211.112 337.199 210.634 336.999 210.21 336.71C208.8 337.45 207.09 337.89 206.11 339.05C205.47 342.18 206.01 344.18 207.86 346.05C209.61 346.32 211.39 346.32 213.14 346.05C214.99 344.15 215.54 342.15 214.9 339.05C214.495 338.904 214.127 338.671 213.823 338.367C213.519 338.063 213.286 337.695 213.14 337.29Z" fill="#0077B8"/>
<path d="M237.17 346.08C239.54 347.22 243.24 346.08 244.79 344.33C244.991 342.357 244.79 340.363 244.2 338.47C241.44 336.53 237.55 336.54 235.41 339.05C235.66 341.16 234.5 342.65 235.41 344.33C235.951 344.958 236.539 345.543 237.17 346.08Z" fill="#0077B8"/>
<path d="M152.19 337.29V336.71C150.33 337.39 148.06 337.66 147.5 339.64C146.32 343.25 148.45 346.3 152.19 346.64V346.05C158.12 346.72 158.12 336.66 152.19 337.29Z" fill="#0077B8"/>
<path d="M267.06 337.88C264.8 338.55 265.06 342.88 265.88 344.88C267.51 346.46 271.88 346.46 273.5 344.88C274.294 342.807 274.294 340.513 273.5 338.44C272.31 337.4 268.75 336.61 267.06 337.88Z" fill="#0077B8"/>
<path d="M296.36 337.88C294.1 338.55 294.36 342.88 295.19 344.88C296.81 346.46 301.19 346.46 302.81 344.88C303.604 342.807 303.604 340.513 302.81 338.44C301.61 337.4 298.05 336.61 296.36 337.88Z" fill="#0077B8"/>
<path d="M325.66 337.88C323.41 338.55 323.66 342.88 324.49 344.88C326.11 346.46 330.49 346.46 332.11 344.88C332.904 342.807 332.904 340.513 332.11 338.44C330.92 337.4 327.36 336.61 325.66 337.88Z" fill="#0077B8"/>
<path d="M170.94 353.7C170.179 352.669 169.061 351.958 167.804 351.707C166.548 351.456 165.242 351.683 164.144 352.342C163.045 353.002 162.232 354.048 161.863 355.276C161.495 356.503 161.597 357.824 162.15 358.98C164.57 361.9 169.82 361.3 170.94 358.98C171.63 357.57 170.83 355.43 170.94 353.7Z" fill="#0077B8"/>
<path d="M200.25 353.7C199.846 353.555 199.48 353.323 199.175 353.021C198.871 352.718 198.637 352.353 198.49 351.95C197.987 352.052 197.469 352.052 196.965 351.951C196.462 351.85 195.984 351.649 195.56 351.36C194.15 352.1 192.44 352.54 191.46 353.7C191.19 355.45 191.19 357.23 191.46 358.98C192.221 360.011 193.339 360.722 194.596 360.973C195.852 361.224 197.158 360.997 198.256 360.338C199.355 359.678 200.168 358.632 200.537 357.404C200.905 356.177 200.803 354.856 200.25 353.7Z" fill="#0077B8"/>
<path d="M222.52 360.74C224.267 361 226.043 361 227.79 360.74C229.65 358.83 230.19 356.83 229.55 353.74C229.146 353.595 228.78 353.363 228.476 353.061C228.171 352.758 227.937 352.393 227.79 351.99C227.287 352.092 226.769 352.092 226.265 351.991C225.762 351.89 225.284 351.689 224.86 351.4C223.45 352.14 221.75 352.58 220.76 353.74C220.12 356.82 220.66 358.83 222.52 360.74Z" fill="#0077B8"/>
<path d="M259.44 359C259.641 357.027 259.44 355.034 258.85 353.14C256.85 352.14 254.37 351.14 252.4 351.97C252.29 351.97 251.94 352.97 251.82 353.14C251.7 353.31 250.82 353.38 250.65 353.72C249.42 356.17 251.21 356.78 250.65 359C251.202 359.621 251.879 360.118 252.636 360.458C253.394 360.798 254.215 360.974 255.045 360.974C255.875 360.974 256.696 360.798 257.454 360.458C258.211 360.118 258.888 359.621 259.44 359Z" fill="#0077B8"/>
<path d="M281.71 352.53C279.45 353.2 279.71 357.53 280.54 359.53C282.15 361.1 286.54 361.1 288.16 359.53C288.94 357.451 288.94 355.159 288.16 353.08C287 352.05 283.4 351.27 281.71 352.53Z" fill="#0077B8"/>
<path d="M311 352.53C308.74 353.2 309 357.53 309.83 359.53C311.45 361.1 315.83 361.1 317.45 359.53C318.24 357.453 318.24 355.157 317.45 353.08C316.26 352.05 312.7 351.27 311 352.53Z" fill="#0077B8"/>
<path d="M183.84 366.6C182.38 367.36 180.99 365.29 180.91 366.6C178.36 366 178.21 367.81 176.8 368.36C176.16 371.47 176.71 373.48 178.56 375.36C180.31 375.62 182.09 375.62 183.84 375.36C184.764 374.478 185.419 373.353 185.729 372.113C186.039 370.874 185.99 369.573 185.59 368.36C185.19 368.208 184.826 367.973 184.524 367.669C184.223 367.366 183.989 367.001 183.84 366.6Z" fill="#0077B8"/>
<path d="M214.9 373.63C215.16 371.883 215.16 370.107 214.9 368.36C212.19 364.95 205.56 365.93 205.52 371.28C206.075 372.392 206.469 373.577 206.69 374.8C209.71 376.35 213 375.93 214.9 373.63Z" fill="#0077B8"/>
<path d="M235.41 368.36C235.15 370.107 235.15 371.883 235.41 373.63C237.76 376.63 243.5 376.01 244.79 373.63C245.7 371.95 244.54 370.46 244.79 368.36C244.191 367.715 243.465 367.2 242.658 366.848C241.851 366.496 240.98 366.315 240.1 366.315C239.22 366.315 238.349 366.496 237.542 366.848C236.735 367.2 236.009 367.715 235.41 368.36Z" fill="#0077B8"/>
<path d="M152.19 366.6V366C150.33 366.69 148.06 367 147.5 368.93V372.45C147.9 374.79 150.05 375.37 152.19 375.97V375.38C158.12 376 158.12 366 152.19 366.6Z" fill="#0077B8"/>
<path d="M272.33 366.6C270.74 366.96 267.68 365.85 267.06 367.19C265.15 367.43 265.55 369.97 264.71 371.28C265.58 371.39 265.25 372.7 265.3 373.63C267.3 375.33 270.04 376.63 272.3 375.39C275.27 373.76 274.53 367.65 272.33 366.6Z" fill="#0077B8"/>
<path d="M294.6 373.63C295.69 373.43 295.44 374.95 296.36 375.39C298.52 376.39 302.73 375.26 303.36 373.63C304.1 371.83 303.13 370.15 302.78 367.77C299 365 292.59 367 294.6 373.63Z" fill="#0077B8"/>
<path d="M169.18 381.25C168.677 381.356 168.158 381.358 167.654 381.257C167.15 381.155 166.673 380.952 166.25 380.66C164.84 381.4 163.14 381.85 162.15 383.01C161.51 386.13 162.06 388.13 163.91 390.01C165.656 390.28 167.434 390.28 169.18 390.01C171.04 388.1 171.58 386.1 170.94 383.01C170.538 382.86 170.172 382.625 169.869 382.321C169.565 382.018 169.33 381.652 169.18 381.25Z" fill="#0077B8"/>
<path d="M200.25 382.42C196.91 378.86 188.99 380.79 190.87 387.69C191.64 387.6 191.17 388.47 191.46 388.87C193.09 391.12 197.17 390.99 199.66 389.45C200.636 387.664 201.044 385.624 200.83 383.6C200.37 383.47 200.15 383.1 200.25 382.42Z" fill="#0077B8"/>
<path d="M229.55 383C228.787 381.976 227.672 381.271 226.419 381.023C225.166 380.775 223.866 381.001 222.771 381.658C221.675 382.315 220.863 383.355 220.492 384.577C220.12 385.799 220.216 387.115 220.76 388.27C223.17 391.19 228.42 390.59 229.55 388.27C230.23 386.88 229.44 384.73 229.55 383Z" fill="#0077B8"/>
<path d="M250.06 386.52C250.13 387.43 250.86 388.32 251.23 389.45C253.84 391.45 257.72 390.34 259.44 388.28C259.7 386.533 259.7 384.757 259.44 383.01C256.14 379 249.66 381.35 250.06 386.52Z" fill="#0077B8"/>
<path d="M287 381.25C286.497 381.357 285.978 381.359 285.474 381.258C284.97 381.156 284.492 380.953 284.07 380.66C282.66 381.4 280.96 381.85 279.97 383.01C279.471 384.782 279.642 386.676 280.45 388.33C283.32 386.91 286.13 385.43 288.91 383.9C288.91 383.61 288.82 383.32 288.76 383.01C288.358 382.86 287.993 382.625 287.689 382.321C287.385 382.018 287.15 381.652 287 381.25Z" fill="#0077B8"/>
<path d="M183.84 395.9C182.38 396.66 180.99 394.6 180.91 395.9C178.36 395.3 178.21 397.12 176.8 397.66C176.16 400.78 176.71 402.79 178.56 404.66C180.31 404.93 182.09 404.93 183.84 404.66C184.764 403.778 185.419 402.653 185.729 401.413C186.039 400.174 185.99 398.873 185.59 397.66C185.19 397.508 184.826 397.273 184.524 396.969C184.223 396.666 183.989 396.301 183.84 395.9Z" fill="#0077B8"/>
<path d="M213.14 395.9C212.637 396.007 212.118 396.009 211.614 395.908C211.11 395.806 210.632 395.603 210.21 395.31C208.8 396.05 207.09 396.5 206.11 397.66C205.47 400.78 206.01 402.79 207.86 404.66C209.61 404.93 211.39 404.93 213.14 404.66C214.99 402.76 215.54 400.75 214.9 397.66C214.498 397.51 214.132 397.275 213.829 396.971C213.525 396.667 213.29 396.302 213.14 395.9Z" fill="#0077B8"/>
<path d="M235.41 397.66C234.54 399.26 235.65 400.92 235.41 402.93C235.845 403.42 236.363 403.829 236.94 404.14C239.607 403.473 242.237 402.783 244.83 402.07C245.39 400.45 245.39 398.69 244.83 397.07C243 394.49 236.81 395.09 235.41 397.66Z" fill="#0077B8"/>
<path d="M152.19 395.9V395.31C150.33 396 148.06 396.31 147.5 398.25V401.76C148.15 403.65 149.37 404.97 152.19 404.69C155.59 404.77 156.63 402.49 156.29 398.83C155.9 396.88 154.79 395.65 152.19 395.9Z" fill="#0077B8"/>
<path d="M125.23 52.47C127.09 50.57 127.63 48.56 126.99 45.47C126.588 45.3197 126.222 45.0848 125.919 44.7811C125.615 44.4775 125.38 44.1123 125.23 43.71C124.356 43.8806 123.45 43.7502 122.66 43.34C121.122 44.0381 119.623 44.8192 118.17 45.68C117.59 48.68 118.17 50.68 119.96 52.5C121.708 52.76 123.485 52.7498 125.23 52.47Z" fill="#0077B8"/>
<path d="M152.19 53.06V52.47C158.12 53.11 158.12 43.05 152.19 43.68V43.1C148.76 43.36 146.27 46.42 147.5 49.54C147.59 52.19 150.25 52.26 152.19 53.06Z" fill="#0077B8"/>
<path d="M110.58 67.13C112.43 65.22 112.98 63.21 112.34 60.13C111.938 59.9797 111.572 59.7448 111.269 59.4412C110.965 59.1375 110.73 58.7722 110.58 58.37C110.078 58.4757 109.559 58.4788 109.056 58.3791C108.552 58.2794 108.074 58.079 107.65 57.79C106.24 58.52 104.54 58.97 103.55 60.13C102.91 63.25 103.45 65.26 105.31 67.13C107.057 67.39 108.833 67.39 110.58 67.13Z" fill="#0077B8"/>
<path d="M139.88 67.13C141.74 65.22 142.28 63.21 141.64 60.13C141.238 59.9797 140.872 59.7448 140.569 59.4412C140.265 59.1375 140.03 58.7722 139.88 58.37C139.378 58.4757 138.859 58.4788 138.356 58.3791C137.852 58.2794 137.374 58.079 136.95 57.79C135.54 58.52 133.84 58.97 132.85 60.13C132.21 63.25 132.75 65.26 134.61 67.13C136.357 67.39 138.133 67.39 139.88 67.13Z" fill="#0077B8"/>
<path d="M97.69 74.74C97.3606 74.6143 97.056 74.4315 96.79 74.2C96.1633 76.6977 95.7452 79.2431 95.54 81.81H95.93C97.78 79.87 98.33 77.87 97.69 74.74Z" fill="#0077B8"/>
<path d="M125.23 81.77C127.09 79.87 127.63 77.87 126.99 74.77C126.588 74.6197 126.222 74.3847 125.919 74.0811C125.615 73.7775 125.38 73.4122 125.23 73.01C124.728 73.1157 124.209 73.1188 123.706 73.0191C123.202 72.9194 122.724 72.719 122.3 72.43C120.89 73.17 119.19 73.61 118.2 74.77C117.56 77.9 118.1 79.9 119.96 81.77C121.706 82.0399 123.484 82.0399 125.23 81.77Z" fill="#0077B8"/>
<path d="M152.19 82.36V81.77C158.12 82.41 158.12 72.35 152.19 72.98V72.4C148.76 72.67 146.27 75.72 147.5 78.85C147.59 81.5 150.25 81.56 152.19 82.36Z" fill="#0077B8"/>
<path d="M110.58 96.43C112.43 94.52 112.98 92.51 112.34 89.43C111.936 89.2849 111.57 89.0529 111.266 88.7505C110.961 88.4482 110.727 88.0827 110.58 87.68C110.077 87.7842 109.558 87.7857 109.055 87.6843C108.551 87.5829 108.073 87.3808 107.65 87.09C106.24 87.83 104.54 88.27 103.55 89.43C102.91 92.56 103.45 94.56 105.31 96.43C107.057 96.69 108.833 96.69 110.58 96.43Z" fill="#0077B8"/>
<path d="M141.05 95.84C141.602 94.7296 141.999 93.5485 142.23 92.33C142.47 90.91 141.16 91.05 141.64 89.39C141.239 89.2408 140.874 89.0074 140.571 88.7056C140.267 88.4037 140.032 88.0404 139.88 87.64C138.43 88.4 137.04 86.33 136.95 87.64H134.61C133.55 89.12 132.19 90.29 132.26 92.91C132.86 93.68 132.84 95.07 133.44 95.84C134.585 96.5409 135.902 96.9118 137.245 96.9118C138.588 96.9118 139.905 96.5409 141.05 95.84Z" fill="#0077B8"/>
<path d="M97.69 104.05C97.2878 103.9 96.9225 103.665 96.6189 103.361C96.3152 103.058 96.0803 102.692 95.93 102.29H95.37V111.1H95.93C97.78 109.17 98.33 107.16 97.69 104.05Z" fill="#0077B8"/>
<path d="M124.64 111.66C127.44 110.34 128.36 106.73 126.99 103.46C123.65 99.9 115.73 101.82 117.61 108.73C118.84 110.83 121 112 124.64 111.66Z" fill="#0077B8"/>
<path d="M39.08 104.05C38.3219 103.261 37.3569 102.702 36.2957 102.437C35.2345 102.172 34.12 102.211 33.08 102.55L31.78 103.2C30.23 104.28 29.36 106.32 30.28 109.32C33.38 113.09 41 111.69 39.08 104.05Z" fill="#0077B8"/>
<path d="M59.59 109.32C61.5 111.18 63.51 111.72 66.59 111.08C67.2107 110.528 67.7075 109.851 68.0477 109.094C68.3879 108.336 68.5638 107.515 68.5638 106.685C68.5638 105.855 68.3879 105.034 68.0477 104.276C67.7075 103.519 67.2107 102.842 66.59 102.29C64.99 102.65 61.94 101.54 61.31 102.87C59 103.26 59.65 106.64 59.59 109.32Z" fill="#0077B8"/>
<path d="M44.94 124.56C46.67 126.93 51.94 126.98 53.73 124.56C53.99 124.2 53.64 123.32 54.32 123.38C54.83 120.53 53.52 119.5 53.15 117.53C50.39 116.3 48.45 116.53 45.53 117.53C45.16 119.53 43.84 120.53 44.36 123.38C45.12 123.29 44.65 124.16 44.94 124.56Z" fill="#0077B8"/>
<path d="M81.28 125.73C83.13 123.82 83.68 121.82 83.03 118.73C82.6296 118.578 82.2663 118.343 81.9645 118.039C81.6626 117.736 81.4292 117.371 81.28 116.97C80.7771 117.074 80.2583 117.076 79.7547 116.974C79.2512 116.873 78.7734 116.671 78.35 116.38C76.94 117.12 75.23 117.57 74.24 118.73C73.6 121.85 74.15 123.85 76 125.73C77.7497 126 79.5304 126 81.28 125.73Z" fill="#0077B8"/>
<path d="M103.55 118.7C103.09 121.59 103.38 122.46 104.13 125.14C105.313 125.732 106.617 126.041 107.94 126.041C109.263 126.041 110.567 125.732 111.75 125.14C111.9 123.23 113.01 122.49 112.92 121.04C112.65 116.47 106.33 115.16 103.55 118.7Z" fill="#0077B8"/>
<path d="M132.26 123.38C132.72 123.51 132.94 123.88 132.85 124.56C136.8 129.04 145.17 124.56 141.64 118.11C138.31 114.55 130.38 116.48 132.26 123.38Z" fill="#0077B8"/>
<path d="M15.64 124C17.54 125.86 19.55 126.4 22.64 125.76C23.2607 125.208 23.7575 124.531 24.0977 123.774C24.4379 123.016 24.6138 122.195 24.6138 121.365C24.6138 120.535 24.4379 119.714 24.0977 118.956C23.7575 118.199 23.2607 117.522 22.64 116.97C21.05 117.33 17.99 116.22 17.37 117.56C15.05 117.91 15.7 121.29 15.64 124Z" fill="#0077B8"/>
<path d="M29.7 138C30.16 138.13 30.39 138.49 30.29 139.17C34.29 143.65 42.61 139.17 39.08 132.72C35.74 129.2 27.83 131.13 29.7 138Z" fill="#0077B8"/>
<path d="M59.59 139.21C60.7649 140.07 62.1589 140.581 63.6114 140.684C65.0639 140.786 66.5158 140.476 67.8 139.79C68.483 138.506 68.7899 137.056 68.6855 135.605C68.5812 134.155 68.0697 132.763 67.21 131.59C61.68 129.27 57.28 133.68 59.59 139.21Z" fill="#0077B8"/>
<path d="M97.69 139.21C98.69 137.21 98.09 134.91 97.69 132.76C96.8912 132.438 96.1159 132.06 95.37 131.63V140.63C96.2772 140.422 97.0917 139.923 97.69 139.21Z" fill="#0077B8"/>
<path d="M88.9 139.21C90.06 140.82 93.06 141.31 95.33 140.67C95.2364 137.454 94.7904 134.258 94 131.14C93.7191 131.063 93.4226 131.065 93.1424 131.144C92.8622 131.223 92.609 131.377 92.41 131.59C90.75 131.11 90.89 132.42 89.48 132.18C89.11 134.18 87.8 135.18 88.31 138.04C88.77 138.17 89 138.53 88.9 139.21Z" fill="#0077B8"/>
<path d="M121.13 131C121.13 131 120.9 131.5 120.54 131.59C117.89 132.25 117.77 134.21 117.61 136.86C118.21 137.63 118.19 139.03 118.78 139.79C121.39 141.79 125.27 140.69 126.99 138.62C127.45 135.73 127.15 134.86 126.4 132.18C124.72 131.71 123 130.71 121.13 131Z" fill="#0077B8"/>
<path d="M9.08997 132.66C8.5319 135.176 8.19727 137.736 8.08997 140.31C10.4 138.93 10.35 134.75 9.08997 132.66Z" fill="#0077B8"/>
<path d="M15.64 153.27C17.73 155.57 20.7 155.71 23.84 154.44C24.61 152.02 25.4 150.16 24.43 147.44C20.17 143.66 13.36 147.26 15.64 153.27Z" fill="#0077B8"/>
<path d="M44.36 152.69C44.81 152.82 45.04 153.18 44.94 153.86C48.94 158.11 57.19 153.97 53.73 147.41C50.4 143.85 42.47 145.78 44.36 152.69Z" fill="#0077B8"/>
<path d="M73.66 152.69C74.12 152.82 74.34 153.18 74.24 153.86C78.24 158.34 86.57 153.86 83.03 147.41C79.7 143.85 71.78 145.78 73.66 152.69Z" fill="#0077B8"/>
<path d="M111.75 154.44C112.52 152.02 113.3 150.16 112.34 147.44C110.61 145.75 107.55 145.33 104.72 146.27C102.58 148.27 102.89 151.75 104.13 154.47C105.314 155.062 106.62 155.368 107.944 155.363C109.267 155.357 110.571 155.041 111.75 154.44Z" fill="#0077B8"/>
<path d="M139.88 155C141.74 153.1 142.28 151.09 141.64 148C141.238 147.85 140.872 147.615 140.569 147.311C140.265 147.008 140.03 146.642 139.88 146.24C139.377 146.347 138.858 146.349 138.354 146.248C137.85 146.146 137.372 145.943 136.95 145.65C135.54 146.4 133.84 146.84 132.85 148C132.21 151.12 132.75 153.13 134.61 155C136.356 155.27 138.134 155.27 139.88 155Z" fill="#0077B8"/>
<path d="M8.07001 161.31V169.62C9.88001 167.74 10.41 165.74 9.78 162.62C9.30357 162.073 8.72206 161.628 8.07001 161.31Z" fill="#0077B8"/>
<path d="M39.08 162.65C38.6777 162.5 38.3125 162.265 38.0088 161.961C37.7052 161.657 37.4703 161.292 37.32 160.89C36.8177 160.995 36.2993 160.998 35.7959 160.898C35.2925 160.799 34.8144 160.599 34.39 160.31C32.98 161.05 31.28 161.49 30.29 162.65C29.65 165.77 30.19 167.78 32.05 169.65C33.7963 169.92 35.5737 169.92 37.32 169.65C39.18 167.78 39.72 165.77 39.08 162.65Z" fill="#0077B8"/>
<path d="M66.63 160.89C66.1278 160.996 65.6093 160.999 65.1058 160.899C64.6023 160.799 64.1242 160.599 63.7 160.31C62.28 161.05 60.58 161.49 59.59 162.65C58.95 165.77 59.5 167.78 61.35 169.65C63.0997 169.92 64.8804 169.92 66.63 169.65C68.48 167.75 69.02 165.74 68.38 162.65C67.9773 162.503 67.6119 162.269 67.3095 161.964C67.0071 161.66 66.7752 161.294 66.63 160.89Z" fill="#0077B8"/>
<path d="M97.69 162.65C97.2878 162.5 96.9225 162.265 96.6189 161.961C96.3152 161.657 96.0803 161.292 95.93 160.89C95.4277 160.996 94.9093 160.999 94.4058 160.899C93.9023 160.799 93.4241 160.599 93 160.31C91.59 161.05 89.88 161.49 88.9 162.65C88.25 165.77 88.8 167.78 90.65 169.65C92.3996 169.92 94.1803 169.92 95.93 169.65C97.78 167.78 98.33 165.77 97.69 162.65Z" fill="#0077B8"/>
<path d="M127 162.65C126.598 162.5 126.233 162.265 125.929 161.961C125.625 161.657 125.39 161.292 125.24 160.89C124.738 160.996 124.219 160.999 123.716 160.899C123.212 160.799 122.734 160.599 122.31 160.31C120.9 161.05 119.2 161.49 118.21 162.65C117.57 165.77 118.11 167.78 119.97 169.65C121.716 169.92 123.494 169.92 125.24 169.65C127.09 167.78 127.63 165.77 127 162.65Z" fill="#0077B8"/>
<path d="M22.09 175.55C19.04 174.8 14.96 175.55 15.64 180.23C15.39 182.63 16.88 183.29 17.98 184.34H20.91C23.02 183.9 24.83 183.17 24.43 180.23C24.6848 179.299 24.5869 178.306 24.1551 177.442C23.7233 176.579 22.9879 175.905 22.09 175.55Z" fill="#0077B8"/>
<path d="M51.39 175.55C48.39 174.8 44.26 175.55 44.94 180.23C44.69 182.63 46.18 183.29 47.29 184.34H50.8C52.52 183.71 53.87 182.71 53.73 180.23C53.9871 179.299 53.8903 178.305 53.4582 177.441C53.0261 176.577 52.2894 175.903 51.39 175.55Z" fill="#0077B8"/>
<path d="M77.18 175.55C75 175.92 73.91 177.35 74.24 180.23C73.61 186.16 83.67 186.16 83.03 180.23H83.62C83.36 176.8 80.3 174.31 77.18 175.55Z" fill="#0077B8"/>
<path d="M139.3 175.55C135.69 174.37 132.64 176.49 132.3 180.23H132.89C132.26 186.16 142.31 186.16 141.68 180.23H142.27C141.54 178.38 141.27 176.11 139.3 175.55Z" fill="#0077B8"/>
<path d="M112.34 180.23H112.92C112.24 178.38 111.97 176.11 109.99 175.55C106.39 174.37 103.34 176.49 102.99 180.23H103.58C102.91 186.16 113 186.16 112.34 180.23Z" fill="#0077B8"/>
<path d="M97.69 192C97.2868 191.849 96.9209 191.612 96.6172 191.307C96.3135 191.001 96.0791 190.634 95.93 190.23C95.4277 190.336 94.9093 190.339 94.4058 190.239C93.9023 190.139 93.4241 189.939 93 189.65C91.59 190.39 89.88 190.83 88.9 192C88.25 195.12 88.8 197.12 90.65 199C92.4004 199.26 94.1796 199.26 95.93 199C97.78 197.08 98.33 195.08 97.69 192Z" fill="#0077B8"/>
<path d="M127 192C126.597 191.849 126.231 191.612 125.927 191.307C125.624 191.001 125.389 190.634 125.24 190.23C124.738 190.336 124.219 190.339 123.716 190.239C123.212 190.139 122.734 189.939 122.31 189.65C120.9 190.39 119.2 190.83 118.21 192C117.57 195.12 118.11 197.12 119.97 199C121.717 199.26 123.493 199.26 125.24 199C127.09 197.08 127.63 195.08 127 192Z" fill="#0077B8"/>
<path d="M147.5 192.54V196.05C148.15 197.95 149.37 199.27 152.19 198.99C155.59 199.07 156.63 196.78 156.29 193.13C155.9 191.13 154.79 189.94 152.19 190.19V189.61C150.33 190.3 148.06 190.56 147.5 192.54Z" fill="#0077B8"/>
<path d="M9.19 191.37C8.85516 191.09 8.47683 190.867 8.07001 190.71V198.51C8.48562 198.352 8.86617 198.115 9.19 197.81C9.98432 195.737 9.98432 193.443 9.19 191.37Z" fill="#0077B8"/>
<path d="M30.29 194.88C30.54 196 31.55 196.35 31.46 197.81C34.02 198.58 34.41 198.86 37.32 198.4C38.4233 197.083 39.0442 195.428 39.08 193.71C38.43 188.91 29.74 189.18 30.29 194.88Z" fill="#0077B8"/>
<path d="M61.35 190.78C59.09 191.45 59.35 195.78 60.18 197.78C62.18 199.66 66.96 199.17 68.38 197.2V192C67.43 190.32 63.49 189.37 61.35 190.78Z" fill="#0077B8"/>
<path d="M110.58 213.64C112.43 211.74 112.98 209.73 112.34 206.64C111.935 206.494 111.567 206.261 111.263 205.957C110.959 205.653 110.726 205.285 110.58 204.88C110.078 204.988 109.559 204.992 109.055 204.893C108.551 204.793 108.073 204.591 107.65 204.3C106.24 205.04 104.54 205.48 103.55 206.64C102.91 209.77 103.45 211.78 105.31 213.64C107.057 213.9 108.833 213.9 110.58 213.64Z" fill="#0077B8"/>
<path d="M23.26 206C20.85 204.64 18.13 204.71 16.26 206.58C16.75 208.24 15.44 208.1 15.68 209.52C15.93 210.63 16.94 210.99 16.85 212.44C19.54 213.44 20.61 213.44 23.3 212.44C24.29 209.78 24.29 208.7 23.26 206Z" fill="#0077B8"/>
<path d="M52.56 212.46C53.56 209.78 53.56 208.7 52.56 206.02C49.88 205.02 48.8 205.02 46.11 206.02C45.11 208.7 45.11 209.78 46.11 212.46C48.8 213.49 49.88 213.49 52.56 212.46Z" fill="#0077B8"/>
<path d="M81.28 204.84C75.16 203.28 72.91 207.84 74.83 212.46C76.2 213.63 78.56 213.81 81.28 213.64C81.9009 213.087 82.3979 212.41 82.7382 211.651C83.0785 210.893 83.2544 210.071 83.2544 209.24C83.2544 208.409 83.0785 207.587 82.7382 206.829C82.3979 206.07 81.9009 205.393 81.28 204.84Z" fill="#0077B8"/>
<path d="M140.47 213.05C142.34 211.05 141.85 206.27 139.88 204.84C133.73 203.68 131.63 207.32 132.88 211.84C134.21 213.59 137.93 214.25 140.47 213.05Z" fill="#0077B8"/>
<path d="M97.69 221.25C97.1366 220.632 96.4592 220.138 95.7019 219.799C94.9446 219.461 94.1245 219.286 93.295 219.286C92.4656 219.286 91.6454 219.461 90.8881 219.799C90.1308 220.138 89.4534 220.632 88.9 221.25C88.6914 223.226 88.8888 225.223 89.48 227.12C90.86 228.28 93.21 228.47 95.93 228.29C97.78 226.39 98.33 224.38 97.69 221.25Z" fill="#0077B8"/>
<path d="M125.23 228.29C127.23 226.86 127.69 222.06 125.82 220.08C125.07 219.27 123.05 219.73 122.3 218.91C120.89 219.65 119.19 220.1 118.2 221.25C117.94 223 117.94 224.78 118.2 226.53C120.1 228.38 122.11 228.93 125.23 228.29Z" fill="#0077B8"/>
<path d="M8.61 220.67L8.07001 220.48V227.31L8.61 227.12C9.63 224.43 9.63 223.36 8.61 220.67Z" fill="#0077B8"/>
<path d="M37.91 220.67C35.23 219.67 34.15 219.67 31.46 220.67C30.46 223.36 30.46 224.43 31.46 227.12C34.15 228.12 35.23 228.12 37.91 227.12C38.94 224.43 38.94 223.36 37.91 220.67Z" fill="#0077B8"/>
<path d="M68.38 223C67.62 220.09 64.7 218.8 61.38 220.07C60.8375 220.462 60.3865 220.966 60.0582 221.549C59.73 222.132 59.5322 222.78 59.4787 223.446C59.4251 224.113 59.5171 224.784 59.7482 225.412C59.9792 226.04 60.3439 226.61 60.817 227.083C61.2901 227.556 61.8603 227.921 62.4882 228.152C63.1161 228.383 63.7866 228.475 64.4535 228.421C65.1204 228.368 65.7677 228.17 66.3507 227.842C66.9337 227.513 67.4384 227.062 67.83 226.52C67.37 224.74 68.81 224.81 68.38 223Z" fill="#0077B8"/>
<path d="M152.19 228.29C153.31 228.04 153.66 227.02 155.12 227.12C155.44 226.12 155.42 224.68 156.29 224.19C155.43 222.32 155.29 219.67 152.19 220.08V219.5C149.83 220.07 148.07 221.24 147.5 223.6C147.491 224.218 147.605 224.833 147.838 225.406C148.07 225.979 148.415 226.5 148.853 226.937C149.29 227.375 149.811 227.72 150.384 227.952C150.957 228.185 151.571 228.299 152.19 228.29Z" fill="#0077B8"/>
<path d="M105.31 242.94C107.056 243.21 108.834 243.21 110.58 242.94C112.43 241.03 112.98 239.03 112.34 235.94C111.938 235.79 111.572 235.555 111.269 235.251C110.965 234.948 110.73 234.582 110.58 234.18C110.078 234.286 109.559 234.289 109.056 234.189C108.552 234.089 108.074 233.889 107.65 233.6C106.24 234.33 104.54 234.78 103.55 235.94C102.91 239 103.45 241 105.31 242.94Z" fill="#0077B8"/>
<path d="M16.81 235.32C15.81 238.01 15.81 239.09 16.81 241.77C19.5 242.77 20.57 242.77 23.26 241.77C24.26 239.09 24.26 238.01 23.26 235.32C20.57 234.3 19.5 234.3 16.81 235.32Z" fill="#0077B8"/>
<path d="M46.11 241.77C48.8 242.77 49.88 242.77 52.56 241.77C53.56 239.09 53.56 238.01 52.56 235.32C49.88 234.32 48.8 234.32 46.11 235.32C45.09 238 45.09 239.09 46.11 241.77Z" fill="#0077B8"/>
<path d="M76.59 234.74C75.9021 235.212 75.3057 235.805 74.83 236.49C74.26 237.96 74.83 240.06 75.42 241.77C77.98 242.54 78.36 242.77 81.28 242.36C82.0531 241.499 82.5719 240.44 82.7784 239.301C82.985 238.162 82.8713 236.988 82.45 235.91C81.6879 235.174 80.7305 234.673 79.6916 234.465C78.6528 234.258 77.5762 234.353 76.59 234.74Z" fill="#0077B8"/>
<path d="M132.85 241.18C133.401 241.802 134.077 242.3 134.835 242.641C135.593 242.982 136.414 243.159 137.245 243.159C138.076 243.159 138.897 242.982 139.655 242.641C140.413 242.3 141.089 241.802 141.64 241.18C141.845 239.207 141.644 237.213 141.05 235.32C136 231.93 130.75 236 132.85 241.18Z" fill="#0077B8"/>
<path d="M120 257.59C121.746 257.86 123.524 257.86 125.27 257.59C127.13 255.69 127.67 253.68 127.03 250.59C126.628 250.44 126.262 250.205 125.959 249.901C125.655 249.597 125.42 249.232 125.27 248.83C124.767 248.937 124.248 248.939 123.744 248.838C123.24 248.736 122.762 248.533 122.34 248.24C120.93 248.98 119.23 249.43 118.24 250.59C117.56 253.68 118.1 255.69 120 257.59Z" fill="#0077B8"/>
<path d="M8.61 250L8.07001 249.81V256.64L8.61 256.45C9.63 253.74 9.63 252.66 8.61 250Z" fill="#0077B8"/>
<path d="M31.46 250C30.46 252.69 30.46 253.77 31.46 256.45C34.15 257.45 35.23 257.45 37.91 256.45C38.91 253.77 38.91 252.69 37.91 250C35.23 249 34.15 249 31.46 250Z" fill="#0077B8"/>
<path d="M60.77 250C59.77 252.69 59.77 253.77 60.77 256.45C63.45 257.45 64.53 257.45 67.21 256.45C68.21 253.77 68.21 252.69 67.21 250C64.53 249 63.45 249 60.77 250Z" fill="#0077B8"/>
<path d="M88.9 253.49C89.14 257.38 94.14 258.55 97.1 256.42C97.8903 254.343 97.8903 252.047 97.1 249.97C94.2 247.58 88.42 249 88.9 253.49Z" fill="#0077B8"/>
<path d="M152.19 257.59C158.12 258.22 158.12 248.17 152.19 248.8C151.256 248.543 150.26 248.641 149.394 249.075C148.528 249.509 147.853 250.248 147.5 251.15C146.75 254.19 147.54 258.28 152.19 257.59Z" fill="#0077B8"/>
<path d="M139.88 263.45C138.43 264.21 137.04 262.15 136.95 263.45C134.4 262.85 134.26 264.67 132.85 265.21C132.1 268.49 132.66 270.9 134.61 272.83C139.92 274.38 143.14 270.59 141.61 265.21C141.213 265.056 140.854 264.82 140.556 264.516C140.257 264.213 140.027 263.849 139.88 263.45Z" fill="#0077B8"/>
<path d="M15.64 271.07C16.1917 271.691 16.8686 272.188 17.6261 272.528C18.3836 272.868 19.2046 273.044 20.035 273.044C20.8654 273.044 21.6864 272.868 22.444 272.528C23.2015 272.188 23.8783 271.691 24.43 271.07C24.85 268.07 23.63 266.79 23.26 264.62C20.57 263.62 19.5 263.62 16.81 264.62C16.44 266.79 15.22 268.11 15.64 271.07Z" fill="#0077B8"/>
<path d="M45.53 271.65C47.15 273.23 51.53 273.23 53.15 271.65C54.44 269.24 53.15 266.85 52.56 264.65C49.88 263.65 48.8 263.65 46.11 264.65C45.54 266.85 44.24 269.24 45.53 271.65Z" fill="#0077B8"/>
<path d="M81.86 264.62C79.18 263.62 78.1 263.62 75.42 264.62C74.85 266.85 73.54 269.24 74.83 271.62C76.7 273.39 81.83 273.25 83.03 271.04C82.9281 270.537 82.9278 270.019 83.0291 269.515C83.1304 269.012 83.3313 268.534 83.62 268.11C82.2 267.8 82.32 265.93 81.86 264.62Z" fill="#0077B8"/>
<path d="M103.55 271.07C105.45 272.92 107.46 273.47 110.55 272.83C111.194 272.23 111.707 271.504 112.058 270.697C112.409 269.89 112.591 269.02 112.591 268.14C112.591 267.26 112.409 266.39 112.058 265.583C111.707 264.776 111.194 264.05 110.55 263.45C104.24 262.26 102.46 266.51 103.55 271.07Z" fill="#0077B8"/>
<path d="M97.69 286.31C100.4 279.72 92.89 275.79 88.9 280.45C86.62 286.47 93.42 290.07 97.69 286.31Z" fill="#0077B8"/>
<path d="M127 286.31C127.58 284.4 127.58 282.36 127 280.45C125.8 279.67 123.35 277.1 121.73 278.69C119.88 278.41 119.43 279.52 118.21 279.86C117.8 282.01 117.21 284.32 118.21 286.31C119.87 288.62 125.32 288.62 127 286.31Z" fill="#0077B8"/>
<path d="M8.07001 282.25C8.17001 283.85 8.32 285.44 8.5 287.03C9.5323 285.869 10.0659 284.348 9.98547 282.797C9.905 281.245 9.21688 279.788 8.07001 278.74V282.25Z" fill="#0077B8"/>
<path d="M30.29 285.72C30.67 286.52 31.96 286.24 32.05 287.48C34.77 287.66 37.12 287.48 38.5 286.31C39.2903 284.233 39.2903 281.937 38.5 279.86C33.16 275.81 28.21 281.34 30.29 285.72Z" fill="#0077B8"/>
<path d="M59.59 285.72C60.81 287.44 63.4 287.78 66.59 287.48C68.29 286.12 68.9501 282.4 67.7601 279.86C63.9201 277 57.74 279.26 59.59 285.72Z" fill="#0077B8"/>
<path d="M24.43 295.1C23.8783 294.479 23.2015 293.982 22.4439 293.642C21.6864 293.302 20.8654 293.126 20.035 293.126C19.2046 293.126 18.3836 293.302 17.6261 293.642C16.8685 293.982 16.1917 294.479 15.64 295.1C15 298.22 15.54 300.23 17.4 302.1H22.67C24.39 300.91 24.73 298.33 24.43 295.1Z" fill="#0077B8"/>
<path d="M103 299.79C103.46 299.92 103.68 300.28 103.59 300.96C107.54 305.44 115.91 300.96 112.38 294.51C109 291 101.08 292.88 103 299.79Z" fill="#0077B8"/>
<path d="M135.78 293.34C134.686 293.705 133.686 294.306 132.85 295.1C131.73 297.1 133.16 299.18 133.44 301.55C135.44 301.92 136.44 303.23 139.3 302.72C142.21 301.27 142.78 298.16 141.64 294.51C140.81 293.895 139.854 293.471 138.841 293.268C137.828 293.066 136.783 293.091 135.78 293.34Z" fill="#0077B8"/>
<path d="M45.53 301C46.9 302.17 49.26 302.35 51.98 302.17C52.6007 301.618 53.0975 300.942 53.4377 300.184C53.7779 299.426 53.9538 298.605 53.9538 297.775C53.9538 296.945 53.7779 296.124 53.4377 295.366C53.0975 294.609 52.6007 293.932 51.98 293.38C46 291.94 43.55 296.28 45.53 301Z" fill="#0077B8"/>
<path d="M81.28 302.13C81.9007 301.578 82.3975 300.901 82.7377 300.144C83.0779 299.386 83.2538 298.565 83.2538 297.735C83.2538 296.905 83.0779 296.084 82.7377 295.326C82.3975 294.569 81.9007 293.892 81.28 293.34C79.69 293.7 76.63 292.6 76 293.93C73.66 294.32 74.3 297.7 74.24 300.38C76.15 302.23 78.16 302.77 81.28 302.13Z" fill="#0077B8"/>
<path d="M66.63 308C66.1278 308.106 65.6093 308.109 65.1058 308.009C64.6023 307.909 64.1242 307.709 63.7 307.42C62.28 308.15 60.58 308.6 59.59 309.76C58.95 312.88 59.5 314.89 61.35 316.76C63.1005 317.02 64.8796 317.02 66.63 316.76C68.48 314.85 69.02 312.84 68.38 309.76C67.9773 309.613 67.6119 309.379 67.3095 309.074C67.0071 308.77 66.7752 308.404 66.63 308Z" fill="#0077B8"/>
<path d="M95.34 307.41C92.49 306.9 91.4501 308.21 89.4801 308.58C88.6301 311.16 88.33 312.03 88.9 315.03C89.8461 316.055 91.0792 316.772 92.4385 317.086C93.7978 317.4 95.2202 317.296 96.52 316.79C98.13 315.22 99.14 311.56 97.69 309.17C97.05 308.13 95.81 308.49 95.34 307.41Z" fill="#0077B8"/>
<path d="M117.61 314.44C118.07 314.57 118.3 314.93 118.2 315.61C122.15 320.1 130.52 315.61 126.99 309.17C123.65 305.6 115.73 307.53 117.61 314.44Z" fill="#0077B8"/>
<path d="M30.29 315C33.38 318.76 41.03 317.37 39.08 309.72C35.86 306.21 28.13 308 30.29 315Z" fill="#0077B8"/>
<path d="M52 322.64C51.4962 322.746 50.976 322.75 50.4708 322.65C49.9655 322.551 49.4857 322.35 49.06 322.06C47.65 322.79 45.95 323.24 44.96 324.4C44.32 327.52 44.87 329.53 46.72 331.4C48.4697 331.67 50.2504 331.67 52 331.4C53.85 329.5 54.39 327.49 53.75 324.4C53.3473 324.253 52.9819 324.019 52.6795 323.714C52.3771 323.41 52.1451 323.044 52 322.64Z" fill="#0077B8"/>
<path d="M81.28 322.64C80.7777 322.746 80.2593 322.749 79.7558 322.649C79.2523 322.549 78.7741 322.349 78.35 322.06C76.94 322.79 75.23 323.24 74.24 324.4C73.6 327.52 74.15 329.53 76 331.4C77.7497 331.67 79.5304 331.67 81.28 331.4C83.13 329.5 83.68 327.49 83.03 324.4C82.6296 324.249 82.2663 324.013 81.9645 323.709C81.6626 323.406 81.4292 323.041 81.28 322.64Z" fill="#0077B8"/>
<path d="M103 329.09C103.46 329.22 103.68 329.58 103.59 330.26C107.54 334.75 115.91 330.26 112.38 323.82C109 320.25 101.08 322.18 103 329.09Z" fill="#0077B8"/>
<path d="M139.88 322.64C139.378 322.746 138.859 322.749 138.356 322.649C137.852 322.549 137.374 322.349 136.95 322.06C135.54 322.79 133.84 323.24 132.85 324.4C132.21 327.52 132.75 329.53 134.61 331.4C136.356 331.67 138.134 331.67 139.88 331.4C141.74 329.5 142.28 327.49 141.64 324.4C141.238 324.25 140.872 324.015 140.569 323.711C140.265 323.407 140.03 323.042 139.88 322.64Z" fill="#0077B8"/>
<path d="M22.67 322.64C21.3902 322.391 20.0729 322.408 18.8 322.69C20.1333 325.49 21.5733 328.263 23.12 331.01C23.6421 330.432 24.0448 329.756 24.3049 329.022C24.565 328.288 24.6774 327.509 24.6355 326.731C24.5937 325.954 24.3985 325.192 24.0612 324.49C23.7239 323.787 23.2511 323.159 22.67 322.64Z" fill="#0077B8"/>
<path d="M37.32 337.29C36.8177 337.395 36.2994 337.398 35.796 337.298C35.2926 337.199 34.8144 336.999 34.39 336.71C32.98 337.45 31.28 337.89 30.29 339.05C30.0813 340.005 30.0073 340.985 30.07 341.96C31.07 343.38 32.07 344.8 33.15 346.19C34.5388 346.337 35.9409 346.3 37.32 346.08C39.18 344.18 39.72 342.18 39.08 339.08C38.6748 338.926 38.3076 338.687 38.0038 338.378C37.6999 338.069 37.4667 337.698 37.32 337.29Z" fill="#0077B8"/>
<path d="M66.63 337.29C66.1278 337.396 65.6093 337.399 65.1058 337.299C64.6023 337.199 64.1242 336.999 63.7 336.71C62.28 337.45 60.58 337.89 59.59 339.05C58.95 342.18 59.5 344.18 61.35 346.05C63.0997 346.32 64.8804 346.32 66.63 346.05C68.48 344.15 69.02 342.15 68.38 339.05C67.9763 338.904 67.6099 338.671 67.3072 338.367C67.0046 338.062 66.7733 337.695 66.63 337.29Z" fill="#0077B8"/>
<path d="M95.93 337.29C95.4277 337.396 94.9093 337.399 94.4058 337.299C93.9023 337.199 93.4241 336.999 93 336.71C91.59 337.45 89.88 337.89 88.9 339.05C88.25 342.18 88.8 344.18 90.65 346.05C92.3996 346.32 94.1803 346.32 95.93 346.05C97.78 344.15 98.33 342.15 97.69 339.05C97.2851 338.904 96.9173 338.671 96.6131 338.367C96.3088 338.063 96.0756 337.695 95.93 337.29Z" fill="#0077B8"/>
<path d="M118.2 339.05C116.93 341.35 118.26 344.05 119.96 346.05H125.23C127.09 344.15 127.63 342.15 126.99 339.05C124.51 336.12 119.46 336.78 118.2 339.05Z" fill="#0077B8"/>
<path d="M52 352C51.4954 352.102 50.9754 352.103 50.4706 352.001C49.9657 351.9 49.4862 351.699 49.06 351.41C47.65 352.15 45.95 352.59 44.96 353.75C44.32 356.87 44.87 358.88 46.72 360.75C48.4705 361.01 50.2496 361.01 52 360.75C53.85 358.84 54.39 356.84 53.75 353.75C53.3476 353.605 52.9822 353.373 52.6797 353.07C52.3772 352.768 52.1452 352.402 52 352Z" fill="#0077B8"/>
<path d="M81.28 352C80.777 352.102 80.2586 352.102 79.7554 352.001C79.2522 351.9 78.7744 351.699 78.35 351.41C76.94 352.15 75.23 352.59 74.24 353.75C73.6 356.87 74.15 358.88 76 360.75C77.7504 361.01 79.5296 361.01 81.28 360.75C83.13 358.84 83.68 356.84 83.03 353.75C82.6286 353.603 82.2641 353.37 81.9619 353.068C81.6597 352.766 81.427 352.401 81.28 352Z" fill="#0077B8"/>
<path d="M103.55 353.7C102.91 356.82 103.45 358.83 105.31 360.7C107.283 360.9 109.276 360.699 111.17 360.11C112.33 358.74 112.51 356.38 112.34 353.66C111.784 353.045 111.104 352.553 110.345 352.219C109.586 351.884 108.766 351.712 107.936 351.716C107.107 351.72 106.287 351.899 105.531 352.24C104.776 352.582 104.101 353.08 103.55 353.7Z" fill="#0077B8"/>
<path d="M132.85 353.7C132.644 355.676 132.845 357.674 133.44 359.57C134.81 360.73 137.17 360.92 139.88 360.74C141.74 358.83 142.28 356.83 141.64 353.74C141.089 353.12 140.414 352.622 139.658 352.28C138.903 351.939 138.083 351.76 137.254 351.756C136.424 351.752 135.604 351.924 134.845 352.259C134.086 352.593 133.406 353.085 132.85 353.7Z" fill="#0077B8"/>
<path d="M66.63 366.6C66.127 366.704 65.6082 366.706 65.1047 366.604C64.6012 366.503 64.1234 366.301 63.7 366.01C62.28 366.75 60.58 367.2 59.59 368.36C59.1546 369.969 59.2457 371.676 59.85 373.23C60.85 374 61.85 374.77 62.85 375.53C64.1145 375.627 65.386 375.58 66.64 375.39C68.49 373.48 69.03 371.47 68.39 368.39C67.9847 368.236 67.6176 367.997 67.3137 367.688C67.0099 367.379 66.7766 367.008 66.63 366.6Z" fill="#0077B8"/>
<path d="M88.9 368.36C88.41 371.45 88.77 374.36 90.65 375.36C92.87 376.59 95.97 375.22 97.65 373.6V368.33C97.0973 367.716 96.4213 367.226 95.6663 366.892C94.9112 366.557 94.0941 366.386 93.2682 366.389C92.4424 366.391 91.6265 366.568 90.8737 366.908C90.121 367.248 89.4484 367.743 88.9 368.36Z" fill="#0077B8"/>
<path d="M120 367.19C117.74 367.86 118 372.13 118.82 374.19C120.44 375.76 124.82 375.76 126.44 374.19C127.23 372.113 127.23 369.817 126.44 367.74C125.21 366.7 121.65 365.92 120 367.19Z" fill="#0077B8"/>
<path d="M81.28 381.25C80.7772 381.357 80.2579 381.359 79.754 381.258C79.2502 381.156 78.7724 380.953 78.35 380.66C76.94 381.4 75.23 381.85 74.24 383.01C74.24 383.12 74.24 383.23 74.19 383.34C76.9233 385.047 79.72 386.69 82.58 388.27C83.355 386.623 83.5043 384.749 83 383C82.6062 382.846 82.2493 382.61 81.9529 382.309C81.6565 382.007 81.4272 381.646 81.28 381.25Z" fill="#0077B8"/>
<path d="M103.55 383C103.28 384.746 103.28 386.524 103.55 388.27C104.91 389.98 108.63 390.64 111.17 389.44C112.53 388.01 112.71 384.44 111.75 382.44C109.77 380.55 105 381 103.55 383Z" fill="#0077B8"/>
<path d="M134.61 381.84C132.35 382.51 132.61 386.78 133.44 388.84C134.81 390 137.17 390.19 139.88 390.01C141.74 388.1 142.28 386.1 141.64 383.01C140.45 381.61 136.81 380.36 134.61 381.84Z" fill="#0077B8"/>
<path d="M120 396.48C117.91 397.11 118 400.79 118.64 403C120.527 403.527 122.43 404.033 124.35 404.52C125.124 404.382 125.847 404.036 126.44 403.52C127.23 401.443 127.23 399.147 126.44 397.07C125.21 396 121.65 395.22 120 396.48Z" fill="#0077B8"/>
<path d="M51.72 213.34C40.1433 213.34 29.0407 208.741 20.8548 200.555C12.6688 192.369 8.07001 181.267 8.07001 169.69V112.58C8.07001 101.003 12.6688 89.9007 20.8548 81.7148C29.0407 73.5288 40.1433 68.93 51.72 68.93C63.2967 68.93 74.3992 73.5288 82.5852 81.7148C90.7712 89.9007 95.37 101.003 95.37 112.58V169.69C95.37 181.267 90.7712 192.369 82.5852 200.555C74.3992 208.741 63.2967 213.34 51.72 213.34V213.34Z" stroke="#231F20" stroke-width="15" stroke-linecap="round" stroke-linejoin="round"/>
<path d="M381.73 220.87C381.73 225.87 381.543 230.82 381.17 235.72H380.55C377.335 217.218 367.694 200.444 353.324 188.354C338.955 176.264 320.779 169.633 302 169.63H111C107.91 169.631 104.89 170.548 102.321 172.266C99.7525 173.984 97.7511 176.425 96.57 179.28C95.7803 175.069 95.3853 170.794 95.3901 166.51V156.75C95.3887 154.699 95.7915 152.668 96.5754 150.773C97.3593 148.878 98.5089 147.156 99.9586 145.706C101.408 144.255 103.129 143.104 105.024 142.319C106.919 141.534 108.949 141.13 111 141.13H302C323.146 141.135 343.424 149.538 358.375 164.492C373.327 179.445 381.727 199.724 381.73 220.87Z" fill="#FFEF41"/>
<path d="M381.73 220.87C381.73 199.723 373.33 179.443 358.378 164.489C343.426 149.535 323.147 141.133 302 141.13H111C108.949 141.13 106.919 141.534 105.024 142.319C103.129 143.104 101.408 144.255 99.9585 145.706C98.5089 147.156 97.3593 148.878 96.5754 150.773C95.7915 152.668 95.3887 154.699 95.39 156.75V166.52C95.39 184.873 102.681 202.474 115.658 215.452C128.636 228.429 146.237 235.72 164.59 235.72H259.37" stroke="#231F20" stroke-width="15" stroke-linecap="round" stroke-linejoin="round"/>
<path d="M188.29 56.69V141.13" stroke="#231F20" stroke-width="15" stroke-linecap="round" stroke-linejoin="round"/>
<path d="M361.88 168.23V53.12C361.88 42.5564 357.684 32.4255 350.214 24.9559C342.744 17.4864 332.614 13.29 322.05 13.29C311.486 13.29 301.355 17.4864 293.886 24.9559C286.416 32.4255 282.22 42.5564 282.22 53.12V56.69C282.464 50.3699 281.43 44.0656 279.18 38.1547C276.929 32.2437 273.509 26.8477 269.124 22.29C264.739 17.7322 259.479 14.1064 253.659 11.6297C247.84 9.15304 241.58 7.87653 235.255 7.87653C228.93 7.87653 222.67 9.15304 216.851 11.6297C211.031 14.1064 205.771 17.7322 201.386 22.29C197.001 26.8477 193.581 32.2437 191.33 38.1547C189.08 44.0656 188.046 50.3699 188.29 56.69V56.18C188.29 43.858 183.395 32.0408 174.682 23.3278C165.969 14.6149 154.152 9.72003 141.83 9.72003C129.508 9.72003 117.691 14.6149 108.978 23.3278C100.265 32.0408 95.37 43.858 95.37 56.18V112.57C95.37 100.993 90.7712 89.8907 82.5852 81.7048C74.3992 73.5188 63.2967 68.92 51.72 68.92C40.1433 68.92 29.0407 73.5188 20.8548 81.7048C12.6688 89.8907 8.07001 100.993 8.07001 112.57V252.8C8.07001 273.788 12.2039 294.57 20.2356 313.96C28.2673 333.351 40.0395 350.969 54.8802 365.81C69.7208 380.65 87.3393 392.423 106.73 400.454C126.12 408.486 146.902 412.62 167.89 412.62H190C295.91 412.62 381.75 326.77 381.75 220.87C381.774 201.486 374.707 182.763 361.88 168.23V168.23Z" stroke="#231F20" stroke-width="15" stroke-linecap="round" stroke-linejoin="round"/>
<path d="M282.22 56.69V141.13" stroke="#231F20" stroke-width="15" stroke-linecap="round" stroke-linejoin="round"/>
<path d="M258.26 235.72C248.162 235.72 238.163 237.709 228.833 241.574C219.504 245.439 211.027 251.103 203.887 258.244C196.747 265.385 191.084 273.863 187.22 283.192C183.357 292.522 181.369 302.522 181.37 312.62V335.37" stroke="#231F20" stroke-width="15" stroke-linecap="round" stroke-linejoin="round"/>
</svg>
