<svg width="360" height="563" viewBox="0 0 360 563" fill="none" xmlns="http://www.w3.org/2000/svg">
<path d="M318.49 8.76002C313.438 8.04841 308.295 8.33915 303.355 9.61561C298.416 10.8921 293.776 13.1293 289.701 16.1993C285.626 19.2694 282.196 23.1123 279.607 27.5084C277.017 31.9044 275.319 36.7676 274.61 41.82L243.66 254.23L212.83 42.44C212.12 37.3887 210.422 32.5267 207.834 28.1315C205.245 23.7363 201.816 19.8941 197.742 16.8242C193.668 13.7543 189.03 11.5169 184.091 10.2396C179.153 8.96229 174.011 8.67022 168.96 9.38001C163.909 10.0898 159.047 11.7876 154.652 14.3764C150.256 16.9652 146.414 20.3943 143.344 24.4681C137.144 32.6953 134.467 43.0485 135.9 53.25L158.47 213.81C152.476 208.663 145.132 205.344 137.309 204.246C129.485 203.148 121.511 204.317 114.332 207.616C107.153 210.914 101.071 216.203 96.8078 222.854C92.5446 229.505 90.2791 237.24 90.2801 245.14V282.44C90.2801 271.487 85.9288 260.982 78.1835 253.237C70.4383 245.491 59.9335 241.14 48.98 241.14C38.0266 241.14 27.5218 245.491 19.7766 253.237C12.0313 260.982 7.68012 271.487 7.68011 282.44V394.44C7.68011 476.93 69.9301 548.97 152.26 554.3C237.07 559.79 317.45 495.76 317.45 395.37C317.45 262.81 317.45 307.11 351.54 52.63C352.252 47.5792 351.961 42.4377 350.685 37.4992C349.409 32.5607 347.173 27.9219 344.104 23.848C341.035 19.774 337.193 16.3446 332.798 13.7558C328.403 11.167 323.541 9.46939 318.49 8.76002Z" fill="#FFEF41"/>
<path d="M318.49 37.26C313.438 36.5484 308.295 36.8391 303.355 38.1156C298.416 39.3921 293.776 41.6293 289.701 44.6993C285.626 47.7694 282.196 51.6123 279.607 56.0084C277.017 60.4044 275.319 65.2676 274.61 70.32L243.23 253.83L212.83 70.94C212.12 65.8887 210.422 61.0267 207.834 56.6315C205.245 52.2363 201.816 48.3941 197.742 45.3242C193.668 42.2543 189.03 40.0169 184.091 38.7396C179.153 37.4623 174.011 37.1702 168.96 37.88C163.909 38.5898 159.047 40.2876 154.652 42.8764C150.256 45.4652 146.414 48.8943 143.344 52.9681C140.274 57.0418 138.037 61.6802 136.76 66.6187C135.482 71.5571 135.19 76.6987 135.9 81.75L168.18 225.33L171.99 265.12C169.892 255.119 164.16 246.251 155.904 240.23C147.647 234.209 137.451 231.463 127.287 232.523C117.124 233.582 107.714 238.372 100.876 245.967C94.0392 253.562 90.2602 263.421 90.2701 273.64V310.94C90.2701 299.987 85.9188 289.482 78.1735 281.737C70.4283 273.991 59.9235 269.64 48.97 269.64C38.0166 269.64 27.5118 273.991 19.7665 281.737C12.0213 289.482 7.6701 299.987 7.6701 310.94V361.37C7.6701 361.37 7.6701 361.45 7.6701 361.49V422.94C12.3701 477.08 69.6701 548.7 152.02 554.03C236.84 559.52 315.42 482.78 317.44 423.87C321.99 291.38 317.44 335.61 351.53 81.13C352.242 76.0799 351.952 70.9391 350.676 66.0012C349.401 61.0633 347.165 56.4249 344.097 52.3511C341.029 48.2773 337.188 44.8478 332.795 42.2584C328.401 39.669 323.54 37.9706 318.49 37.26Z" fill="#00DCD1"/>
<path d="M284 49.93L283.88 50.07H283.96C283.966 50.0216 283.98 49.9744 284 49.93Z" fill="#00ACB8"/>
<path d="M306.85 49.45C307.873 50.4362 309.239 50.9873 310.66 50.9873C312.081 50.9873 313.447 50.4362 314.47 49.45C314.93 46.54 314.65 46.15 313.89 43.59C312.1 43.01 310.49 42.52 309.2 43.01C307.27 43.73 307.55 44.32 306.85 45.93C306.64 46.44 306.25 46.12 306.27 47.11C306.28 47.9 307.23 48.23 306.85 49.45Z" fill="#00ACB8"/>
<path d="M342.77 50.68C340.761 48.2996 338.475 46.1678 335.96 44.33C335.363 46.199 335.434 48.2173 336.16 50.04C337.51 51.35 340.78 51.56 342.77 50.68Z" fill="#00ACB8"/>
<path d="M292.2 65.28C295.2 66.71 298.43 66.28 300.41 64.1C300.611 62.1302 300.41 60.1402 299.82 58.25C296.14 55.56 289.6 57.48 291.03 63.52C291.85 63.67 291.7 64.8 292.2 65.28Z" fill="#00ACB8"/>
<path d="M329.71 64.1C329.916 62.1302 329.715 60.1391 329.12 58.25C325.24 55.36 319.06 57.64 320.92 64.1C321.471 64.7221 322.147 65.2202 322.905 65.5613C323.663 65.9025 324.484 66.0788 325.315 66.0788C326.146 66.0788 326.967 65.9025 327.725 65.5613C328.483 65.2202 329.159 64.7221 329.71 64.1Z" fill="#00ACB8"/>
<path d="M313.3 80.51C315.15 78.61 315.7 76.6 315.06 73.51C314.658 73.3597 314.292 73.1248 313.989 72.8211C313.685 72.5175 313.45 72.1522 313.3 71.75C312.797 71.8566 312.278 71.8592 311.774 71.7578C311.27 71.6563 310.792 71.4529 310.37 71.16C308.96 71.9 307.25 72.35 306.27 73.51C305.63 76.63 306.17 78.64 308.02 80.51C309.77 80.78 311.55 80.78 313.3 80.51Z" fill="#00ACB8"/>
<path d="M278.14 80.51C283.14 82.05 286.7 78.46 285.14 73.51C282.23 70.2 274.35 71.43 276.35 78.2C277.056 78.8782 277.66 79.6565 278.14 80.51V80.51Z" fill="#00ACB8"/>
<path d="M335.57 78.75C337.57 80.45 340.31 81.75 342.57 80.51C345.51 78.88 344.78 72.77 342.57 71.72C340.98 72.09 337.92 70.98 337.3 72.31C335.39 72.55 335.79 75.1 334.95 76.41C335.85 76.52 335.52 77.83 335.57 78.75Z" fill="#00ACB8"/>
<path d="M300.41 94C303.24 87.15 295.14 83.44 291.03 88.14C290.771 89.8905 290.771 91.6696 291.03 93.42C293.16 96 297.75 96.15 300.41 94Z" fill="#00ACB8"/>
<path d="M329.12 94.58C329.87 91.89 330.17 91.03 329.71 88.13C326.41 84.13 319.93 86.47 320.33 91.65C320.4 92.55 321.13 93.44 321.5 94.58C323.78 96.25 326.62 95.54 329.12 94.58Z" fill="#00ACB8"/>
<path d="M349.63 92.82C349.753 92.8477 349.866 92.9062 349.96 92.99C350.213 91.09 350.47 89.17 350.73 87.23C349.669 88.8869 349.276 90.8846 349.63 92.82V92.82Z" fill="#00ACB8"/>
<path d="M207.81 86.37V85.79C204.38 86.05 201.89 89.11 203.12 92.24C203.49 94.41 204.93 95.5 207.81 95.16C211.51 95.54 212.08 92.8 211.91 89.3C211.52 87.35 210.41 86.12 207.81 86.37Z" fill="#00ACB8"/>
<path d="M285.17 102.78C283.27 100.93 281.26 100.38 278.17 101.03C276.46 102.39 275.8 106.11 277 108.65C280.86 111.54 287.21 109.43 285.17 102.78Z" fill="#00ACB8"/>
<path d="M314.47 109.23C315.83 107.8 316.01 104.23 315.06 102.23C313.32 100.4 308.99 99.44 306.85 101.64C305.94 102.58 306 104.11 305.68 105.74C306.235 106.852 306.629 108.037 306.85 109.26C309.35 110.19 312.2 110.9 314.47 109.23Z" fill="#00ACB8"/>
<path d="M336.16 101.61C335.16 104.11 334.48 106.96 336.16 109.23C342.1 113.05 347.48 106.89 343.78 101.61C341.5 99.94 338.66 100.65 336.16 101.61Z" fill="#00ACB8"/>
<path d="M219.07 108.44L218.22 103.35C217.756 104.259 217.598 105.294 217.77 106.3C217.989 107.123 218.44 107.867 219.07 108.44V108.44Z" fill="#00ACB8"/>
<path d="M299.82 123.88C300.67 121.3 300.97 120.43 300.41 117.44C298.12 114.63 293.53 115.02 291.03 117.44C290.77 119.187 290.77 120.963 291.03 122.71C293.06 125 296.8 125.43 299.82 123.88Z" fill="#00ACB8"/>
<path d="M321.5 116.27C320.817 117.554 320.51 119.004 320.615 120.455C320.719 121.905 321.23 123.297 322.09 124.47C324.194 125.1 326.436 125.1 328.54 124.47C329.73 122.35 330.7 120.25 329.71 117.47C327.76 115.14 324.52 114.71 321.5 116.27Z" fill="#00ACB8"/>
<path d="M270.52 122.71V117.44C269.523 116.47 268.239 115.849 266.86 115.67L265.36 124.45C267.38 124.6 269.62 124 270.52 122.71Z" fill="#00ACB8"/>
<path d="M305.68 136.77C306.14 136.9 306.36 137.26 306.27 137.95C310.27 142.43 318.59 137.95 315.06 131.5C311.72 127.94 303.8 129.87 305.68 136.77Z" fill="#00ACB8"/>
<path d="M344.36 131.5C341.02 127.94 333.11 129.87 334.98 136.77C335.75 136.68 335.28 137.55 335.57 137.95C336.98 139.87 341.26 140.48 343.19 139.12C343.434 138.948 343.653 138.743 343.84 138.51C344.1 136.51 344.37 134.51 344.64 132.51C344.504 132.384 344.406 132.223 344.357 132.045C344.308 131.866 344.309 131.678 344.36 131.5Z" fill="#00ACB8"/>
<path d="M224.18 139.22L222.7 130.3C218.98 129.99 216.13 133.36 217.77 137.36C218.583 138.202 219.603 138.817 220.727 139.143C221.852 139.47 223.042 139.496 224.18 139.22V139.22Z" fill="#00ACB8"/>
<path d="M283.41 139.12C284.031 138.568 284.528 137.891 284.868 137.134C285.208 136.376 285.384 135.555 285.384 134.725C285.384 133.895 285.208 133.074 284.868 132.316C284.528 131.559 284.031 130.882 283.41 130.33C277.72 129.33 275.58 131.87 276.41 137.33C278.28 139.22 280.29 139.76 283.41 139.12Z" fill="#00ACB8"/>
<path d="M291 146.74C290.74 148.487 290.74 150.263 291 152.01C292.8 154.1 297.16 155.12 299.79 153.18C301.15 151.75 301.33 148.23 300.38 146.18C298.34 143.41 292.87 144.44 291 146.74Z" fill="#00ACB8"/>
<path d="M320.33 151.43C320.79 151.56 321.01 151.92 320.92 152.6C324.87 157.08 333.24 152.6 329.71 146.15C326.37 142.59 318.45 144.52 320.33 151.43Z" fill="#00ACB8"/>
<path d="M207.81 145V144.41C204.38 144.68 201.89 147.73 203.12 150.86C203.21 153.51 205.88 153.58 207.81 154.37V153.79C213.74 154.4 213.74 144.34 207.81 145Z" fill="#00ACB8"/>
<path d="M263.48 153.77C266.57 154.25 269.48 153.89 270.48 152.01C271.71 149.8 270.33 146.7 268.72 145.01C261.7 142.82 260 150.55 263.48 153.77Z" fill="#00ACB8"/>
<path d="M224.81 168.42C226.66 166.52 227.21 164.51 226.56 161.42C224.09 158.48 219.04 159.15 217.77 161.42C216.5 163.69 217.84 166.42 219.53 168.42H224.81Z" fill="#00ACB8"/>
<path d="M285.17 161.39C284.768 161.24 284.403 161.005 284.099 160.701C283.795 160.397 283.56 160.032 283.41 159.63C282.908 159.736 282.389 159.739 281.886 159.639C281.382 159.539 280.904 159.339 280.48 159.05C279.07 159.79 277.37 160.23 276.38 161.39C275.74 164.51 276.28 166.52 278.14 168.39C279.887 168.65 281.663 168.65 283.41 168.39C285.27 166.52 285.81 164.51 285.17 161.39Z" fill="#00ACB8"/>
<path d="M313.89 159.63C308.65 157.63 304.6 161.63 306.27 166.63C308.17 168.48 310.18 169.02 313.27 168.38C314.451 167.265 315.171 165.746 315.286 164.126C315.4 162.505 314.902 160.901 313.89 159.63V159.63Z" fill="#00ACB8"/>
<path d="M335.57 161.39C335.09 164.48 335.45 167.39 337.33 168.39C338.072 168.783 338.916 168.94 339.75 168.84C340.17 165.78 340.58 162.67 341.01 159.48C340.015 159.294 338.989 159.373 338.035 159.708C337.08 160.043 336.23 160.623 335.57 161.39V161.39Z" fill="#00ACB8"/>
<path d="M300.41 176C299.81 175.356 299.084 174.843 298.277 174.492C297.47 174.141 296.6 173.959 295.72 173.959C294.84 173.959 293.969 174.141 293.163 174.492C292.356 174.843 291.63 175.356 291.03 176C290.771 177.75 290.771 179.53 291.03 181.28C293.38 184.28 299.12 183.65 300.41 181.28C301.32 179.64 300.16 178.14 300.41 176Z" fill="#00ACB8"/>
<path d="M328 183.07C329.86 181.17 330.4 179.16 329.76 176.07C329.358 175.92 328.992 175.685 328.689 175.381C328.385 175.078 328.15 174.712 328 174.31C327.498 174.416 326.979 174.419 326.476 174.319C325.972 174.219 325.494 174.019 325.07 173.73C323.66 174.46 321.96 174.91 320.97 176.07C320.33 179.19 320.87 181.2 322.73 183.07C324.476 183.34 326.254 183.34 328 183.07Z" fill="#00ACB8"/>
<path d="M207.81 174.28V173.7C204.38 173.96 201.89 177.02 203.12 180.14C203.21 182.79 205.88 182.86 207.81 183.66V183.07C213.74 183.71 213.74 173.65 207.81 174.28Z" fill="#00ACB8"/>
<path d="M268.76 183.07C269.381 182.518 269.877 181.841 270.218 181.084C270.558 180.326 270.734 179.505 270.734 178.675C270.734 177.845 270.558 177.024 270.218 176.266C269.877 175.509 269.381 174.832 268.76 174.28C263.07 173.28 260.92 175.82 261.76 181.28C263.63 183.17 265.64 183.71 268.76 183.07Z" fill="#00ACB8"/>
<path d="M285.17 190.69C284.768 190.54 284.403 190.305 284.099 190.001C283.795 189.698 283.56 189.332 283.41 188.93C282.908 189.036 282.389 189.039 281.886 188.939C281.382 188.839 280.904 188.639 280.48 188.35C279.07 189.08 277.37 189.53 276.38 190.69C275.74 193.81 276.28 195.82 278.14 197.69C279.887 197.95 281.663 197.95 283.41 197.69C285.27 195.82 285.81 193.81 285.17 190.69Z" fill="#00ACB8"/>
<path d="M315.06 190.69C312.77 187.83 307.52 188.37 306.27 190.69C305.36 192.37 306.51 193.86 306.27 195.96C307.63 197.67 311.35 198.34 313.89 197.14C315.05 195.77 315.24 193.41 315.06 190.69Z" fill="#00ACB8"/>
<path d="M219.53 197.73C222.25 197.9 224.6 197.73 225.98 196.55C226.774 194.477 226.774 192.183 225.98 190.11C220.65 186.05 215.69 191.58 217.77 195.96C218.15 196.76 219.44 196.48 219.53 197.73Z" fill="#00ACB8"/>
<path d="M254.3 189.11L252.79 197.92C253.21 197.92 253.64 197.82 254.11 197.73C254.713 197.191 255.198 196.534 255.537 195.8C255.875 195.066 256.059 194.27 256.076 193.461C256.094 192.653 255.946 191.85 255.64 191.101C255.335 190.353 254.878 189.675 254.3 189.11Z" fill="#00ACB8"/>
<path d="M336.07 196.36C336.35 194.227 336.64 192.06 336.94 189.86C335.34 191.26 334.74 193.73 336.07 196.36Z" fill="#00ACB8"/>
<path d="M234.88 203.57C233.8 203.9 233.44 204.95 232.42 205.34V210.62C233.472 211.742 234.891 212.452 236.42 212.62L234.88 203.57Z" fill="#00ACB8"/>
<path d="M268.76 212.37C270.61 210.47 271.16 208.47 270.52 205.37C270.118 205.22 269.752 204.985 269.449 204.681C269.145 204.378 268.91 204.012 268.76 203.61C268.258 203.716 267.739 203.719 267.236 203.619C266.732 203.519 266.254 203.319 265.83 203.03C264.42 203.77 262.71 204.21 261.73 205.37C261.09 208.5 261.63 210.5 263.48 212.37C265.23 212.64 267.01 212.64 268.76 212.37Z" fill="#00ACB8"/>
<path d="M291 210.62C293.06 212.71 295.07 212.86 298.62 212.37C300.62 210.95 301.08 206.15 299.2 204.17C294.64 201.35 289 205.08 291 210.62Z" fill="#00ACB8"/>
<path d="M320.92 207.69C320.85 215.5 333.32 212.19 329.12 204.76C326.39 202.42 320.85 203.75 320.92 207.69Z" fill="#00ACB8"/>
<path d="M224.81 227C226.66 225.09 227.21 223.08 226.56 220C226.158 219.855 225.792 219.623 225.49 219.32C225.187 219.018 224.955 218.652 224.81 218.25C224.305 218.354 223.785 218.356 223.28 218.255C222.775 218.153 222.295 217.951 221.87 217.66C220.46 218.4 218.76 218.84 217.77 220C217.13 223.13 217.68 225.13 219.53 227C221.28 227.26 223.06 227.26 224.81 227Z" fill="#00ACB8"/>
<path d="M254.11 227C255.96 225.09 256.51 223.08 255.87 220C255.466 219.855 255.1 219.623 254.795 219.321C254.491 219.018 254.257 218.653 254.11 218.25C253.607 218.354 253.088 218.356 252.585 218.254C252.081 218.153 251.603 217.951 251.18 217.66C250.57 217.98 249.91 218.24 249.27 218.53L248 226C248.257 226.352 248.538 226.686 248.84 227C250.587 227.259 252.363 227.259 254.11 227V227Z" fill="#00ACB8"/>
<path d="M285.17 220C284.767 219.855 284.4 219.623 284.096 219.321C283.792 219.018 283.558 218.653 283.41 218.25C282.907 218.354 282.388 218.356 281.885 218.254C281.381 218.153 280.903 217.951 280.48 217.66C279.07 218.4 277.37 218.84 276.38 220C275.74 223.13 276.28 225.13 278.14 227C279.887 227.26 281.663 227.26 283.41 227C285.27 225.12 285.81 223.11 285.17 220Z" fill="#00ACB8"/>
<path d="M313.89 225.86C314.89 223.17 314.89 222.09 313.89 219.41C311.32 218.64 310.89 218.41 308.02 218.82C307.143 219.747 306.607 220.946 306.502 222.218C306.396 223.49 306.727 224.761 307.44 225.82C309.58 227.35 311.65 226.88 313.89 225.86Z" fill="#00ACB8"/>
<path d="M207.81 232.3C204.62 232.04 203.39 233.74 202.54 235.82V238.75C203.39 240.82 204.62 242.53 207.81 242.26C210.61 242.33 211.69 240.67 212.5 238.75V236.4C212.07 233.9 210.69 232.35 207.81 232.3Z" fill="#00ACB8"/>
<path d="M239.46 241.68C240.038 241.094 240.518 240.419 240.88 239.68L239.88 233.68C239.716 233.449 239.579 233.201 239.47 232.94C238.967 233.042 238.449 233.042 237.945 232.941C237.442 232.84 236.964 232.639 236.54 232.35C235.13 233.09 233.42 233.54 232.43 234.7C231.79 237.81 232.34 239.82 234.19 241.7C235.938 241.952 237.714 241.945 239.46 241.68V241.68Z" fill="#00ACB8"/>
<path d="M268.76 241.68C270.61 239.77 271.16 237.76 270.52 234.68C270.118 234.53 269.752 234.295 269.449 233.991C269.145 233.688 268.91 233.322 268.76 232.92C268.257 233.022 267.738 233.022 267.235 232.921C266.732 232.82 266.254 232.619 265.83 232.33C264.42 233.07 262.71 233.52 261.73 234.68C261.09 237.79 261.63 239.8 263.48 241.68C265.23 241.94 267.01 241.94 268.76 241.68V241.68Z" fill="#00ACB8"/>
<path d="M291 234.65C290.36 237.76 290.9 239.77 292.76 241.65C293.801 242.305 295.04 242.574 296.259 242.411C297.478 242.248 298.602 241.662 299.434 240.756C300.267 239.85 300.755 238.681 300.815 237.452C300.874 236.223 300.501 235.012 299.76 234.03C297.06 232.13 293.17 232.13 291 234.65Z" fill="#00ACB8"/>
<path d="M322.09 234.06C321.501 235.159 321.244 236.405 321.348 237.647C321.453 238.89 321.916 240.075 322.68 241.06C323.757 241.48 324.929 241.594 326.066 241.387C327.203 241.181 328.26 240.662 329.12 239.89C329.99 237.28 329.31 236.26 328.54 234.03C325.85 233 324.77 233 322.09 234.06Z" fill="#00ACB8"/>
<path d="M218.36 255.74C220.97 257.74 224.85 256.63 226.56 254.57C226.83 252.824 226.83 251.046 226.56 249.3C223.98 245.72 216.16 246.41 217.19 252.81C217.78 253.58 217.76 255 218.36 255.74Z" fill="#00ACB8"/>
<path d="M254.11 256.33C255.96 254.42 256.51 252.42 255.87 249.33C255.468 249.18 255.102 248.945 254.799 248.641C254.495 248.337 254.26 247.972 254.11 247.57C253.607 247.674 253.088 247.676 252.585 247.574C252.081 247.473 251.603 247.271 251.18 246.98C249.77 247.72 248.06 248.17 247.08 249.33C246.43 252.45 246.98 254.45 248.83 256.33C250.58 256.6 252.36 256.6 254.11 256.33Z" fill="#00ACB8"/>
<path d="M283.41 247.54C282.907 247.644 282.388 247.646 281.885 247.544C281.381 247.443 280.903 247.241 280.48 246.95C279.07 247.69 277.37 248.14 276.38 249.3C275.74 252.42 276.28 254.42 278.14 256.3C279.886 256.57 281.664 256.57 283.41 256.3C285.27 254.39 285.81 252.39 285.17 249.3C284.768 249.15 284.403 248.915 284.099 248.611C283.795 248.308 283.56 247.942 283.41 247.54V247.54Z" fill="#00ACB8"/>
<path d="M306.85 255.16C308.47 256.73 312.85 256.73 314.47 255.16C315.26 253.083 315.26 250.787 314.47 248.71C313.28 247.64 309.72 246.86 308.02 248.13C305.77 248.8 306 253.07 306.85 255.16Z" fill="#00ACB8"/>
<path d="M207.81 261.6C204.62 261.34 203.39 263.05 202.54 265.12C202.04 269.52 204.34 271.12 207.81 271.57C210.28 270.91 212.26 269.77 212.5 266.88C212.31 263.75 211.14 261.59 207.81 261.6Z" fill="#00ACB8"/>
<path d="M239.46 271C241.31 269.1 241.86 267.09 241.22 264C240.818 263.85 240.452 263.615 240.149 263.311C239.845 263.008 239.61 262.642 239.46 262.24C238.957 262.347 238.438 262.349 237.934 262.248C237.43 262.146 236.952 261.943 236.53 261.65C235.12 262.39 233.41 262.84 232.42 264C231.78 267.12 232.33 269.13 234.18 271C235.93 271.27 237.71 271.27 239.46 271Z" fill="#00ACB8"/>
<path d="M268.76 271C270.61 269.1 271.16 267.09 270.52 264C270.118 263.85 269.752 263.615 269.449 263.311C269.145 263.008 268.91 262.642 268.76 262.24C268.257 262.347 267.738 262.349 267.234 262.248C266.73 262.146 266.252 261.943 265.83 261.65C264.42 262.39 262.71 262.84 261.73 264C261.09 267.12 261.63 269.13 263.48 271C265.23 271.27 267.01 271.27 268.76 271Z" fill="#00ACB8"/>
<path d="M299.82 269.81C300.61 267.733 300.61 265.437 299.82 263.36C298.39 262.05 295.64 262.08 292.82 262.19C291.1 263.4 290.76 266 291.06 269.19C292.48 271.27 297.78 271.69 299.82 269.81Z" fill="#00ACB8"/>
<path d="M322.68 262.78C320.42 263.45 320.68 267.72 321.5 269.78C322.5 270.78 324.62 271.13 326.44 270.88C326.76 268.213 327.093 265.41 327.44 262.47C325.91 262 323.85 261.9 322.68 262.78Z" fill="#00ACB8"/>
<path d="M224.81 276.84C224.306 276.947 223.785 276.95 223.279 276.848C222.774 276.747 222.294 276.543 221.87 276.25C220.46 277 218.76 277.44 217.77 278.6C217.13 281.72 217.68 283.73 219.53 285.6C221.28 285.87 223.06 285.87 224.81 285.6C226.66 283.7 227.21 281.69 226.56 278.6C226.157 278.453 225.792 278.219 225.489 277.914C225.187 277.61 224.955 277.244 224.81 276.84V276.84Z" fill="#00ACB8"/>
<path d="M254.11 285.63C255.96 283.73 256.51 281.72 255.87 278.63C255.468 278.48 255.102 278.245 254.799 277.941C254.495 277.638 254.26 277.272 254.11 276.87C253.607 276.977 253.088 276.979 252.584 276.878C252.08 276.776 251.602 276.573 251.18 276.28C249.77 277.03 248.06 277.47 247.08 278.63C246.43 281.75 246.98 283.76 248.83 285.63C250.58 285.9 252.36 285.9 254.11 285.63Z" fill="#00ACB8"/>
<path d="M285.17 283.87C285.51 280.61 284.9 278.28 283.41 276.87C277.26 275.7 275.15 279.34 276.41 283.87C276.961 284.487 277.636 284.981 278.39 285.319C279.145 285.657 279.963 285.832 280.79 285.832C281.617 285.832 282.435 285.657 283.19 285.319C283.945 284.981 284.619 284.487 285.17 283.87V283.87Z" fill="#00ACB8"/>
<path d="M306.27 283.87C307.48 285.59 310.07 285.93 313.27 285.63C314.98 284.27 315.64 280.55 314.44 278.01C310.59 275.13 304.41 277.41 306.27 283.87Z" fill="#00ACB8"/>
<path d="M207.81 290.91C204.13 290.91 202.39 292.91 202.54 296.77C202.91 299.52 205.13 300.43 207.81 300.87C209.29 300.2 211.16 299.87 211.91 298.53C213.23 294.78 211.87 291 207.81 290.91Z" fill="#00ACB8"/>
<path d="M239.46 300.28C241.31 298.38 241.86 296.37 241.22 293.28C240.818 293.13 240.452 292.895 240.149 292.591C239.845 292.287 239.61 291.922 239.46 291.52C238.958 291.626 238.439 291.629 237.936 291.529C237.432 291.429 236.954 291.229 236.53 290.94C235.12 291.68 233.41 292.12 232.42 293.28C231.78 296.4 232.33 298.41 234.18 300.28C235.93 300.55 237.71 300.55 239.46 300.28V300.28Z" fill="#00ACB8"/>
<path d="M268.76 300.28C270.61 298.38 271.16 296.37 270.52 293.28C270.118 293.13 269.752 292.895 269.449 292.591C269.145 292.287 268.91 291.922 268.76 291.52C268.258 291.626 267.739 291.629 267.236 291.529C266.732 291.429 266.254 291.229 265.83 290.94C264.42 291.68 262.71 292.12 261.73 293.28C261.09 296.4 261.63 298.41 263.48 300.28C265.23 300.55 267.01 300.55 268.76 300.28V300.28Z" fill="#00ACB8"/>
<path d="M300.41 293.25C300.008 293.1 299.643 292.865 299.339 292.561C299.035 292.258 298.8 291.892 298.65 291.49C297.19 292.25 295.81 290.18 295.72 291.49C292.97 290.9 292.39 292.49 291.03 293.25C291.28 295.35 290.12 296.84 291.03 298.53C291.574 299.155 292.162 299.74 292.79 300.28C295.16 301.42 298.86 300.28 300.41 298.53C300.67 296.78 300.67 295 300.41 293.25V293.25Z" fill="#00ACB8"/>
<path d="M320.92 298.53C321.584 299.197 322.372 299.727 323.24 300.09C323.5 297.35 323.79 294.54 324.1 291.62C321.62 292.24 319.79 294.61 320.92 298.53Z" fill="#00ACB8"/>
<path d="M220.7 306.15C218.06 306.23 217.99 308.9 217.19 310.83H217.77C216.47 316.59 227.77 316.39 226.56 310.83H227.15C226.88 307.4 223.83 304.91 220.7 306.15Z" fill="#00ACB8"/>
<path d="M250 306.15C247.83 306.52 246.73 307.95 247.07 310.83C246.99 314.23 249.27 315.27 252.93 314.94C254.93 314.54 256.11 313.43 255.86 310.83H256.44C256.19 307.4 253.13 304.91 250 306.15Z" fill="#00ACB8"/>
<path d="M309.2 306.15C306.55 306.23 306.48 308.9 305.68 310.83H306.27C305.64 316.76 315.69 316.76 315.06 310.83H315.64C315.38 307.4 312.32 304.91 309.2 306.15Z" fill="#00ACB8"/>
<path d="M285.17 310.83H285.76C285.49 307.4 282.44 304.91 279.31 306.15C276.66 306.23 276.59 308.9 275.79 310.83H276.38C275.75 316.76 285.8 316.76 285.17 310.83Z" fill="#00ACB8"/>
<path d="M270.52 322.56C269.969 321.938 269.293 321.44 268.535 321.099C267.777 320.757 266.956 320.581 266.125 320.581C265.294 320.581 264.473 320.757 263.715 321.099C262.957 321.44 262.281 321.938 261.73 322.56C261.527 324.529 261.724 326.519 262.31 328.41C263.69 329.58 266.04 329.76 268.76 329.59C270.61 327.68 271.16 325.68 270.52 322.56Z" fill="#00ACB8"/>
<path d="M292.79 329.59C295.22 330.96 298.43 329.2 300.41 327.83V322.56C299.81 321.916 299.084 321.403 298.277 321.052C297.47 320.701 296.6 320.519 295.72 320.519C294.84 320.519 293.969 320.701 293.162 321.052C292.356 321.403 291.63 321.916 291.03 322.56C290.49 325.71 291 328.59 292.79 329.59Z" fill="#00ACB8"/>
<path d="M240.63 328.41C241.424 326.337 241.424 324.043 240.63 321.97C239.44 320.9 235.88 320.11 234.18 321.38C231.92 322.05 232.18 326.38 233.01 328.38C234.63 330 239 330 240.63 328.41Z" fill="#00ACB8"/>
<path d="M321.08 326.9L321.35 322.79C320.784 324.087 320.688 325.54 321.08 326.9Z" fill="#00ACB8"/>
<path d="M283.41 344.24C285.27 342.34 285.81 340.33 285.17 337.24C284.765 337.094 284.397 336.861 284.093 336.557C283.789 336.253 283.556 335.885 283.41 335.48C281.96 336.25 280.57 334.18 280.48 335.48C277.93 334.89 277.78 336.7 276.38 337.24V342.52C278.28 344.33 280.29 344.88 283.41 344.24Z" fill="#00ACB8"/>
<path d="M225.39 343.06C226.39 340.38 226.39 339.3 225.39 336.62C222.71 335.62 221.63 335.62 218.95 336.62C217.95 339.3 217.95 340.38 218.95 343.06C221.63 344.09 222.71 344.09 225.39 343.06Z" fill="#00ACB8"/>
<path d="M251.76 344.24C254.26 343.81 255.82 342.43 255.87 339.55C255.87 337.41 254.2 336.92 253.52 335.44C245.51 333 245.17 344.75 251.76 344.24Z" fill="#00ACB8"/>
<path d="M314.47 343.06C315.264 340.987 315.264 338.693 314.47 336.62C313.1 335.45 310.74 335.27 308.02 335.44C306.32 336.81 305.66 340.53 306.85 343.06C308.47 344.64 312.85 344.64 314.47 343.06Z" fill="#00ACB8"/>
<path d="M291 357.13C291.541 357.761 292.129 358.349 292.76 358.89C295.13 360.02 298.83 358.89 300.38 357.13C300.581 355.157 300.38 353.164 299.79 351.27C297.03 349.33 293.14 349.34 291 351.85C291.28 354 290.12 355.45 291 357.13Z" fill="#00ACB8"/>
<path d="M237.11 358.89C239.34 358.18 241.35 357.27 241.22 354.2C241.35 353.09 240.55 352.91 240.63 351.85C239.55 351.14 238.41 350.14 237.11 350.1C236.112 350.166 235.128 350.361 234.18 350.68C233.211 351.853 232.6 353.279 232.42 354.79C232.42 354.86 233.86 356.97 233.6 357.72C235.31 357.56 235.4 359 237.11 358.89Z" fill="#00ACB8"/>
<path d="M263.48 350.68C261.23 351.35 261.48 355.68 262.31 357.68C263.69 358.84 266.04 359.03 268.76 358.85C270.61 356.95 271.16 354.94 270.52 351.85C269.33 350.46 265.69 349.21 263.48 350.68Z" fill="#00ACB8"/>
<path d="M278.14 373.54C283.14 375.07 286.7 371.54 285.14 366.54C284.588 365.919 283.911 365.422 283.154 365.082C282.396 364.742 281.575 364.566 280.745 364.566C279.915 364.566 279.094 364.742 278.336 365.082C277.579 365.422 276.902 365.919 276.35 366.54C276 369.77 276.65 372.1 278.14 373.54Z" fill="#00ACB8"/>
<path d="M217.77 369.44C217.77 374.73 226.58 374.73 226.56 369.44C226.79 363.71 217.44 363.32 217.77 369.44Z" fill="#00ACB8"/>
<path d="M248.83 373.54C253.4 374.76 257.03 372.66 255.83 366.54C254.919 365.659 253.762 365.076 252.512 364.867C251.262 364.658 249.978 364.834 248.83 365.37C247.83 365.88 247.91 366.37 247.08 367.12C246.69 370.22 247.53 372.11 248.83 373.54Z" fill="#00ACB8"/>
<path d="M313.3 364.75C311.71 365.11 308.65 364 308.02 365.34C305.58 366.53 305.96 369.03 306.27 371.78C306.821 372.402 307.497 372.9 308.255 373.241C309.013 373.582 309.834 373.759 310.665 373.759C311.496 373.759 312.317 373.582 313.075 373.241C313.833 372.9 314.509 372.402 315.06 371.78C315.36 368.55 315 366 313.3 364.75Z" fill="#00ACB8"/>
<path d="M300.41 381.16C299.81 380.516 299.084 380.003 298.277 379.652C297.471 379.301 296.6 379.119 295.72 379.119C294.84 379.119 293.97 379.301 293.163 379.652C292.356 380.003 291.63 380.516 291.03 381.16C290.77 382.907 290.77 384.683 291.03 386.43C293.38 389.43 299.12 388.81 300.41 386.43C301.32 384.76 300.16 383.26 300.41 381.16Z" fill="#00ACB8"/>
<path d="M241.22 386.43C241.9 385.03 241.1 382.88 241.22 381.16C238.07 377.69 230.11 379.22 232.42 386.43C234.84 389.35 240.09 388.75 241.22 386.43Z" fill="#00ACB8"/>
<path d="M261.73 386.43C263.73 388.13 266.46 389.43 268.73 388.19C271.66 386.56 270.93 380.45 268.73 379.4C267.14 379.77 264.08 378.65 263.45 379.99C261.55 380.23 261.94 382.78 261.11 384.09C262 384.2 261.68 385.51 261.73 386.43Z" fill="#00ACB8"/>
<path d="M224.81 394.05C224.306 394.157 223.785 394.16 223.279 394.058C222.774 393.957 222.294 393.753 221.87 393.46C220.46 394.2 218.76 394.65 217.77 395.81C217.02 399.09 217.58 401.5 219.53 403.43C221.281 403.69 223.06 403.69 224.81 403.43C226.75 401.5 227.31 399.09 226.56 395.81C226.157 395.663 225.792 395.429 225.489 395.124C225.187 394.82 224.955 394.454 224.81 394.05V394.05Z" fill="#00ACB8"/>
<path d="M251.76 404C252.85 404 254.05 402.69 255.28 402.82C255.744 402.033 256.037 401.156 256.139 400.248C256.24 399.34 256.149 398.42 255.87 397.55C255.4 396.01 255.13 394.55 254.11 394.03C251.93 393.03 248.69 394.11 247.11 395.79C246 400.34 247.66 404.11 251.76 404Z" fill="#00ACB8"/>
<path d="M283.41 394.05C282.907 394.157 282.388 394.159 281.884 394.058C281.38 393.956 280.902 393.753 280.48 393.46C280.48 394.6 278.88 393.66 278.14 394.05C276.06 395.17 276.03 398.25 275.79 401.05C276.56 400.96 276.09 401.83 276.38 402.22C278.11 404.6 283.38 404.65 285.17 402.22C285.43 401.87 285.08 400.99 285.76 401.05C285.818 399.032 285.414 397.028 284.58 395.19C283.92 395.1 283.67 394.58 283.41 394.05Z" fill="#00ACB8"/>
<path d="M310.37 393.46C308.96 394.2 307.25 394.65 306.27 395.81C305.54 399.02 306.41 400.7 308.02 402.81C310.64 403.68 311.66 403 313.89 402.22C314.46 400 315.76 397.61 314.47 395.22C313.64 394.1 311.63 394.17 310.37 393.46Z" fill="#00ACB8"/>
<path d="M241.22 411.05C240.818 410.9 240.452 410.665 240.149 410.361C239.845 410.058 239.61 409.692 239.46 409.29C238.957 409.394 238.438 409.396 237.935 409.294C237.431 409.193 236.953 408.991 236.53 408.7C235.12 409.44 233.41 409.89 232.42 411.05C231.78 414.17 232.33 416.18 234.18 418.05C235.93 418.31 237.71 418.31 239.46 418.05C241.31 416.18 241.86 414.17 241.22 411.05Z" fill="#00ACB8"/>
<path d="M261.73 416.32C263.63 418.17 265.64 418.72 268.73 418.08C269.755 417.134 270.472 415.901 270.786 414.541C271.1 413.182 270.997 411.76 270.49 410.46C266.52 406.43 259.28 410.47 261.73 416.32Z" fill="#00ACB8"/>
<path d="M291.62 417.49C294.62 418.65 297.23 418.58 299.82 416.91C300.61 414.833 300.61 412.537 299.82 410.46C296.1 407.67 289.33 408.46 290.44 415.15C290.827 415.4 291.14 415.748 291.348 416.16C291.555 416.571 291.649 417.03 291.62 417.49V417.49Z" fill="#00ACB8"/>
<path d="M207.81 409.29V408.7C205.95 409.39 203.68 409.7 203.12 411.63C202.12 415.12 203.77 418.63 207.81 418.63C208.56 417.82 210.68 418.38 210.74 416.88C212.59 417.16 211.18 414.19 212.5 413.95C211.65 411.7 211.48 408.75 207.81 409.29Z" fill="#00ACB8"/>
<path d="M224.81 432.73C226.66 430.83 227.21 428.82 226.56 425.73C226.157 425.583 225.792 425.349 225.489 425.044C225.187 424.74 224.955 424.374 224.81 423.97C224.306 424.075 223.786 424.078 223.281 423.979C222.776 423.879 222.296 423.679 221.87 423.39C220.46 424.12 218.76 424.57 217.77 425.73C217.13 428.85 217.68 430.86 219.53 432.73C221.28 433 223.06 433 224.81 432.73Z" fill="#00ACB8"/>
<path d="M254.11 432.73C255.96 430.83 256.51 428.82 255.87 425.73C255.468 425.58 255.102 425.345 254.799 425.041C254.495 424.738 254.26 424.372 254.11 423.97C253.608 424.076 253.089 424.079 252.586 423.979C252.082 423.879 251.604 423.679 251.18 423.39C249.77 424.12 248.06 424.57 247.08 425.73C246.43 428.85 246.98 430.86 248.83 432.73C250.58 433 252.36 433 254.11 432.73Z" fill="#00ACB8"/>
<path d="M283.41 423.94C282.908 424.046 282.389 424.049 281.886 423.949C281.382 423.849 280.904 423.649 280.48 423.36C279.07 424.09 277.37 424.54 276.38 425.7C275.74 428.82 276.28 430.83 278.14 432.7C279.886 432.97 281.664 432.97 283.41 432.7C285.27 430.8 285.81 428.79 285.17 425.7C284.768 425.55 284.403 425.315 284.099 425.011C283.795 424.708 283.56 424.342 283.41 423.94V423.94Z" fill="#00ACB8"/>
<path d="M307.44 425.11C306.08 427.53 306.15 430.24 308.02 432.11C310.94 432.57 311.32 432.29 313.89 431.52C314.89 428.84 314.89 427.76 313.89 425.07C311.2 424.09 310.12 424.09 307.44 425.11Z" fill="#00ACB8"/>
<path d="M241.22 440.35C240.818 440.2 240.452 439.965 240.149 439.661C239.845 439.358 239.61 438.992 239.46 438.59C238.958 438.696 238.439 438.699 237.936 438.599C237.432 438.499 236.954 438.299 236.53 438.01C235.12 438.74 233.41 439.19 232.42 440.35C231.78 443.47 232.33 445.48 234.18 447.35C235.93 447.61 237.71 447.61 239.46 447.35C241.31 445.48 241.86 443.47 241.22 440.35Z" fill="#00ACB8"/>
<path d="M261.73 440.35C260.45 442.65 261.79 445.35 263.48 447.35H268.76C270.61 445.44 271.16 443.43 270.52 440.35C268 437.41 263 438.08 261.73 440.35Z" fill="#00ACB8"/>
<path d="M291 440.35C290.36 443.47 290.9 445.48 292.76 447.35C293.801 448.005 295.04 448.274 296.259 448.111C297.478 447.948 298.602 447.362 299.434 446.456C300.267 445.55 300.755 444.381 300.815 443.152C300.874 441.923 300.501 440.712 299.76 439.73C297.06 437.83 293.17 437.83 291 440.35Z" fill="#00ACB8"/>
<path d="M207.81 438.59V438C205.11 438.61 202.69 439.52 202.54 442.68C202.54 446.17 204.32 447.93 207.81 447.96C208.56 447.14 210.68 447.7 210.74 446.2C212.59 446.48 211.18 443.52 212.5 443.27C211.65 441 211.48 438.05 207.81 438.59Z" fill="#00ACB8"/>
<path d="M219.53 462C221.28 462.27 223.06 462.27 224.81 462C226.66 460.1 227.21 458.09 226.56 455C226.157 454.853 225.792 454.619 225.489 454.314C225.187 454.01 224.955 453.644 224.81 453.24C224.306 453.345 223.786 453.348 223.281 453.249C222.776 453.149 222.296 452.949 221.87 452.66C220.46 453.39 218.76 453.84 217.77 455C217.13 458.12 217.68 460.13 219.53 462Z" fill="#00ACB8"/>
<path d="M248.83 462C250.58 462.27 252.36 462.27 254.11 462C255.96 460.1 256.51 458.09 255.87 455C255.468 454.85 255.102 454.615 254.799 454.311C254.495 454.008 254.26 453.642 254.11 453.24C253.608 453.346 253.089 453.349 252.586 453.249C252.082 453.149 251.604 452.949 251.18 452.66C249.77 453.39 248.06 453.84 247.08 455C246.43 458.12 247 460.13 248.83 462Z" fill="#00ACB8"/>
<path d="M283.41 453.24C281.96 454 280.57 451.94 280.48 453.24C277.93 452.65 277.78 454.46 276.38 455V460.27C278.28 462.13 280.29 462.67 283.38 462.03C285.24 460.13 285.78 458.12 285.14 455.03C284.74 454.873 284.379 454.632 284.081 454.323C283.782 454.014 283.554 453.645 283.41 453.24V453.24Z" fill="#00ACB8"/>
<path d="M306.27 459.69C306.72 459.82 306.95 460.18 306.85 460.86C306.989 460.99 307.14 461.107 307.3 461.21C308.54 458.66 309.67 456.1 310.7 453.55C308 453.37 305.37 455.18 306.27 459.69Z" fill="#00ACB8"/>
<path d="M239.46 467.89C238.958 467.996 238.439 467.999 237.936 467.899C237.432 467.799 236.954 467.599 236.53 467.31C235.12 468.05 233.41 468.49 232.42 469.65C231.78 472.78 232.33 474.78 234.18 476.65C235.93 476.92 237.71 476.92 239.46 476.65C241.31 474.75 241.86 472.75 241.22 469.65C240.815 469.504 240.447 469.271 240.143 468.967C239.839 468.663 239.606 468.295 239.46 467.89Z" fill="#00ACB8"/>
<path d="M268.76 467.89C268.258 467.996 267.739 467.999 267.236 467.899C266.732 467.799 266.254 467.599 265.83 467.31C264.42 468.05 262.71 468.49 261.73 469.65C261.09 472.78 261.63 474.78 263.48 476.65C265.23 476.92 267.01 476.92 268.76 476.65C270.61 474.75 271.16 472.75 270.52 469.65C270.118 469.5 269.752 469.265 269.449 468.961C269.145 468.657 268.91 468.292 268.76 467.89V467.89Z" fill="#00ACB8"/>
<path d="M291 469.65C291.25 471.76 290.09 473.25 291 474.93C291.541 475.558 292.129 476.143 292.76 476.68C294.49 477.52 296.94 477.11 298.76 476.15C299.33 475.28 299.88 474.4 300.43 473.53C300.501 472.018 300.291 470.506 299.81 469.07C297.06 467.13 293.17 467.14 291 469.65Z" fill="#00ACB8"/>
<path d="M207.81 467.89V467.31C205.95 467.99 203.68 468.31 203.12 470.24C201.94 473.85 204.12 476.9 207.81 477.24V476.65C213.74 477.32 213.74 467.26 207.81 467.89Z" fill="#00ACB8"/>
<path d="M226.56 484.3C225.799 483.269 224.681 482.558 223.424 482.307C222.168 482.056 220.862 482.283 219.764 482.942C218.665 483.602 217.852 484.648 217.483 485.876C217.115 487.103 217.217 488.424 217.77 489.58C220.19 492.5 225.44 491.9 226.56 489.58C227.25 488.17 226.45 486 226.56 484.3Z" fill="#00ACB8"/>
<path d="M255.87 484.3C255.466 484.155 255.1 483.923 254.795 483.621C254.491 483.318 254.257 482.953 254.11 482.55C253.607 482.652 253.089 482.652 252.585 482.551C252.082 482.45 251.604 482.249 251.18 481.96C249.77 482.7 248.06 483.14 247.08 484.3C246.81 486.05 246.81 487.83 247.08 489.58C247.841 490.611 248.959 491.322 250.216 491.573C251.472 491.824 252.778 491.597 253.876 490.938C254.975 490.278 255.788 489.232 256.157 488.004C256.525 486.777 256.423 485.456 255.87 484.3V484.3Z" fill="#00ACB8"/>
<path d="M283.41 482.55C282.907 482.652 282.389 482.652 281.885 482.551C281.382 482.45 280.904 482.249 280.48 481.96C279.07 482.7 277.37 483.14 276.38 484.3C275.74 487.42 276.28 489.43 278.14 491.3C279.887 491.56 281.663 491.56 283.41 491.3C285.27 489.39 285.81 487.39 285.17 484.3C284.767 484.155 284.4 483.923 284.096 483.621C283.792 483.318 283.558 482.953 283.41 482.55V482.55Z" fill="#00ACB8"/>
<path d="M239.46 497.2C238 497.96 236.61 495.89 236.53 497.2C233.98 496.6 233.83 498.41 232.42 498.96C231.78 502.07 232.33 504.08 234.18 505.96C235.93 506.22 237.71 506.22 239.46 505.96C240.384 505.078 241.039 503.953 241.351 502.714C241.662 501.475 241.617 500.174 241.22 498.96C240.818 498.81 240.452 498.575 240.149 498.271C239.845 497.967 239.61 497.602 239.46 497.2V497.2Z" fill="#00ACB8"/>
<path d="M261.14 501.88C261.695 502.992 262.089 504.177 262.31 505.4C265.31 506.95 268.57 506.53 270.52 504.23C270.78 502.483 270.78 500.707 270.52 498.96C267.81 495.55 261.18 496.53 261.14 501.88Z" fill="#00ACB8"/>
<path d="M207.81 497.2V496.61C205.95 497.3 203.68 497.61 203.12 499.54V503.06C203.52 505.4 205.67 505.98 207.81 506.58V506C213.74 506.62 213.74 496.57 207.81 497.2Z" fill="#00ACB8"/>
<path d="M224.81 511.85C224.306 511.957 223.785 511.96 223.279 511.858C222.774 511.757 222.294 511.553 221.87 511.26C220.46 512 218.76 512.45 217.77 513.61C217.13 516.73 217.68 518.73 219.53 520.61C221.28 520.88 223.06 520.88 224.81 520.61C226.66 518.7 227.21 516.7 226.56 513.61C226.16 513.458 225.796 513.223 225.494 512.919C225.193 512.616 224.959 512.251 224.81 511.85V511.85Z" fill="#00ACB8"/>
<path d="M255.87 513C252.53 509.44 244.61 511.37 246.49 518.27C247.26 518.18 246.79 519.05 247.08 519.45C248.71 521.7 252.79 521.57 255.28 520.03C256.256 518.244 256.664 516.204 256.45 514.18C256 514.07 255.77 513.7 255.87 513Z" fill="#00ACB8"/>
<path d="M239.46 526.5C238 527.26 236.61 525.2 236.53 526.5C233.98 525.9 233.83 527.72 232.42 528.26C231.82 531.18 232.28 533.12 233.85 534.92C236.463 533.513 239.033 532.047 241.56 530.52C241.57 529.753 241.455 528.99 241.22 528.26C240.818 528.11 240.452 527.875 240.149 527.571C239.845 527.268 239.61 526.902 239.46 526.5V526.5Z" fill="#00ACB8"/>
<path d="M207.81 526.5V525.91C205.95 526.6 203.68 526.91 203.12 528.85V532.36C203.77 534.25 204.99 535.57 207.81 535.29C211.21 535.37 212.25 533.09 211.91 529.43C211.52 527.48 210.41 526.25 207.81 526.5Z" fill="#00ACB8"/>
<path d="M221.79 540.83C220.905 540.914 220.065 541.263 219.38 541.83L221.79 540.83Z" fill="#00ACB8"/>
<path d="M158.58 48.87C159.04 49 159.26 49.36 159.17 50.04C163.12 54.52 171.49 50.04 167.96 43.59C164.62 40 156.7 42 158.58 48.87Z" fill="#00ACB8"/>
<path d="M188.47 50C192.02 54 199.11 50.83 197.99 45.47C196.189 44.1004 194.276 42.8861 192.27 41.84C189.27 42.17 186.72 44.54 187.88 48.84C188.34 49 188.56 49.36 188.47 50Z" fill="#00ACB8"/>
<path d="M149.79 66.45C150.99 65.89 152.11 65.25 153.31 64.69C153.31 62.76 154.31 61.77 153.89 59.42C153.066 58.3014 152.079 57.3136 150.96 56.49C149.96 56.82 147.52 55.77 147.45 57.07H145.69C144.854 58.5279 144.259 60.1118 143.93 61.76C144.65 64.55 146.31 66.41 149.79 66.45Z" fill="#00ACB8"/>
<path d="M173.23 63.52C173.69 63.64 173.92 64.01 173.82 64.69C177.82 69.17 186.14 64.69 182.61 58.25C179.27 54.68 171.35 56.61 173.23 63.52Z" fill="#00ACB8"/>
<path d="M207.81 66.45C208.56 65.63 210.68 66.19 210.74 64.69C210.961 64.734 211.19 64.7023 211.39 64.6C210.504 61.8063 209.303 59.1224 207.81 56.6C207.808 56.5734 207.808 56.5466 207.81 56.52C204.363 56.56 202.623 58.3167 202.59 61.79C202.62 65 204.78 66.16 207.81 66.45Z" fill="#00ACB8"/>
<path d="M136.9 80.51C138.75 78.61 139.3 76.6 138.65 73.51C138.25 73.3585 137.886 73.123 137.585 72.8195C137.283 72.5159 137.049 72.1512 136.9 71.75C136.531 71.7886 136.159 71.7886 135.79 71.75C135.455 74.6938 135.455 77.6662 135.79 80.61L136.9 80.51Z" fill="#00ACB8"/>
<path d="M166.2 80.51C168.05 78.61 168.6 76.6 167.96 73.51C167.558 73.3597 167.193 73.1248 166.889 72.8211C166.585 72.5175 166.35 72.1522 166.2 71.75C165.697 71.8566 165.178 71.8592 164.674 71.7578C164.17 71.6563 163.692 71.4529 163.27 71.16C161.86 71.9 160.16 72.35 159.17 73.51C158.53 76.63 159.07 78.64 160.93 80.51C162.676 80.7799 164.454 80.7799 166.2 80.51V80.51Z" fill="#00ACB8"/>
<path d="M187.88 75.24C187.39 77.69 189.02 78.01 189.06 79.93C192.06 81.48 195.31 81.05 197.26 78.75C197.72 75.86 197.43 74.99 196.67 72.31C193.66 70.21 187.88 71 187.88 75.24Z" fill="#00ACB8"/>
<path d="M153.31 88.13C152.905 87.9844 152.537 87.7512 152.233 87.4469C151.929 87.1427 151.696 86.7749 151.55 86.37C151.048 86.4757 150.529 86.4788 150.026 86.3791C149.522 86.2794 149.044 86.0791 148.62 85.79C147.21 86.53 145.5 86.97 144.52 88.13C143.87 91.25 144.42 93.26 146.27 95.13C148.02 95.4 149.8 95.4 151.55 95.13C153.4 93.26 154 91.25 153.31 88.13Z" fill="#00ACB8"/>
<path d="M180.85 95.16C182.71 93.26 183.25 91.25 182.61 88.16C182.208 88.0097 181.843 87.7748 181.539 87.4711C181.235 87.1675 181 86.8022 180.85 86.4C180.348 86.5057 179.829 86.5088 179.326 86.4091C178.822 86.3094 178.344 86.1091 177.92 85.82C176.51 86.56 174.81 87 173.82 88.16C173.18 91.28 173.72 93.29 175.58 95.16C177.326 95.4299 179.104 95.4299 180.85 95.16Z" fill="#00ACB8"/>
<path d="M160.93 109.82C162.677 110.08 164.453 110.08 166.2 109.82C168.05 107.91 168.6 105.9 167.96 102.82C167.557 102.675 167.19 102.443 166.886 102.141C166.581 101.838 166.347 101.473 166.2 101.07C165.697 101.172 165.179 101.172 164.676 101.071C164.172 100.97 163.695 100.769 163.27 100.48C161.86 101.22 160.16 101.66 159.17 102.82C158.53 105.9 159.07 107.91 160.93 109.82Z" fill="#00ACB8"/>
<path d="M197.26 102.78C196.859 102.631 196.494 102.397 196.191 102.096C195.887 101.794 195.651 101.43 195.5 101.03C194.997 101.132 194.479 101.132 193.975 101.031C193.472 100.93 192.994 100.729 192.57 100.44C191.16 101.18 189.46 101.62 188.47 102.78C187.83 105.9 188.37 107.91 190.23 109.78C191.977 110.04 193.753 110.04 195.5 109.78C197.36 107.91 197.9 105.9 197.26 102.78Z" fill="#00ACB8"/>
<path d="M153.31 117.44C152.908 117.29 152.542 117.055 152.239 116.751C151.935 116.448 151.7 116.082 151.55 115.68C151.047 115.782 150.529 115.782 150.025 115.681C149.522 115.58 149.044 115.379 148.62 115.09C147.21 115.83 145.5 116.28 144.52 117.44C144.408 117.981 144.331 118.529 144.29 119.08L145.2 123.08C145.505 123.572 145.864 124.028 146.27 124.44C148.02 124.7 149.8 124.7 151.55 124.44C153.4 122.56 154 120.55 153.31 117.44Z" fill="#00ACB8"/>
<path d="M175.58 124.47C177.327 124.73 179.103 124.73 180.85 124.47C182.71 122.56 183.25 120.55 182.61 117.47C182.208 117.32 181.843 117.085 181.539 116.781C181.235 116.477 181 116.112 180.85 115.71C180.347 115.812 179.829 115.812 179.326 115.711C178.822 115.61 178.345 115.409 177.92 115.12C176.51 115.86 174.81 116.31 173.82 117.47C173.18 120.55 173.72 122.56 175.58 124.47Z" fill="#00ACB8"/>
<path d="M207.81 125.06V124.47C210.65 124.97 211.14 123.11 211.91 121.54V118.61C211.28 116.89 210.29 115.54 207.81 115.68C206.877 115.425 205.883 115.522 205.018 115.954C204.153 116.386 203.477 117.121 203.12 118.02C201.94 121.63 204.07 124.68 207.81 125.06Z" fill="#00ACB8"/>
<path d="M160.93 139.12C162.677 139.38 164.453 139.38 166.2 139.12C168.05 137.21 168.6 135.21 167.96 132.12C167.558 131.97 167.193 131.735 166.889 131.431C166.585 131.128 166.35 130.762 166.2 130.36C165.697 130.464 165.178 130.466 164.675 130.364C164.171 130.263 163.694 130.061 163.27 129.77C161.86 130.51 160.16 130.95 159.17 132.12C158.53 135.21 159.07 137.21 160.93 139.12Z" fill="#00ACB8"/>
<path d="M197.26 132.09C196.858 131.94 196.492 131.705 196.189 131.401C195.885 131.097 195.65 130.732 195.5 130.33C194.997 130.434 194.478 130.436 193.975 130.334C193.471 130.233 192.993 130.031 192.57 129.74C191.16 130.48 189.46 130.92 188.47 132.09C187.83 135.21 188.37 137.21 190.23 139.09C191.977 139.35 193.753 139.35 195.5 139.09C197.36 137.21 197.9 135.21 197.26 132.09Z" fill="#00ACB8"/>
<path d="M153.31 146.74C152.908 146.59 152.543 146.355 152.239 146.051C151.935 145.748 151.7 145.382 151.55 144.98C151.076 145.05 150.594 145.05 150.12 144.98L151.98 153.28C153.48 151.51 153.89 149.59 153.31 146.74Z" fill="#00ACB8"/>
<path d="M175.58 153.77C177.327 154.03 179.103 154.03 180.85 153.77C182.71 151.87 183.25 149.86 182.61 146.77C182.208 146.62 181.843 146.385 181.539 146.081C181.235 145.777 181 145.412 180.85 145.01C180.347 145.114 179.828 145.116 179.325 145.014C178.821 144.913 178.344 144.711 177.92 144.42C176.51 145.16 174.81 145.6 173.82 146.77C173.18 149.86 173.72 151.87 175.58 153.77Z" fill="#00ACB8"/>
<path d="M160.93 168.42C162.677 168.68 164.453 168.68 166.2 168.42C168.05 166.52 168.6 164.51 167.96 161.42C167.558 161.27 167.193 161.035 166.889 160.731C166.585 160.428 166.35 160.062 166.2 159.66C165.698 159.766 165.179 159.769 164.676 159.669C164.172 159.569 163.694 159.369 163.27 159.08C161.86 159.82 160.16 160.26 159.17 161.42C158.53 164.51 159.07 166.52 160.93 168.42Z" fill="#00ACB8"/>
<path d="M197.26 161.39C196.858 161.24 196.492 161.005 196.189 160.701C195.885 160.397 195.65 160.032 195.5 159.63C194.998 159.736 194.479 159.739 193.976 159.639C193.472 159.539 192.994 159.339 192.57 159.05C191.16 159.79 189.46 160.23 188.47 161.39C187.83 164.51 188.37 166.52 190.23 168.39C191.977 168.65 193.753 168.65 195.5 168.39C197.36 166.52 197.9 164.51 197.26 161.39Z" fill="#00ACB8"/>
<path d="M175.58 183.07C177.326 183.34 179.104 183.34 180.85 183.07C182.71 181.17 183.25 179.16 182.61 176.07C182.208 175.92 181.843 175.685 181.539 175.381C181.235 175.078 181 174.712 180.85 174.31C180.348 174.416 179.829 174.419 179.326 174.319C178.822 174.219 178.344 174.019 177.92 173.73C176.51 174.46 174.81 174.91 173.82 176.07C173.18 179.16 173.72 181.17 175.58 183.07Z" fill="#00ACB8"/>
<path d="M168 190.69C167.598 190.54 167.232 190.305 166.929 190.001C166.625 189.698 166.39 189.332 166.24 188.93C165.738 189.036 165.219 189.039 164.716 188.939C164.212 188.839 163.734 188.639 163.31 188.35C162.31 188.87 161.18 189.25 160.24 189.83L162.04 197.83C163.438 197.976 164.85 197.943 166.24 197.73C168.05 195.82 168.6 193.81 168 190.69Z" fill="#00ACB8"/>
<path d="M195.5 188.93C194.998 189.036 194.479 189.039 193.976 188.939C193.472 188.839 192.994 188.639 192.57 188.35C191.16 189.08 189.46 189.53 188.47 190.69C187.83 193.81 188.37 195.82 190.23 197.69C191.977 197.95 193.753 197.95 195.5 197.69C197.36 195.78 197.9 193.77 197.26 190.69C196.858 190.54 196.492 190.305 196.189 190.001C195.885 189.698 195.65 189.332 195.5 188.93V188.93Z" fill="#00ACB8"/>
<path d="M175.58 212.37C177.326 212.64 179.104 212.64 180.85 212.37C182.71 210.47 183.25 208.47 182.61 205.37C182.208 205.22 181.843 204.985 181.539 204.681C181.235 204.378 181 204.012 180.85 203.61C180.348 203.716 179.829 203.719 179.326 203.619C178.822 203.519 178.344 203.319 177.92 203.03C176.51 203.77 174.81 204.21 173.82 205.37C173.18 208.47 173.72 210.47 175.58 212.37Z" fill="#00ACB8"/>
<path d="M203.12 209.45C203.21 212.1 205.88 212.16 207.81 212.96V212.37C213.74 213.01 213.74 202.95 207.81 203.58V203C204.38 203.27 201.89 206.32 203.12 209.45Z" fill="#00ACB8"/>
<path d="M168 220C167.56 219.836 167.166 219.568 166.85 219.22L167.97 224.22C168.334 222.838 168.345 221.387 168 220V220Z" fill="#00ACB8"/>
<path d="M196.67 226.44C197.222 225.33 197.619 224.149 197.85 222.93C198.09 221.51 196.78 221.65 197.26 219.99C196.859 219.841 196.494 219.607 196.191 219.306C195.887 219.004 195.651 218.64 195.5 218.24C194.05 219 192.66 216.93 192.57 218.24H190.23C189.17 219.72 187.81 220.89 187.88 223.51C188.48 224.28 188.46 225.67 189.06 226.44C190.205 227.141 191.522 227.512 192.865 227.512C194.208 227.512 195.525 227.141 196.67 226.44V226.44Z" fill="#00ACB8"/>
<path d="M144.52 234.65C143.87 237.76 144.42 239.77 146.27 241.65C148.021 241.91 149.8 241.91 151.55 241.65C152.431 240.796 153.06 239.717 153.37 238.53C150.645 236.831 147.728 235.462 144.68 234.45C144.62 234.511 144.567 234.578 144.52 234.65Z" fill="#00ACB8"/>
<path d="M173.23 239.33C174.46 241.43 176.6 242.61 180.23 242.26C183.03 240.94 183.95 237.33 182.58 234.06C179.27 230.5 171.35 232.42 173.23 239.33Z" fill="#00ACB8"/>
<path d="M122.25 241.68C122.831 241.161 123.304 240.533 123.641 239.831C123.979 239.128 124.174 238.366 124.216 237.589C124.258 236.811 124.145 236.032 123.885 235.298C123.625 234.564 123.222 233.888 122.7 233.31C120.15 233.87 117.659 234.671 115.26 235.7C115.189 237.106 115.189 238.514 115.26 239.92C117.12 241.78 119.13 242.32 122.25 241.68Z" fill="#00ACB8"/>
<path d="M100.56 255.16C102.29 257.53 107.56 257.58 109.35 255.16C109.61 254.8 109.26 253.92 109.94 253.98C110.45 251.13 109.14 250.1 108.77 248.13C106.01 246.9 104.07 247.13 101.15 248.13C100.78 250.13 99.46 251.13 99.98 253.98C100.74 253.89 100.27 254.76 100.56 255.16Z" fill="#00ACB8"/>
<path d="M136.9 256.33C138.75 254.42 139.3 252.42 138.65 249.33C138.25 249.178 137.886 248.943 137.584 248.639C137.283 248.336 137.049 247.971 136.9 247.57C136.403 247.673 135.89 247.676 135.392 247.578C134.894 247.48 134.421 247.283 134 247C132.59 247.74 130.88 248.19 129.89 249.35C129.25 252.47 129.8 254.47 131.65 256.35C133.391 256.61 135.161 256.604 136.9 256.33Z" fill="#00ACB8"/>
<path d="M159.17 249.3C158.71 252.19 159 253.06 159.75 255.74C160.933 256.332 162.237 256.641 163.56 256.641C164.883 256.641 166.187 256.332 167.37 255.74C167.425 255.109 167.591 254.493 167.86 253.92C166.576 251.568 165.069 249.344 163.36 247.28C162.555 247.283 161.761 247.465 161.036 247.815C160.311 248.164 159.673 248.672 159.17 249.3V249.3Z" fill="#00ACB8"/>
<path d="M187.88 254C188.34 254.13 188.56 254.5 188.47 255.18C192.47 259.66 200.79 255.18 197.26 248.73C193.93 245.15 186 247.08 187.88 254Z" fill="#00ACB8"/>
<path d="M92.0001 261.81C91.0488 264.994 90.4879 268.281 90.33 271.6C93.88 271.36 97.15 267.84 94.7 263.36C93.9667 262.596 93.0297 262.058 92.0001 261.81Z" fill="#00ACB8"/>
<path d="M115.21 269.81C115.679 270.43 116.275 270.943 116.959 271.313C117.643 271.684 118.398 271.903 119.174 271.957C119.95 272.011 120.728 271.897 121.457 271.625C122.185 271.352 122.847 270.926 123.396 270.376C123.946 269.827 124.372 269.165 124.645 268.437C124.917 267.708 125.03 266.93 124.977 266.154C124.923 265.378 124.704 264.623 124.333 263.939C123.963 263.255 123.45 262.659 122.83 262.19C117.3 259.87 112.9 264.28 115.21 269.81Z" fill="#00ACB8"/>
<path d="M144.52 269.81C146.18 272.12 151.64 272.12 153.31 269.81C154.31 267.81 153.71 265.51 153.31 263.36C151.91 262.96 149.31 260.71 148.03 262.19C146.38 261.71 146.51 263.02 145.1 262.78C144.73 264.78 143.42 265.78 143.93 268.64C144.39 268.77 144.61 269.13 144.52 269.81Z" fill="#00ACB8"/>
<path d="M176.75 261.6C176.75 261.6 176.53 262.1 176.16 262.19C173.51 262.85 173.39 264.81 173.23 267.46C173.83 268.23 173.81 269.63 174.41 270.39C177.01 272.39 180.89 271.29 182.61 269.22C183.07 266.33 182.77 265.46 182.03 262.78C180.34 262.31 178.63 261.31 176.75 261.6Z" fill="#00ACB8"/>
<path d="M59.28 270.94C59.856 271.195 60.4654 271.367 61.0899 271.45C60.4899 271.27 59.89 271.09 59.28 270.94Z" fill="#00ACB8"/>
<path d="M19.6899 285.63C20.4487 284.917 21.0261 284.034 21.374 283.053C21.7219 282.072 21.8302 281.021 21.6899 279.99C19.6956 281.746 17.8771 283.692 16.2599 285.8C17.4061 285.858 18.555 285.801 19.6899 285.63V285.63Z" fill="#00ACB8"/>
<path d="M49 285.63C50.85 283.73 51.4 281.72 50.76 278.63C50.2083 278.009 49.5314 277.513 48.7739 277.172C48.0164 276.832 47.1954 276.656 46.365 276.656C45.5346 276.656 44.7136 276.832 43.956 277.172C43.1985 277.513 42.5216 278.009 41.9699 278.63C41.7669 280.602 41.9642 282.596 42.55 284.49C43.92 285.63 46.27 285.81 49 285.63Z" fill="#00ACB8"/>
<path d="M79.46 285C79.62 284.5 79.7801 284 79.9201 283.57C77.8701 281.246 75.5656 279.16 73.0501 277.35C71.2001 278.57 70.1501 280.91 71.2601 283.83C73.3601 286.17 76.32 286.31 79.46 285Z" fill="#00ACB8"/>
<path d="M100 283.29C100.45 283.42 100.68 283.78 100.58 284.46C104.58 288.71 112.83 284.57 109.37 278.01C106 274.45 98.1001 276.38 100 283.29Z" fill="#00ACB8"/>
<path d="M129.28 283.29C129.74 283.42 129.96 283.78 129.86 284.46C133.86 288.94 142.19 284.46 138.65 278.01C135.32 274.45 127.4 276.38 129.28 283.29Z" fill="#00ACB8"/>
<path d="M159.75 285C160.931 285.597 162.237 285.908 163.56 285.908C164.884 285.908 166.189 285.597 167.37 285C168.14 282.58 168.92 280.72 167.96 278C166.23 276.31 163.17 275.89 160.34 276.83C158.2 278.85 158.51 282.32 159.75 285Z" fill="#00ACB8"/>
<path d="M195.5 285.63C197.36 283.73 197.9 281.72 197.26 278.63C196.858 278.48 196.492 278.245 196.189 277.941C195.885 277.638 195.65 277.272 195.5 276.87C194.997 276.977 194.478 276.979 193.974 276.878C193.47 276.776 192.992 276.573 192.57 276.28C191.16 277.03 189.46 277.47 188.47 278.63C187.83 281.75 188.37 283.76 190.23 285.63C191.976 285.9 193.754 285.9 195.5 285.63Z" fill="#00ACB8"/>
<path d="M63.64 300.28C65.5 298.38 66.04 296.37 65.4 293.28C64.8483 292.659 64.1714 292.163 63.4139 291.822C62.6564 291.482 61.8354 291.306 61.0049 291.306C60.1745 291.306 59.3535 291.482 58.596 291.822C57.8385 292.163 57.1616 292.659 56.6099 293.28C56.4063 295.252 56.6036 297.246 57.1899 299.14C58.5699 300.28 60.92 300.46 63.64 300.28Z" fill="#00ACB8"/>
<path d="M88.9101 300.4C88.245 297.843 87.3306 295.358 86.1802 292.98C86.0902 293.07 85.9901 293.16 85.9101 293.25C85.2701 296.37 85.8101 298.38 87.6701 300.25L88.9101 300.4Z" fill="#00ACB8"/>
<path d="M94.6999 293.25C94.2977 293.1 93.9325 292.865 93.6288 292.561C93.3252 292.258 93.0902 291.892 92.9399 291.49C92.0271 291.672 91.0796 291.519 90.27 291.06V300.48C90.9 300.48 91.5199 300.42 92.9399 300.28C94.7999 298.38 95.3399 296.37 94.6999 293.25Z" fill="#00ACB8"/>
<path d="M122.25 291.49C121.748 291.596 121.229 291.599 120.726 291.499C120.222 291.399 119.744 291.199 119.32 290.91C117.9 291.65 116.2 292.09 115.21 293.25C114.57 296.37 115.12 298.38 116.97 300.25C118.72 300.52 120.5 300.52 122.25 300.25C124.1 298.35 124.64 296.34 124.01 293.25C123.605 293.104 123.237 292.871 122.933 292.567C122.629 292.263 122.395 291.895 122.25 291.49Z" fill="#00ACB8"/>
<path d="M153.31 293.25C152.908 293.1 152.543 292.865 152.239 292.561C151.935 292.258 151.7 291.892 151.55 291.49C151.048 291.596 150.529 291.599 150.026 291.499C149.522 291.399 149.044 291.199 148.62 290.91C147.21 291.65 145.5 292.09 144.52 293.25C143.87 296.37 144.42 298.38 146.27 300.25C148.02 300.52 149.8 300.52 151.55 300.25C153.4 298.38 154 296.37 153.31 293.25Z" fill="#00ACB8"/>
<path d="M182.61 293.25C182.208 293.1 181.843 292.865 181.539 292.561C181.235 292.258 181 291.892 180.85 291.49C180.348 291.596 179.829 291.599 179.326 291.499C178.822 291.399 178.344 291.199 177.92 290.91C176.51 291.65 174.81 292.09 173.82 293.25C173.18 296.37 173.72 298.38 175.58 300.25C177.326 300.52 179.104 300.52 180.85 300.25C182.71 298.38 183.25 296.37 182.61 293.25Z" fill="#00ACB8"/>
<path d="M34.9201 299.7C36.2801 298.27 36.46 294.7 35.51 292.7C34.14 291.54 31.7801 291.35 29.0601 291.53C27.1201 292.66 26.78 296.7 27.89 299.15C29.33 300.48 32.8401 300.65 34.9201 299.7Z" fill="#00ACB8"/>
<path d="M77.71 306.15C74.71 305.4 70.5801 306.15 71.2601 310.83C71.0101 313.23 72.5 313.89 73.6 314.94H76.5301C78.6401 314.5 80.4501 313.77 80.0501 310.83C80.3049 309.899 80.207 308.906 79.7752 308.042C79.3434 307.179 78.608 306.505 77.71 306.15V306.15Z" fill="#00ACB8"/>
<path d="M107 306.15C104 305.4 99.8701 306.15 100.55 310.83C100.3 313.23 101.79 313.89 102.9 314.94H106.41C108.13 314.31 109.48 313.31 109.34 310.83C109.597 309.899 109.5 308.905 109.068 308.041C108.636 307.177 107.899 306.503 107 306.15V306.15Z" fill="#00ACB8"/>
<path d="M132.8 306.15C130.62 306.52 129.53 307.95 129.86 310.83C129.23 316.76 139.29 316.76 138.65 310.83H139.24C139 307.4 135.92 304.91 132.8 306.15Z" fill="#00ACB8"/>
<path d="M159.17 310.83C158.53 316.76 168.59 316.76 167.96 310.83H168.54C167.86 308.98 167.54 306.71 165.62 306.15C162.01 304.97 158.96 307.09 158.62 310.83H159.17Z" fill="#00ACB8"/>
<path d="M194.92 306.15C191.31 304.97 188.26 307.09 187.92 310.83H188.51C187.88 316.76 197.93 316.76 197.3 310.83H197.89C197.16 309 196.89 306.71 194.92 306.15Z" fill="#00ACB8"/>
<path d="M15 314.94H18.51C20.23 314.31 21.58 313.31 21.44 310.83C21.82 308.12 20.38 307.21 19.1 306.15H15C13.46 306.95 12.46 308.3 12.65 310.83C12.4 313.23 13.89 313.89 15 314.94Z" fill="#00ACB8"/>
<path d="M45.4701 314.94C48.9301 315.27 50.0301 313.24 50.7501 310.83C50.3101 307.94 49.0701 305.83 45.4701 306.15C43.0201 306.42 41.7401 307.89 41.9601 310.83C41.9101 313.42 43.2001 314.66 45.4701 314.94Z" fill="#00ACB8"/>
<path d="M153.31 322.56C152.907 322.409 152.541 322.172 152.237 321.867C151.934 321.561 151.699 321.194 151.55 320.79C151.048 320.896 150.529 320.899 150.026 320.799C149.522 320.699 149.044 320.499 148.62 320.21C147.21 320.95 145.5 321.39 144.52 322.56C143.87 325.68 144.42 327.68 146.27 329.56C148.021 329.82 149.8 329.82 151.55 329.56C153.4 327.68 154 325.68 153.31 322.56Z" fill="#00ACB8"/>
<path d="M182.61 322.56C182.207 322.409 181.841 322.172 181.537 321.867C181.234 321.561 180.999 321.194 180.85 320.79C180.348 320.896 179.829 320.899 179.326 320.799C178.822 320.699 178.344 320.499 177.92 320.21C176.51 320.95 174.81 321.39 173.82 322.56C173.18 325.68 173.72 327.68 175.58 329.56C177.327 329.82 179.103 329.82 180.85 329.56C182.71 327.68 183.25 325.68 182.61 322.56Z" fill="#00ACB8"/>
<path d="M203.12 323.14V326.65C203.77 328.55 204.99 329.87 207.81 329.59C211.21 329.67 212.25 327.38 211.91 323.73C211.52 321.73 210.41 320.54 207.81 320.79V320.21C206 320.9 203.68 321.16 203.12 323.14Z" fill="#00ACB8"/>
<path d="M29.06 321.38C26.14 324.09 27.2099 330.38 32.5799 329.59C35.5099 328.83 36.6299 325.75 35.5099 322.59C33.6199 320.9 32 320.85 29.06 321.38Z" fill="#00ACB8"/>
<path d="M64.8101 322C63.6201 320.93 60.06 320.14 58.37 321.41C56.11 322.08 56.37 326.41 57.19 328.41C58.81 329.99 63.1901 329.99 64.8101 328.41C65.5967 326.346 65.5967 324.064 64.8101 322V322Z" fill="#00ACB8"/>
<path d="M85.91 325.48C86.16 326.6 87.1699 326.95 87.0799 328.41C89.6499 329.18 90.0799 329.46 92.9399 329C94.0432 327.683 94.6641 326.028 94.6999 324.31C94.0499 319.51 85.36 319.78 85.91 325.48Z" fill="#00ACB8"/>
<path d="M117 321.38C114.74 322.05 115 326.38 115.83 328.38C117.83 330.26 122.61 329.77 124.04 327.8V322.53C123.05 320.92 119.11 320 117 321.38Z" fill="#00ACB8"/>
<path d="M166.2 344.24C168.05 342.34 168.6 340.33 167.96 337.24C167.555 337.094 167.187 336.861 166.883 336.557C166.579 336.253 166.346 335.885 166.2 335.48C165.698 335.588 165.179 335.592 164.675 335.493C164.171 335.393 163.693 335.191 163.27 334.9C161.86 335.64 160.16 336.08 159.17 337.24C158.53 340.37 159.07 342.38 160.93 344.24C162.677 344.5 164.453 344.5 166.2 344.24Z" fill="#00ACB8"/>
<path d="M14.41 344.24H19.6899C21.3999 343.02 21.6899 340.44 21.4399 337.24C19.1799 335.63 16.6499 334.51 14.4399 335.48C14.9399 335.27 12.9 336.82 12.68 337.24C12.2973 338.382 12.2973 339.618 12.68 340.76C13.32 342.91 13.2 342.81 14.41 344.24Z" fill="#00ACB8"/>
<path d="M50.1599 336.62C48.9699 335.55 45.4099 334.76 43.7099 336.03C41.2199 336.83 41.6199 342.03 43.1299 343.65C47.9999 346.07 52.5799 341.53 50.1599 336.62Z" fill="#00ACB8"/>
<path d="M71.26 340.14C71.51 341.25 72.5201 341.61 72.4301 343.06C75.1201 344.06 76.19 344.06 78.88 343.06C79.88 340.38 79.88 339.3 78.88 336.62C76.47 335.26 73.75 335.33 71.88 337.2C72.33 338.86 71 338.72 71.26 340.14Z" fill="#00ACB8"/>
<path d="M108.18 343.06C109.18 340.38 109.18 339.3 108.18 336.62C105.5 335.62 104.42 335.62 101.73 336.62C100.73 339.3 100.73 340.38 101.73 343.06C104.42 344.09 105.5 344.09 108.18 343.06Z" fill="#00ACB8"/>
<path d="M136.9 335.44C130.78 333.88 128.53 338.44 130.45 343.06C131.82 344.23 134.18 344.41 136.9 344.24C137.521 343.687 138.018 343.01 138.358 342.251C138.698 341.493 138.874 340.671 138.874 339.84C138.874 339.009 138.698 338.187 138.358 337.429C138.018 336.67 137.521 335.993 136.9 335.44V335.44Z" fill="#00ACB8"/>
<path d="M196.09 343.65C197.96 341.65 197.47 336.87 195.5 335.44C189.35 334.28 187.25 337.92 188.5 342.44C189.83 344.19 193.55 344.85 196.09 343.65Z" fill="#00ACB8"/>
<path d="M153.31 351.85C152.757 351.232 152.079 350.738 151.322 350.399C150.565 350.061 149.744 349.886 148.915 349.886C148.086 349.886 147.265 350.061 146.508 350.399C145.751 350.738 145.073 351.232 144.52 351.85C144.311 353.826 144.509 355.823 145.1 357.72C146.48 358.88 148.83 359.07 151.55 358.89C153.4 357 154 355 153.31 351.85Z" fill="#00ACB8"/>
<path d="M180.85 358.89C182.85 357.46 183.31 352.66 181.44 350.68C180.69 349.87 178.67 350.33 177.92 349.51C176.51 350.25 174.81 350.7 173.82 351.85C173.56 353.6 173.56 355.38 173.82 357.13C175.72 359 177.73 359.53 180.85 358.89Z" fill="#00ACB8"/>
<path d="M32.58 358.89C35.63 358.41 37.09 354.59 35.51 351.27C31.57 347.89 24.75 351.67 27.89 357.13C29.2075 358.233 30.8619 358.854 32.58 358.89V358.89Z" fill="#00ACB8"/>
<path d="M64.2299 351.27C61.5399 350.27 60.46 350.27 57.78 351.27C56.78 353.96 56.78 355.03 57.78 357.72C60.46 358.72 61.5399 358.72 64.2299 357.72C65.2499 355 65.2499 354 64.2299 351.27Z" fill="#00ACB8"/>
<path d="M93.5301 351.27C90.8501 350.27 89.77 350.27 87.08 351.27C86.08 353.96 86.08 355.03 87.08 357.72C89.77 358.72 90.8501 358.72 93.5301 357.72C94.5601 355 94.5601 354 93.5301 351.27Z" fill="#00ACB8"/>
<path d="M124 353.61C123.23 350.7 120.31 349.41 117 350.68C116.458 351.072 116.007 351.576 115.678 352.159C115.35 352.742 115.152 353.39 115.099 354.056C115.045 354.723 115.137 355.394 115.368 356.022C115.599 356.65 115.964 357.22 116.437 357.693C116.91 358.166 117.48 358.531 118.108 358.762C118.736 358.993 119.407 359.085 120.074 359.031C120.741 358.978 121.388 358.78 121.971 358.452C122.554 358.123 123.058 357.672 123.45 357.13C123 355.34 124.43 355.41 124 353.61Z" fill="#00ACB8"/>
<path d="M207.81 358.89C208.93 358.64 209.28 357.62 210.74 357.72C211.06 356.67 211.04 355.28 211.91 354.79C211.05 352.92 210.91 350.27 207.81 350.68V350.1C205.45 350.67 203.69 351.84 203.12 354.2C203.111 354.819 203.226 355.433 203.458 356.006C203.69 356.579 204.035 357.1 204.473 357.537C204.91 357.975 205.431 358.32 206.004 358.552C206.578 358.785 207.192 358.899 207.81 358.89Z" fill="#00ACB8"/>
<path d="M160.93 373.54C162.676 373.81 164.454 373.81 166.2 373.54C168.05 371.63 168.6 369.63 167.96 366.54C167.558 366.39 167.193 366.155 166.889 365.851C166.585 365.548 166.35 365.182 166.2 364.78C165.698 364.886 165.179 364.889 164.676 364.789C164.172 364.689 163.694 364.489 163.27 364.2C161.86 364.93 160.16 365.38 159.17 366.54C158.53 369.63 159.07 371.63 160.93 373.54Z" fill="#00ACB8"/>
<path d="M13.83 365.92C12.83 368.61 12.83 369.69 13.83 372.37C16.51 373.37 17.5901 373.37 20.2701 372.37C21.2701 369.69 21.2701 368.61 20.2701 365.92C17.5901 364.9 16.51 364.9 13.83 365.92Z" fill="#00ACB8"/>
<path d="M49.58 372.37C50.58 369.69 50.58 368.61 49.58 365.92C46.89 364.92 45.8101 364.92 43.1301 365.92C42.1301 368.61 42.1301 369.69 43.1301 372.37C45.8101 373.4 46.89 373.4 49.58 372.37Z" fill="#00ACB8"/>
<path d="M72.4301 365.92C71.4301 368.61 71.4301 369.69 72.4301 372.37C75.1201 373.37 76.1901 373.37 78.8801 372.37C79.8801 369.69 79.8801 368.61 78.8801 365.92C76.1901 364.9 75.1201 364.9 72.4301 365.92Z" fill="#00ACB8"/>
<path d="M101.73 372.37C104.42 373.37 105.5 373.37 108.18 372.37C109.18 369.69 109.18 368.61 108.18 365.92C105.5 364.92 104.42 364.92 101.73 365.92C100.71 368.61 100.71 369.69 101.73 372.37Z" fill="#00ACB8"/>
<path d="M132.21 365.34C131.522 365.812 130.926 366.405 130.45 367.09C129.88 368.56 130.45 370.66 131.04 372.37C133.6 373.14 133.98 373.37 136.9 372.96C137.673 372.099 138.192 371.04 138.398 369.901C138.605 368.762 138.491 367.588 138.07 366.51C137.308 365.774 136.35 365.273 135.312 365.065C134.273 364.858 133.196 364.953 132.21 365.34V365.34Z" fill="#00ACB8"/>
<path d="M188.47 371.78C189.021 372.402 189.697 372.9 190.455 373.241C191.213 373.582 192.034 373.759 192.865 373.759C193.696 373.759 194.517 373.582 195.275 373.241C196.033 372.9 196.709 372.402 197.26 371.78C197.465 369.807 197.264 367.813 196.67 365.92C191.64 362.53 186.37 366.64 188.47 371.78Z" fill="#00ACB8"/>
<path d="M175.58 388.19C177.326 388.46 179.104 388.46 180.85 388.19C182.71 386.29 183.25 384.28 182.61 381.19C182.208 381.04 181.843 380.805 181.539 380.501C181.235 380.198 181 379.832 180.85 379.43C180.347 379.537 179.828 379.539 179.324 379.438C178.82 379.336 178.343 379.133 177.92 378.84C176.51 379.58 174.81 380.03 173.82 381.19C173.18 384.28 173.72 386.29 175.58 388.19Z" fill="#00ACB8"/>
<path d="M34.92 387C35.92 384.32 35.92 383.24 34.92 380.55C32.24 379.55 31.1599 379.55 28.4799 380.55C27.4799 383.24 27.4799 384.32 28.4799 387C31.1599 388.05 32.24 388.05 34.92 387Z" fill="#00ACB8"/>
<path d="M57.78 380.57C56.78 383.26 56.78 384.34 57.78 387.02C60.46 388.02 61.5399 388.02 64.2299 387.02C65.2299 384.34 65.2299 383.26 64.2299 380.57C61.5399 379.55 60.46 379.55 57.78 380.57Z" fill="#00ACB8"/>
<path d="M87.08 380.57C86.08 383.26 86.08 384.34 87.08 387.02C89.77 388.02 90.8501 388.02 93.5301 387.02C94.5301 384.34 94.5301 383.26 93.5301 380.57C90.8501 379.55 89.77 379.55 87.08 380.57Z" fill="#00ACB8"/>
<path d="M116.39 380.57C115.39 383.26 115.39 384.34 116.39 387.02C119.07 388.02 120.15 388.02 122.83 387.02C123.83 384.34 123.83 383.26 122.83 380.57C120.15 379.55 119.07 379.55 116.39 380.57Z" fill="#00ACB8"/>
<path d="M144.52 384.09C144.76 387.98 149.76 389.15 152.72 387.02C153.51 384.943 153.51 382.647 152.72 380.57C149.82 378.18 144 379.6 144.52 384.09Z" fill="#00ACB8"/>
<path d="M207.81 388.19C213.74 388.82 213.74 378.77 207.81 379.4C206.876 379.145 205.881 379.244 205.016 379.678C204.15 380.112 203.475 380.849 203.12 381.75C202.37 384.79 203.16 388.88 207.81 388.19Z" fill="#00ACB8"/>
<path d="M195.5 394.05C194.05 394.81 192.66 392.75 192.57 394.05C190.02 393.45 189.88 395.27 188.47 395.81C187.72 399.09 188.28 401.5 190.23 403.43C195.54 404.98 198.76 401.19 197.23 395.81C196.833 395.656 196.474 395.42 196.176 395.116C195.877 394.813 195.647 394.449 195.5 394.05V394.05Z" fill="#00ACB8"/>
<path d="M12.6501 401.67C13.2017 402.291 13.8786 402.787 14.6362 403.128C15.3937 403.468 16.2147 403.644 17.0451 403.644C17.8755 403.644 18.6965 403.468 19.454 403.128C20.2116 402.787 20.8883 402.291 21.44 401.67C21.86 398.67 20.6401 397.39 20.2701 395.22C17.5901 394.22 16.51 394.22 13.83 395.22C13.6249 396.724 13.0168 398.144 12.07 399.33C12.94 399.44 12.6101 400.74 12.6501 401.67Z" fill="#00ACB8"/>
<path d="M42.54 402.25C44.16 403.83 48.54 403.83 50.16 402.25C51.45 399.84 50.16 397.45 49.58 395.25C46.89 394.25 45.81 394.25 43.13 395.25C42.56 397.45 41.25 399.84 42.54 402.25Z" fill="#00ACB8"/>
<path d="M71.2601 401.67C71.8118 402.291 72.4887 402.787 73.2462 403.128C74.0037 403.468 74.8247 403.644 75.6551 403.644C76.4856 403.644 77.3066 403.468 78.0641 403.128C78.8216 402.787 79.4985 402.291 80.0502 401.67C80.4702 398.67 79.2501 397.39 78.8801 395.22C76.1901 394.22 75.1202 394.22 72.4302 395.22C72.0602 397.39 70.8401 398.71 71.2601 401.67Z" fill="#00ACB8"/>
<path d="M101.15 402.25C102.77 403.83 107.15 403.83 108.77 402.25C110.06 399.84 108.77 397.45 108.18 395.25C105.5 394.25 104.42 394.25 101.73 395.25C101.16 397.45 99.86 399.84 101.15 402.25Z" fill="#00ACB8"/>
<path d="M137.48 395.22C134.8 394.22 133.72 394.22 131.04 395.22C130.47 397.45 129.16 399.84 130.45 402.22C132.32 403.99 137.45 403.85 138.65 401.64C138.548 401.137 138.548 400.619 138.649 400.115C138.75 399.612 138.951 399.134 139.24 398.71C137.82 398.4 137.94 396.53 137.48 395.22Z" fill="#00ACB8"/>
<path d="M159.17 401.67C161.07 403.52 163.08 404.07 166.17 403.43C166.814 402.83 167.327 402.104 167.678 401.297C168.029 400.49 168.211 399.62 168.211 398.74C168.211 397.86 168.029 396.99 167.678 396.183C167.327 395.376 166.814 394.65 166.17 394.05C159.86 392.86 158.08 397.11 159.17 401.67Z" fill="#00ACB8"/>
<path d="M29.06 418.08C31.28 419.31 34.38 417.94 36.06 416.32V411.05C35.5074 410.429 34.8296 409.932 34.0712 409.592C33.3129 409.252 32.4912 409.076 31.66 409.076C30.8288 409.076 30.007 409.252 29.2486 409.592C28.4903 409.932 27.8125 410.429 27.26 411.05C26.83 414.14 27.18 417 29.06 418.08Z" fill="#00ACB8"/>
<path d="M153.31 416.91C156.03 410.32 148.51 406.39 144.52 411.05C142.24 417.07 149 420.67 153.31 416.91Z" fill="#00ACB8"/>
<path d="M182.61 416.91C183.19 415 183.19 412.96 182.61 411.05C181.41 410.27 178.96 407.7 177.34 409.29C175.49 409.01 175.04 410.12 173.82 410.46C173.41 412.61 172.82 414.92 173.82 416.91C175.49 419.22 180.94 419.22 182.61 416.91Z" fill="#00ACB8"/>
<path d="M63.64 418.08C64.2607 417.528 64.7574 416.851 65.0976 416.094C65.4378 415.336 65.6137 414.515 65.6137 413.685C65.6137 412.855 65.4378 412.034 65.0976 411.276C64.7574 410.519 64.2607 409.842 63.64 409.29C58.15 408.49 55.64 410.63 56.64 416.29C58.51 418.17 60.52 418.72 63.64 418.08Z" fill="#00ACB8"/>
<path d="M87.67 418.08C90.39 418.26 92.74 418.08 94.12 416.91C94.9103 414.833 94.9103 412.537 94.12 410.46C88.79 406.41 83.83 411.94 85.91 416.32C86.29 417.12 87.58 416.84 87.67 418.08Z" fill="#00ACB8"/>
<path d="M115.21 416.32C116.43 418.04 119.02 418.38 122.21 418.08C123.91 416.72 124.58 413 123.38 410.46C119.54 407.58 113.36 409.86 115.21 416.32Z" fill="#00ACB8"/>
<path d="M19.6899 432.73C21.5399 430.83 22.0799 428.82 21.4399 425.73C21.0372 425.583 20.6718 425.349 20.3694 425.044C20.067 424.74 19.8351 424.374 19.6899 423.97C19.1877 424.076 18.6693 424.079 18.1658 423.979C17.6623 423.879 17.1842 423.679 16.76 423.39C15.35 424.12 13.64 424.57 12.65 425.73C12.01 428.85 12.56 430.86 14.41 432.73C16.1597 433 17.9403 433 19.6899 432.73Z" fill="#00ACB8"/>
<path d="M48.9999 432.73C50.8499 430.83 51.3999 428.82 50.7599 425.73C50.3577 425.58 49.9924 425.345 49.6888 425.041C49.3851 424.738 49.1502 424.372 48.9999 423.97C48.4977 424.076 47.9793 424.079 47.4758 423.979C46.9723 423.879 46.494 423.679 46.0699 423.39C44.6599 424.12 42.9499 424.57 41.9699 425.73C41.3299 428.85 41.8699 430.86 43.7199 432.73C45.4695 433 47.2503 433 48.9999 432.73V432.73Z" fill="#00ACB8"/>
<path d="M71.26 425.7C70.62 428.82 71.16 430.83 73.02 432.7H78.29C80.01 431.48 80.35 428.9 80.05 425.7C79.4984 425.079 78.8215 424.583 78.0639 424.242C77.3064 423.902 76.4854 423.726 75.655 423.726C74.8246 423.726 74.0036 423.902 73.2461 424.242C72.4885 424.583 71.8117 425.079 71.26 425.7V425.7Z" fill="#00ACB8"/>
<path d="M158.58 430.39C159.04 430.52 159.26 430.88 159.17 431.56C163.12 436.04 171.49 431.56 167.96 425.11C164.62 421.55 156.7 423.48 158.58 430.39Z" fill="#00ACB8"/>
<path d="M191.4 423.94C190.306 424.305 189.306 424.906 188.47 425.7C187.35 427.7 188.78 429.78 189.06 432.15C191.06 432.52 192.06 433.83 194.92 433.32C197.83 431.87 198.4 428.76 197.26 425.11C196.43 424.495 195.474 424.071 194.461 423.868C193.448 423.666 192.403 423.69 191.4 423.94V423.94Z" fill="#00ACB8"/>
<path d="M101.15 431.56C102.52 432.73 104.88 432.91 107.6 432.73C108.221 432.178 108.717 431.501 109.058 430.744C109.398 429.986 109.574 429.165 109.574 428.335C109.574 427.505 109.398 426.684 109.058 425.926C108.717 425.169 108.221 424.492 107.6 423.94C101.64 422.54 99.1699 426.88 101.15 431.56Z" fill="#00ACB8"/>
<path d="M136.9 432.73C137.521 432.178 138.017 431.501 138.358 430.744C138.698 429.986 138.874 429.165 138.874 428.335C138.874 427.505 138.698 426.684 138.358 425.926C138.017 425.169 137.521 424.492 136.9 423.94C135.31 424.3 132.25 423.2 131.62 424.53C129.28 424.92 129.92 428.3 129.86 430.98C131.77 432.83 133.78 433.37 136.9 432.73Z" fill="#00ACB8"/>
<path d="M26.7199 443.28C27.2746 444.392 27.6686 445.577 27.89 446.8C32.57 449.54 38.0999 445.95 36.0999 440.35C33.3899 436.94 26.7599 437.93 26.7199 443.28Z" fill="#00ACB8"/>
<path d="M56.61 440.35C56.13 443.44 56.49 446.35 58.37 447.35C60.58 448.57 63.68 447.2 65.37 445.59V440.31C64.8157 439.697 64.1384 439.207 63.3821 438.874C62.6259 438.54 61.8077 438.369 60.9811 438.373C60.1545 438.377 59.3379 438.555 58.5847 438.895C57.8316 439.236 57.1587 439.732 56.61 440.35Z" fill="#00ACB8"/>
<path d="M122.25 438.59C121.748 438.696 121.229 438.699 120.726 438.599C120.222 438.499 119.744 438.299 119.32 438.01C117.9 438.74 116.2 439.19 115.21 440.35C114.57 443.47 115.12 445.48 116.97 447.35C118.72 447.61 120.499 447.61 122.25 447.35C124.1 445.44 124.64 443.43 124.01 440.35C123.605 440.204 123.237 439.971 122.933 439.667C122.629 439.363 122.395 438.995 122.25 438.59V438.59Z" fill="#00ACB8"/>
<path d="M151 438C148.15 437.49 147.11 438.8 145.14 439.17C144.29 441.75 143.99 442.62 144.56 445.62C145.506 446.645 146.739 447.362 148.098 447.676C149.458 447.989 150.88 447.887 152.18 447.38C153.79 445.81 154.8 442.15 153.35 439.76C152.68 438.73 151.43 439.09 151 438Z" fill="#00ACB8"/>
<path d="M173.23 445C173.69 445.13 173.92 445.49 173.82 446.17C177.82 450.66 186.14 446.17 182.61 439.73C179.27 436.2 171.35 438.13 173.23 445Z" fill="#00ACB8"/>
<path d="M94.6998 440.35C91.4798 436.81 83.6999 438.57 85.9099 445.63C88.9999 449.39 96.6498 448 94.6998 440.35Z" fill="#00ACB8"/>
<path d="M15.1801 453.39C16.3501 456.39 17.6301 459.31 19.0501 462.27C19.6972 462.106 20.31 461.828 20.86 461.45C22.53 459.17 21.86 456.33 20.86 453.83C20.0199 453.302 19.0639 452.985 18.0744 452.909C17.0849 452.832 16.0916 452.997 15.1801 453.39V453.39Z" fill="#00ACB8"/>
<path d="M48.9999 462C50.8499 460.1 51.3999 458.09 50.7599 455C50.3577 454.85 49.9924 454.615 49.6888 454.311C49.3851 454.008 49.1502 453.642 48.9999 453.24C48.4977 453.346 47.9793 453.349 47.4758 453.249C46.9723 453.149 46.494 452.949 46.0699 452.66C44.6599 453.39 42.9499 453.84 41.9699 455C41.3299 458.12 41.8699 460.13 43.7199 462C45.4695 462.27 47.2503 462.27 48.9999 462V462Z" fill="#00ACB8"/>
<path d="M102.32 462C104.069 462.27 105.85 462.27 107.6 462C109.45 460.1 109.99 458.09 109.35 455C108.947 454.853 108.582 454.619 108.279 454.314C107.977 454.01 107.745 453.644 107.6 453.24C107.096 453.346 106.576 453.35 106.071 453.25C105.565 453.151 105.086 452.95 104.66 452.66C103.25 453.39 101.55 453.84 100.56 455C99.92 458.12 100.47 460.13 102.32 462Z" fill="#00ACB8"/>
<path d="M136.9 453.24C136.398 453.346 135.879 453.349 135.376 453.249C134.872 453.149 134.394 452.949 133.97 452.66C132.56 453.39 130.85 453.84 129.86 455C129.22 458.12 129.77 460.13 131.62 462C133.37 462.27 135.15 462.27 136.9 462C138.75 460.1 139.3 458.09 138.65 455C138.25 454.848 137.886 454.613 137.584 454.309C137.283 454.006 137.049 453.641 136.9 453.24V453.24Z" fill="#00ACB8"/>
<path d="M158.58 459.69C159.04 459.82 159.26 460.18 159.17 460.86C163.12 465.35 171.49 460.86 167.96 454.42C164.62 450.85 156.7 452.78 158.58 459.69Z" fill="#00ACB8"/>
<path d="M195.5 453.24C194.998 453.346 194.479 453.349 193.976 453.249C193.472 453.149 192.994 452.949 192.57 452.66C191.16 453.39 189.46 453.84 188.47 455C187.83 458.12 188.37 460.13 190.23 462C191.976 462.27 193.754 462.27 195.5 462C197.36 460.1 197.9 458.09 197.26 455C196.858 454.85 196.492 454.615 196.189 454.311C195.885 454.008 195.65 453.642 195.5 453.24V453.24Z" fill="#00ACB8"/>
<path d="M78.2901 453.24C72.2901 452.24 69.9801 455.65 71.2901 460.24C73.1901 462.1 75.2001 462.64 78.2901 462C78.9059 461.448 79.3984 460.773 79.7356 460.019C80.0728 459.264 80.247 458.447 80.247 457.62C80.247 456.793 80.0728 455.976 79.7356 455.221C79.3984 454.467 78.9059 453.791 78.2901 453.24V453.24Z" fill="#00ACB8"/>
<path d="M26.7199 472.59C27.2762 473.698 27.6702 474.88 27.89 476.1C30.89 477.65 34.1499 477.22 36.0999 474.93C36.3595 473.18 36.3595 471.4 36.0999 469.65C33.3899 466.25 26.7599 467.23 26.7199 472.59Z" fill="#00ACB8"/>
<path d="M65.4001 474.93C65.6596 473.18 65.6596 471.4 65.4001 469.65C62.1001 465.65 55.6201 467.99 56.0201 473.17C56.0901 474.07 56.82 474.96 57.19 476.1C59.8 478.06 63.6801 477 65.4001 474.93Z" fill="#00ACB8"/>
<path d="M92.94 467.89C92.4377 467.995 91.9195 467.998 91.4161 467.898C90.9127 467.799 90.4345 467.599 90.0101 467.31C88.6001 468.05 86.9001 468.49 85.9101 469.65C85.2701 472.78 85.8101 474.78 87.6701 476.65C89.4164 476.92 91.1937 476.92 92.94 476.65C94.8 474.75 95.3401 472.75 94.7001 469.65C94.2978 469.5 93.9326 469.265 93.629 468.961C93.3254 468.657 93.0904 468.292 92.94 467.89V467.89Z" fill="#00ACB8"/>
<path d="M122.25 467.89C121.748 467.996 121.229 467.999 120.726 467.899C120.222 467.799 119.744 467.599 119.32 467.31C117.9 468.05 116.2 468.49 115.21 469.65C114.57 472.78 115.12 474.78 116.97 476.65C118.72 476.92 120.5 476.92 122.25 476.65C124.1 474.75 124.64 472.75 124.01 469.65C123.604 469.506 123.236 469.273 122.931 468.968C122.627 468.664 122.394 468.296 122.25 467.89V467.89Z" fill="#00ACB8"/>
<path d="M151.55 467.89C151.048 467.996 150.529 467.999 150.026 467.899C149.522 467.799 149.044 467.599 148.62 467.31C147.21 468.05 145.5 468.49 144.52 469.65C143.87 472.78 144.42 474.78 146.27 476.65C148.02 476.92 149.8 476.92 151.55 476.65C153.4 474.75 153.95 472.75 153.31 469.65C152.905 469.504 152.537 469.271 152.233 468.967C151.929 468.663 151.696 468.295 151.55 467.89V467.89Z" fill="#00ACB8"/>
<path d="M173.82 469.65C172.55 471.95 173.88 474.65 175.58 476.65H180.85C182.71 474.75 183.25 472.75 182.61 469.65C180.13 466.72 175.08 467.38 173.82 469.65Z" fill="#00ACB8"/>
<path d="M42.0001 483.72C41.5401 484.43 41.7601 486.06 41.4101 487.24C41.9301 491.84 47.5401 492.91 50.7901 490.17C51.1901 488.02 51.7901 485.71 50.7901 483.72C49.0001 481.67 43.7401 480.91 42.0001 483.72Z" fill="#00ACB8"/>
<path d="M72.4301 482.55C70.6301 484.3 70.19 488.63 71.26 490.17C71.92 491.11 73.49 491.05 73.6 491.92C76.46 492.44 77.49 491.12 79.46 490.75C80.32 488.17 80.62 487.3 80.05 484.3C78.14 482.34 75.8501 481.65 72.4301 482.55Z" fill="#00ACB8"/>
<path d="M102.32 491.34C104.07 491.6 105.849 491.6 107.6 491.34C109.45 489.43 109.99 487.43 109.35 484.34C108.947 484.195 108.582 483.963 108.28 483.66C107.977 483.358 107.745 482.992 107.6 482.59C107.095 482.692 106.575 482.693 106.07 482.591C105.566 482.49 105.086 482.289 104.66 482C103.25 482.74 101.55 483.18 100.56 484.34C99.92 487.42 100.47 489.43 102.32 491.34Z" fill="#00ACB8"/>
<path d="M136.9 482.55C136.404 482.654 135.893 482.658 135.395 482.564C134.898 482.47 134.423 482.278 134 482C132.59 482.74 130.88 483.18 129.89 484.34C129.25 487.46 129.8 489.47 131.65 491.34C133.4 491.6 135.18 491.6 136.93 491.34C138.78 489.43 139.33 487.43 138.68 484.34C138.269 484.193 137.896 483.955 137.588 483.646C137.28 483.336 137.045 482.962 136.9 482.55V482.55Z" fill="#00ACB8"/>
<path d="M159.17 484.3C158.53 487.42 159.07 489.43 160.93 491.3C162.903 491.5 164.896 491.299 166.79 490.71C167.95 489.34 168.14 486.98 167.96 484.26C167.404 483.645 166.724 483.153 165.965 482.819C165.207 482.484 164.386 482.312 163.556 482.316C162.727 482.32 161.907 482.499 161.152 482.84C160.396 483.182 159.721 483.68 159.17 484.3V484.3Z" fill="#00ACB8"/>
<path d="M188.47 484.3C188.264 486.276 188.465 488.274 189.06 490.17C190.43 491.33 192.79 491.52 195.5 491.34C197.36 489.43 197.9 487.43 197.26 484.34C196.71 483.72 196.034 483.222 195.279 482.88C194.523 482.539 193.703 482.36 192.874 482.356C192.045 482.352 191.224 482.524 190.465 482.859C189.706 483.193 189.026 483.685 188.47 484.3V484.3Z" fill="#00ACB8"/>
<path d="M56.61 499C55.73 500.65 56.85 502.28 56.61 504.27C58.52 505.9 61.31 507.33 63.61 506.03C64.2645 505.515 64.8554 504.925 65.37 504.27C66.24 502.49 65.37 499.83 64.78 497.83C61.59 496.17 57.72 496.87 56.61 499Z" fill="#00ACB8"/>
<path d="M92.9399 506C94.7999 504.09 95.3399 502.08 94.6999 499C94.2977 498.85 93.9325 498.615 93.6289 498.311C93.3252 498.008 93.0902 497.642 92.9399 497.24C92.4369 497.344 91.9183 497.345 91.4149 497.243C90.9114 497.142 90.4336 496.94 90.01 496.65C88.6 497.39 86.9 497.84 85.91 499C85.08 502.31 85.84 504.11 87.67 506C89.417 506.26 91.1928 506.26 92.9399 506Z" fill="#00ACB8"/>
<path d="M122.25 497.2C121.747 497.304 121.228 497.306 120.725 497.204C120.221 497.103 119.743 496.901 119.32 496.61C117.9 497.35 116.2 497.8 115.21 498.96C114.57 502.07 115.12 504.08 116.97 505.96C118.72 506.22 120.499 506.22 122.25 505.96C124.1 504.05 124.64 502.04 124.01 498.96C123.608 498.81 123.242 498.575 122.939 498.271C122.635 497.967 122.4 497.602 122.25 497.2V497.2Z" fill="#00ACB8"/>
<path d="M144.52 499C144.03 502.09 144.39 505 146.27 506C148.49 507.23 151.59 505.86 153.27 504.24V499C152.719 498.384 152.045 497.892 151.291 497.555C150.537 497.218 149.721 497.044 148.895 497.044C148.069 497.044 147.253 497.218 146.499 497.555C145.745 497.892 145.071 498.384 144.52 499Z" fill="#00ACB8"/>
<path d="M175.58 497.79C173.32 498.46 173.58 502.73 174.41 504.79C176.02 506.36 180.41 506.36 182.03 504.79C182.81 502.711 182.81 500.419 182.03 498.34C180.83 497.3 177.27 496.52 175.58 497.79Z" fill="#00ACB8"/>
<path d="M78.29 511.85C77.7872 511.957 77.2679 511.959 76.764 511.858C76.2602 511.756 75.7823 511.553 75.36 511.26C73.95 512 72.25 512.45 71.26 513.61C70.62 516.73 71.16 518.73 73.02 520.61C74.7663 520.88 76.5437 520.88 78.29 520.61C80.15 518.7 80.69 516.7 80.05 513.61C79.6478 513.46 79.2825 513.225 78.9789 512.921C78.6752 512.618 78.4403 512.252 78.29 511.85V511.85Z" fill="#00ACB8"/>
<path d="M101.15 512.44C99.6 515.44 100.03 518.69 102.32 520.64C104.07 520.91 105.85 520.91 107.6 520.64C109.6 518.73 110.24 516.44 109.35 513.02C107.45 511 103.63 511 101.15 512.44Z" fill="#00ACB8"/>
<path d="M136.9 511.85C136.397 511.957 135.878 511.959 135.374 511.858C134.87 511.756 134.392 511.553 133.97 511.26C132.56 512 130.85 512.45 129.86 513.61C129.22 516.73 129.77 518.73 131.62 520.61C133.37 520.88 135.15 520.88 136.9 520.61C138.75 518.7 139.3 516.7 138.65 513.61C138.25 513.458 137.886 513.223 137.584 512.919C137.283 512.616 137.049 512.251 136.9 511.85V511.85Z" fill="#00ACB8"/>
<path d="M159.17 513.61C158.9 515.356 158.9 517.134 159.17 518.88C160.53 520.59 164.25 521.25 166.79 520.05C168.15 518.62 168.33 515.1 167.37 513.05C165.39 511.15 160.59 511.64 159.17 513.61Z" fill="#00ACB8"/>
<path d="M190.23 512.44C187.97 513.11 188.23 517.38 189.06 519.44C190.43 520.6 192.79 520.79 195.5 520.61C197.36 518.7 197.9 516.7 197.26 513.61C196.07 512.21 192.43 511 190.23 512.44Z" fill="#00ACB8"/>
<path d="M85.9101 528.26C85.33 530.241 85.5378 532.369 86.4901 534.2C87.3601 534.69 88.2301 535.2 89.1101 535.66C90.9701 535.95 92.5501 535.97 93.5301 535.29C94.5101 534.61 94.4101 533.06 95.2901 532.95C95.8001 530.09 94.4901 529.06 94.1201 527.08C92.815 526.337 91.2995 526.049 89.8129 526.263C88.3262 526.477 86.9531 527.179 85.9101 528.26V528.26Z" fill="#00ACB8"/>
<path d="M115.8 527.08C112.8 532.36 117.03 537.08 122.25 535.29C124.1 533.39 124.64 531.38 124.01 528.29C122.06 526 118.82 525.54 115.8 527.08Z" fill="#00ACB8"/>
<path d="M144.52 528.26C144.03 531.35 144.39 534.26 146.27 535.26C148.49 536.49 151.59 535.11 153.27 533.5V528.23C152.716 527.618 152.04 527.129 151.285 526.795C150.53 526.462 149.714 526.291 148.888 526.294C148.063 526.296 147.247 526.473 146.495 526.812C145.742 527.151 145.069 527.644 144.52 528.26V528.26Z" fill="#00ACB8"/>
<path d="M175.58 527.08C173.32 527.76 173.58 532.03 174.41 534.08C176.02 535.65 180.41 535.65 182.03 534.08C182.81 532.001 182.81 529.709 182.03 527.63C180.83 526.61 177.27 525.82 175.58 527.08Z" fill="#00ACB8"/>
<path d="M102 542C104.45 543.06 106.94 544 109.47 545C109.366 544.339 109.322 543.669 109.34 543C108.924 542.452 108.405 541.99 107.81 541.643C107.216 541.296 106.559 541.069 105.878 540.977C105.196 540.884 104.502 540.926 103.837 541.102C103.171 541.277 102.547 541.583 102 542Z" fill="#00ACB8"/>
<path d="M129.86 542.91C129.22 546.03 129.77 548.04 131.62 549.91C133.592 550.119 135.587 549.921 137.48 549.33C138.65 547.95 138.83 545.6 138.65 542.88C138.096 542.261 137.418 541.767 136.659 541.429C135.9 541.091 135.079 540.918 134.248 540.921C133.418 540.924 132.597 541.103 131.841 541.445C131.085 541.788 130.41 542.287 129.86 542.91Z" fill="#00ACB8"/>
<path d="M160.93 541.15C158.93 542.27 158.64 546.32 159.75 548.77C161.19 550.13 164.75 550.31 166.75 549.36C168.11 547.92 168.29 544.36 167.33 542.36C166 541.16 163.64 541 160.93 541.15Z" fill="#00ACB8"/>
<path d="M194.33 541.15C193.48 541.47 191.33 540.47 191.4 541.74C189.07 541.74 188.99 544.02 188.47 545.84C188.98 550.79 197.47 551.29 197.26 545.25C197.39 544.15 196.6 543.96 196.67 542.91C195.81 542.438 195.022 541.846 194.33 541.15V541.15Z" fill="#00ACB8"/>
<path d="M90.2701 282.44V310.94C90.2701 305.516 89.2018 300.146 87.1263 295.135C85.0508 290.124 82.0086 285.572 78.1735 281.737C74.3385 277.901 69.7856 274.859 64.7748 272.784C59.7641 270.708 54.3936 269.64 48.97 269.64C43.5464 269.64 38.176 270.708 33.1652 272.784C28.1545 274.859 23.6016 277.901 19.7665 281.737C15.9315 285.572 12.8893 290.124 10.8138 295.135C8.73826 300.146 7.6701 305.516 7.6701 310.94V282.44C7.6701 277.016 8.73826 271.646 10.8138 266.635C12.8893 261.624 15.9315 257.072 19.7665 253.237C23.6016 249.401 28.1545 246.359 33.1652 244.284C38.176 242.208 43.5464 241.14 48.97 241.14C54.3936 241.14 59.7641 242.208 64.7748 244.284C69.7856 246.359 74.3385 249.401 78.1735 253.237C82.0086 257.072 85.0508 261.624 87.1263 266.635C89.2018 271.646 90.2701 277.016 90.2701 282.44V282.44Z" fill="#FFEF41"/>
<path d="M172.88 245.14V273.64C172.711 262.797 168.285 252.454 160.557 244.846C152.83 237.237 142.42 232.973 131.575 232.973C120.73 232.973 110.32 237.237 102.592 244.846C94.8646 252.454 90.4387 262.797 90.27 273.64V245.14C90.4387 234.297 94.8646 223.954 102.592 216.346C110.32 208.737 120.73 204.473 131.575 204.473C142.42 204.473 152.83 208.737 160.557 216.346C168.285 223.954 172.711 234.297 172.88 245.14Z" fill="#FFEF41"/>
<path d="M317.46 395.37H312.16C306.392 380.061 296.093 366.873 282.638 357.567C269.183 348.26 253.21 343.276 236.85 343.28H111.36C107.579 343.275 103.865 344.275 100.599 346.178C97.3321 348.081 94.6302 350.819 92.77 354.11C90.9173 348.29 89.9794 342.218 89.99 336.11C89.9913 333.305 90.5451 330.528 91.6198 327.937C92.6944 325.346 94.2689 322.992 96.2533 321.009C98.2377 319.027 100.593 317.454 103.185 316.382C105.777 315.31 108.555 314.759 111.36 314.76H236.85C247.436 314.759 257.919 316.843 267.7 320.893C277.48 324.944 286.367 330.882 293.853 338.367C301.338 345.853 307.276 354.74 311.327 364.52C315.377 374.301 317.461 384.784 317.46 395.37V395.37Z" fill="#FFEF41"/>
<path d="M212.58 395.37C194.289 395.383 176.751 402.659 163.822 415.597C150.893 428.536 143.63 446.079 143.63 464.37V484.76" stroke="#231F20" stroke-width="15" stroke-linecap="round" stroke-linejoin="round"/>
<path d="M48.9999 241.14C38.0465 241.14 27.5417 245.491 19.7964 253.237C12.0512 260.982 7.69989 271.487 7.69989 282.44V332.88C7.69989 343.833 12.0512 354.338 19.7964 362.083C27.5417 369.829 38.0465 374.18 48.9999 374.18V374.18C59.9534 374.18 70.4582 369.829 78.2034 362.083C85.9487 354.338 90.3 343.833 90.3 332.88V282.44C90.3 271.487 85.9487 260.982 78.2034 253.237C70.4582 245.491 59.9534 241.14 48.9999 241.14V241.14Z" stroke="#231F20" stroke-width="15" stroke-linecap="round" stroke-linejoin="round"/>
<path d="M172.88 313.18V245.18C172.88 234.227 168.529 223.722 160.784 215.977C153.038 208.231 142.533 203.88 131.58 203.88V203.88C120.626 203.88 110.122 208.231 102.376 215.977C94.6312 223.722 90.28 234.227 90.28 245.18V332.92" stroke="#231F20" stroke-width="15" stroke-linecap="round" stroke-linejoin="round"/>
<path d="M317.45 395.37C317.45 373.994 308.958 353.493 293.843 338.377C278.727 323.262 258.226 314.77 236.85 314.77H111.35C108.545 314.771 105.768 315.325 103.177 316.4C100.586 317.474 98.2316 319.049 96.2491 321.033C94.2666 323.018 92.6942 325.373 91.622 327.965C90.5498 330.557 89.9986 333.335 89.9999 336.14V336.14C89.9999 343.919 91.5323 351.622 94.5095 358.809C97.4867 365.995 101.85 372.525 107.352 378.025C112.853 383.526 119.383 387.888 126.57 390.864C133.758 393.84 141.461 395.371 149.24 395.37H212.59" stroke="#231F20" stroke-width="15" stroke-linecap="round" stroke-linejoin="round"/>
<path d="M318.49 8.76002C313.438 8.04841 308.295 8.33915 303.355 9.61561C298.416 10.8921 293.776 13.1293 289.701 16.1993C285.626 19.2694 282.196 23.1123 279.607 27.5084C277.017 31.9044 275.319 36.7676 274.61 41.82L243.66 254.23L212.83 42.44C212.12 37.3887 210.422 32.5267 207.834 28.1315C205.245 23.7363 201.816 19.8941 197.742 16.8242C193.668 13.7543 189.03 11.5169 184.091 10.2396C179.153 8.96229 174.011 8.67022 168.96 9.38001C163.909 10.0898 159.047 11.7876 154.652 14.3764C150.256 16.9652 146.414 20.3943 143.344 24.4681C137.144 32.6953 134.467 43.0485 135.9 53.25L158.47 213.81C152.476 208.663 145.132 205.344 137.309 204.246C129.485 203.148 121.511 204.317 114.332 207.616C107.153 210.914 101.071 216.203 96.8078 222.854C92.5446 229.505 90.2791 237.24 90.2801 245.14V282.44C90.2801 271.487 85.9288 260.982 78.1835 253.237C70.4383 245.491 59.9335 241.14 48.98 241.14C38.0266 241.14 27.5218 245.491 19.7766 253.237C12.0313 260.982 7.68012 271.487 7.68011 282.44V394.44C7.68011 476.93 69.9301 548.97 152.26 554.3C237.07 559.79 317.45 495.76 317.45 395.37C317.45 262.81 317.45 307.11 351.54 52.63C352.252 47.5792 351.961 42.4377 350.685 37.4992C349.409 32.5607 347.173 27.9219 344.104 23.848C341.035 19.774 337.193 16.3446 332.798 13.7558C328.403 11.167 323.541 9.46939 318.49 8.76002Z" stroke="#231F20" stroke-width="15" stroke-linecap="round" stroke-linejoin="round"/>
</svg>
